<svg id="svg" xmlns="http://www.w3.org/2000/svg" width="1000" height="1000" viewBox="0 0 1000 1000">
  <g id="face" fill="#f68717">
    <path id="lefteye" d="M506 439.6c3.3 4.8 1 11.3 1.7 17-5 5.5-11.3-2.5-17.8-2.5-11.5-2.3-23.7 0-32.6 5.7-5-3.2-4-11.3-1.6-15.3 5-9.7 15.4-18.5 26.8-20 10.5-1.7 19.5 7 23.5 15.2"/>
    <path id="righteye" d="M580 449.3c-1 3.2 1.5 8-2.5 9.6-6.5-5-15.4-9-24.4-5.7-7.2-.8-16 14.5-20.2 0 1.7-10.5 3.3-23.4 15.4-27.4 6.6-1 12.2-1.7 18 1.5 6.4 6.4 11.3 13.7 13.7 21.8"/>
    <path id="mouth" d="M610.7 480.7c-2.4 33-26 63.7-56 79.8-26.7 15.3-65.7 13.7-90.8-4-25.2-18.6-40.6-48.4-32.6-79 3.3-2.5 7.4-4 11.4-1.6 11.4 23.2 6.5 54 30.8 70.8 22 14.5 56.8 11.3 77-3.2 23.6-16.2 37.4-40.3 41.5-66 5-9 16.3-4 18.7 3"/>
  </g>
  <g id="petals" fill="#f68717">
    <path d="M370 301.7c23.3 36.3 18.5 85.5 41.2 122.6-5 4.8-13.8 3.2-20.3 4.8-48.7 28.3-118.5 30.7-164.7-4.7-60-50.8-76.2-121-106.3-184.7l-15.4-20c5.7 0 13 3 19.5 4.7 86 12 191.5-4 246 77.4"/>
    <path d="M513.4 161.4c31.6 62 3.2 129.8-28.4 182.2-1.6 8-4 16.2-5 24.2-34.7-28.2-81-40.3-105.3-82.2-62.4-74.2-20.3-178.2-2.4-258.8C421 68.8 490 96 513.3 161.4"/>
    <path d="M717 61.4c25 70.2 42 165.3-10.6 228.2-40.5 41-93.3 51.6-133.8 92-12.2-20.2-17-45.2-22.7-69.4-12.3-61.3-17-131.4 34-175 28.3-24 61.6-38.7 94-55.6.8-5.6 7.3-1.6 9.8-5.6 10.5-7.3 22-18.6 26-30 4 3.4.7 10.6 3.2 15.4"/>
    <path d="M966.8 268.6c-31.7 46.8-35 106.5-79.5 146.8C847.5 454 794 471.8 738 459c-37.3-5.7-72-19.4-112-20.2C662 386.4 677.3 317 742 287.2c68.2-39.5 141.2-2.4 214.2-13.7 3.3-2.4 7.3-2.4 10.6-5"/>
    <path d="M381.2 513c-55 25.8-82 96.7-141 109.6-82 25.8-151.8-20-215-59.7-9-3.3-17-6.5-25.2-9 54.4-36.2 106.3-80.6 170.3-96.7 61-18.5 123.3.8 172.8 31.5 12.2 9.6 25.2 17 38.2 24"/>
    <path d="M989.5 597.6c3.2 4.8 9 5.6 10.5 10.5-75.4-14.4-116.8 75-193.8 55-70.6-16.2-129.8-79-172-138.8 8-4 20.3-.8 29.3-3.2 67.2-30.6 158-69.3 230.3-23.4 42.2 23.4 66.5 63.7 95.7 100"/>
    <path d="M443.6 584c-11.3 60.4-9 127.3-51 175-59.3 57-142 59.5-211 95.8 1-8 9.8-17.8 13-27.4 29.2-56.5 13-133 63.3-181.4 47-53.2 111.8-68.6 182.4-63.7l3.2 1.6z"/>
    <path d="M834.6 780.6c8 34 8 68.6 2.4 103.2-42.2-59.6-129.8-21.7-181.7-66-73-53.3-31.6-154-58.3-227.5l1.5-2.4c98.2 19.3 209.3 88.6 236 192.6"/>
    <path d="M580 864.5c-20.4 41-61.7 71.7-88.5 108-31.7-49.2-90.8-88.7-86-153.2 2.5-79 50.3-144.3 115.2-196.7 60 63.7 100.5 157.2 59.2 242"/>
  </g>
  <path fill="#fff" id="flower" d="M297 294.5c-5.8 2.4-12.3 4.8-14.8 10.4-4 13.6 9 22.5 11.4 35.4-11.4 17.8-23.5-13.7-39-11.3-5.6 3.3-10.5 5.8-13 12.2-1.5 6.5-1.5 16 5 20.2 12.2 8 23.5-3.2 35.6-.8 3.3 9.6-12 14.5-18.6 20-6.5 5.8-8 15.4-5.7 23.5 3.2 5 6.4 8 12 9.8 9.8 3.2 18-1.7 25.2-7.3 11.4-8.8-1.6-27.4 9-35.4 9.7 8 9 20.2 15.4 29 5.7 5.7 15.4 5.7 22.7 4 9-4.7 13-14.4 9.7-24-6.5-17-30.8-6.5-35-23.5 11.5-9.6 34.2 4 43-11.3 4-6.4 3.4-14.4 1-21.7-4-8-13-12-22.8-11.3-10.5 5.6-13.8 18.6-23.5 26.6-3.3 3.2-6.5 0-8-2.4.7-12 8-21.8 8-34 0-10.4-11.3-7-17.8-8"/>
</svg>
