<svg xmlns="http://www.w3.org/2000/svg" viewBox="0 0 1000 1000">
  <g>
    <g fill="#f68717">
      <path d="M359.3 308c22.2 34.5 17.6 81.2 39.2 116.8-4.8 4.6-13 3-19.3 4.6-46.3 26.8-112 29-156.7-4.5-57-49-72.4-115-100.7-176l-14.6-19c5.4 0 12.3 3 18.5 4 81.7 12 182.3-3 233.6 74m136-135c30 59 3 123-27 173-1.6 7-4 15-5 23-33-27-77-39-99.6-79-59.3-70.4-19.3-169-2.3-246 46.3 40 112 66 134 128.3M689 80c23.6 66.7 39.8 156.7-10.2 216.5-38.4 39-88.6 49-127.2 87.5-11.6-19.2-16.2-43-21.6-66-11.7-58-16-124.3 32.3-166 27-23 58.5-37 89.3-53 .7-5.2 7-1.4 9.3-5.2 10-7 20-17.7 24-28.5 4 3.3 0 10 3 14.7m238 197c-30 44.4-33 100.6-76 139.6-37 36.4-88 53.4-141 41.2-35-5.4-68-18.5-106-19.2 34-49.8 48-116 110-144.4 65-37.3 134-2 203-13 3-2 7-2 10-4.5m-557 232C316 533 291 600.4 235 613c-77.7 25-144-19-203.7-57-8.8-3-16.4-6-24-8C59 513.3 108 471 169 456c58-17.7 116.7.6 164.2 30 11.6 9 24 16 36.3 22.6M948.2 589c3 4.7 8.5 5.4 10 10-71.7-13.6-111.2 71.3-184.3 52.3-67-15.4-124-75-164-132 7-3.8 19-.8 28-3 64-29 150-65.8 218-22.3 40 22.3 63 60.5 91 95m-518-13.2c-10 57.4-8 120.6-48 166.2-57 54.2-135 56.5-201 91 1-7.6 9-17 12-26 28-53.7 12-126.3 60-172 44-50.4 106-65 173-60.4l3 1.5z"/>
      <path d="M801 763c7.6 32.2 7.6 65 2.3 97.7-40-56.6-123.5-20.6-173-62.6-69.2-50-30-146-55.3-216l1.5-2c93.2 18 198.5 84 224 183m-241.7 79c-19.4 39-58.6 68-84 103-30.3-47-86.4-84-81.8-145 2.4-75 47.8-136 109.3-187 57 61 95 149 56.2 230"/>
    </g>
    <path fill="#fff" d="M290 300.5c-5.5 2.3-11.7 4.5-14 10-3.8 12.8 8.5 21.2 10.8 33.5-10.8 17-22.3-13-37-10.7-5.4 3-10 5.5-12.4 11.5C236 351 236 360 242 364c11.7 7.6 22.5-3 34-.7 3 9-11.4 13.7-17.7 19-6.2 5.5-7.6 14.6-5.4 22.3 3 4.7 6 7.6 11 9.3 9 3 17-2 24-7 10-9-2-26 8-34 9 7 8 19 14 27 5 5 14 5 21 3 8.2-5 12-14 9-23-6-16-29.5-6-33.5-22 11-9 32.4 4 41-11 3.6-6 3-14 1-21-4-7.7-12.5-11.5-22-10.8-10 5-13 17.4-22 25-3 3-6 0-8-2.3 1-11.3 7.8-20.6 7.8-32 0-10-10.8-6.6-17-7.5"/>
  </g>
</svg>
