<svg xmlns:rdf="http://www.w3.org/1999/02/22-rdf-syntax-ns#" xmlns="http://www.w3.org/2000/svg" height="946" viewBox="0 0 1000 945.69997" width="1e3" version="1.1" xmlns:cc="http://creativecommons.org/ns#" xmlns:dc="http://purl.org/dc/elements/1.1/">
<g transform="translate(.00003 3.34)">
<g transform="translate(-.00003 -30.1)" fill="#f68717">
<path d="m370 302c23.3 36.3 18.5 85.5 41.2 123-5 4.8-13.8 3.2-20.3 4.8-48.7 28.3-118 30.7-165-4.7-60-50.8-76.2-121-106-185l-15.4-20c5.7 0 13 3 19.5 4.7 86 12 192-4 246 77.4"/>
<path d="m513 161c31.6 62 3.2 130-28.4 182-1.6 8-4 16.2-5 24.2-34.7-28.2-81-40.3-105-82.2-62.4-74.2-20.3-178-2.4-259 48.7 42 118 69.2 141 135"/>
<path d="m717 61.4c25 70.2 42 165-10.6 228-40.5 41-93.3 51.6-134 92-12.2-20.2-17-45.2-22.7-69.4-12.3-61.3-17-131 34-175 28.3-24 61.6-38.7 94-55.6 0.8-5.6 7.3-1.6 9.8-5.6 10.5-7.3 22-18.6 26-30 4 3.4 0.7 10.6 3.2 15.4"/>
<path d="m967 269c-31.7 46.8-35 106-79.5 147-39.8 38.6-93.3 56.4-149 43.6-37.3-5.7-72-19.4-112-20.2 36-52.4 51.3-122 116-152 68.2-39.5 141-2.4 214-13.7 3.3-2.4 7.3-2.4 10.6-5"/>
<path d="m381 513c-55 25.8-82 96.7-141 110-82 25.8-152-20-215-59.7-9-3.3-17-6.5-25.2-9 54.4-36.2 106-80.6 170-96.7 61-18.5 123 0.8 173 31.5 12.2 9.6 25.2 17 38.2 24"/>
<path d="m990 598c3.2 4.8 9 5.6 10.5 10.5-75.4-14.4-117 75-194 55-70.6-16.2-130-79-172-139 8-4 20.3-0.8 29.3-3.2 67.2-30.6 158-69.3 230-23.4 42.2 23.4 66.5 63.7 95.7 100"/>
<path d="m444 584c-11.3 60.4-9 127-51 175-59.3 57-142 59.5-211 95.8 1-8 9.8-17.8 13-27.4 29.2-56.5 13-133 63.3-181 47-53.2 112-68.6 182-63.7l3.2 1.6z"/>
<path d="m835 781c8 34 8 68.6 2.4 103-42.2-59.6-130-21.7-182-66-73-53.3-31.6-154-58.3-228l1.5-2.4c98.2 19.3 209 88.6 236 193"/>
<path d="m580 864c-20.4 41-61.7 71.7-88.5 108-31.7-49.2-90.8-88.7-86-153 2.5-79 50.3-144 115-197 60 63.7 100 157 59.2 242"/>
</g>
<path fill="#fff" d="m297 264c-5.8 2.4-12.3 4.8-14.8 10.4-4 13.6 9 22.5 11.4 35.4-11.4 17.8-23.5-13.7-39-11.3-5.6 3.3-10.5 5.8-13 12.2-1.5 6.5-1.5 16 5 20.2 12.2 8 23.5-3.2 35.6-0.8 3.3 9.6-12 14.5-18.6 20-6.5 5.8-8 15.4-5.7 23.5 3.2 5 6.4 8 12 9.8 9.8 3.2 18-1.7 25.2-7.3 11.4-8.8-1.6-27.4 9-35.4 9.7 8 9 20.2 15.4 29 5.7 5.7 15.4 5.7 22.7 4 9-4.7 13-14.4 9.7-24-6.5-17-30.8-6.5-35-23.5 11.5-9.6 34.2 4 43-11.3 4-6.4 3.4-14.4 1-21.7-4-8-13-12-22.8-11.3-10.5 5.6-13.8 18.6-23.5 26.6-3.3 3.2-6.5 0-8-2.4 0.7-12 8-21.8 8-34 0-10.4-11.3-7-17.8-8"/>
</g>
</svg>
