<svg xmlns="http://www.w3.org/2000/svg" viewBox="0 0 1000 1000">
  <g fill="#f68717">
    <path d="M492.3 456c2.5 3.7.8 8.6 1.3 13-3.8 4-8.5-2-13.4-2-8.7-1.7-18 0-24.6 4.3-3.8-2.4-3-8.5-1.2-11.5 3.8-7.3 11.6-14 20.2-15 8-1.4 14.7 5.2 17.7 11.4M548 463c-.6 2.3 1.3 6-1.8 7-5-3.7-11.6-6.7-18.4-4.2-5.4-.6-12 11-15.2 0 1.3-8 2.5-17.6 11.6-20.6 5-.8 9.2-1.3 13.6 1 4.8 5 8.5 10.4 10.3 16.5m23.5 24.3c-1.8 25-19.6 48-42.2 60.2-20.2 11.5-49.6 10.3-68.5-3-19-14-30.6-36.5-24.6-59.6 2.5-2 5.6-3 8.6-1.2 8.6 17.5 5 40.7 23.3 53.4 16.7 11 43 8.5 58-2.5 18-12.2 28.4-30.3 31.5-49.7 3.8-6.8 12.3-3 14 2.2"/>
  </g>
</svg>
