<svg xmlns="http://www.w3.org/2000/svg" width="2798.86" height="312.85" viewBox="0 0 2798.8647 312.853">
  <path d="M59.9 303.44c-1.5-5-3.34-13-4.1-17.82-2.1-12.9-1.32-36.84 1.56-48.7 2.1-8.66 2.2-10.26.65-12.46-2.7-3.93-2.1-7.07 2.9-14.46 5.8-8.65 26.1-29.63 31-32.2 2.1-1.05 6.3-4.15 9.4-6.88 3.1-2.74 6.9-5.54 8.4-6.24 2.7-1.23 2.7-1.7 2-16.1l-.7-14.8 7.4-3.27c9.8-4.3 14.6-5 16.7-2.5 1 1.2 2 6.7 2.3 13.4.5 7.9 1.2 11.6 2.4 12 2.6 1 17.5-10.2 29.4-22.2 12-12 14.7-13.5 18-10.3 1.9 1.9 2.1 3.7 1.3 12.6-.6 8-.4 10.5.8 10.9.9.3 5.8 1.8 10.8 3.3 6.5 2 9.8 3.8 11.3 6 1.2 1.7 5.9 7.1 10.5 12 8.2 8.7 20.7 26.9 24.4 35.8 2.1 4.9 3.8 10.9 8.6 29.4 2.8 10.9 3.1 14.2 2.5 25.3-1 19.1-5.8 30-20.3 47.2l-7.4 8.8-7.3.4-7.3.4 6.2-6.8c5.6-5.9 14.3-16.2 18.7-22.2 4.3-5.8 7.7-19.6 8.1-33.2.4-14.6-2-27-8-41.3-2.9-6.9-12.1-22.7-17-29.3-4.3-5.8-17.1-15.1-20.8-15.1-4 0-19.2 6.2-19.2 7.8 0 .7 2.8 7 6.2 13.9 9.9 20.5 12.5 26.7 13.4 32 1.2 7.6-1.6 7.7-11.1.7-12.4-9.3-31.3-18-39.3-18.1-1.5 0-4.3 1.9-6.5 4.4-8 9.2-21.6 42.3-23.3 56.9-1.2 10.5-1.7 12.2-3.9 13-1.1.4-2.7.2-3.6-.6-2.6-2.1-5.6-18-6.4-33.6-.6-12.2-.3-15.9 1.9-24.7 3.4-13.2 3.5-17.8.3-17.8-2.6 0-18.4 8.1-28 14.2-11 7.1-18.1 26.5-18.7 50.8-.3 13.2 2.6 31.8 6.6 42.2l2.5 6.5H63l-2.7-9.1zm64.5-83.75c4.35-9.8 16.77-28.3 19.6-29.2 3.6-1.2 20.8 3 28.56 7 8.16 4.1 12.44 4.7 12.44 1.8 0-2.4-5.48-13.4-10-20-6.9-10.2-6.13-12.4 5.92-16.9 11.7-4.4 13.14-6.7 5.48-8.7-6.03-1.7-7.7-3.6-8.55-10-.37-2.8-1.23-5.1-1.9-5.1-.66 0-5.14 3.4-9.95 7.5-9.57 8.2-25.8 19.6-28.6 20-5.37.7-6.86-2.4-7.93-16.9-.4-5.5-1.24-10.5-1.87-11.1-.68-.7-2.55-.7-4.68 0-3.52 1.1-3.54 1.2-3.36 11 .1 5.4.58 11.9 1.05 14.4 1 5 2.1 3.8-16.3 18.2-17.4 13.6-18.3 17-2.1 8.4 11.7-6.3 17-8 19.6-6.5 1.9 1 2 2.7 1.4 13.3-.4 6.6-1.5 15-2.5 18.5-3.7 13.4-1.4 15.7 3.9 3.8zm232.2 87.2c1.18-5.1.93-6.2-3.27-14.7-8.97-18.1-17.02-30.4-24.57-37.6-9.8-9.3-15.55-12.2-24.27-12.2-6.5 0-7.4.4-14.6 6.4-8.7 7.2-12.4 13.8-12.4 22.3-.1 7.4 4.2 13.8 11.7 17.3 10 4.7 18.2 3 25-5 2.9-3.5 3.2-4.7 2.5-9.1-1.8-10.7-5.6-14.3-13.2-12.6-7.4 1.6-10.8 8.5-6.9 13.8 2.3 3.1 2.3 3.7-.1 6-2.7 2.6-3.5 2.5-7.2-1.3-4.9-4.9-5.8-13.3-2.2-20.1 3.3-6.3 6-8.3 14.1-10.3 5-1.3 6.5-1.2 9.7.4 5.9 3 10.7 10.8 13 21.2 2 8.9 2 9.5-.3 14.6-3.1 6.9-11.3 14.3-17.1 15.4-6.3 1.1-13.9-.2-21.5-3.9-9.4-4.6-14.7-12-16.8-23.8-1.2-6.2-1-8 1.9-16.8 2.7-8.3 4.3-10.8 9.8-16.1 8.8-8.3 13.7-10.7 22-10.7 5.2 0 8.7.9 14.4 3.8 11.4 5.9 21.4 14.5 25.3 21.7 1.9 3.5 5.6 9.8 8.3 14 11.4 18 15.1 27.7 14.7 38-.2 3.9-.5 4.1-5.1 4.1H355l1.3-5.6zm412.35.2c1.9-8.5 17.5-40.8 22.47-46.5 5.1-5.8 20.7-18.1 27.26-21.4 6.38-3.3 19.98-6.9 25.7-6.9 7.1 0 19.98 4.2 25.22 8.2 2.6 2 5.75 6.2 7.58 10.2 2.63 5.7 3 7.9 2.32 13.7-.88 7.6-1.68 9.5-7.43 18-5.15 7.6-10.44 10.9-21.24 13.2-14.24 2.9-24.67-1.1-30-11.7-6.4-12.7-5.6-17.5 4.23-25.3 8.12-6.4 11.13-7.2 18.2-4.5 6.7 2.6 10.88 9 8.04 12.4-2 2.4-6.17 2.4-9.35 0-3.6-2.7-6.23-2.3-10.65 1.9-11.42 10.7 6.02 22.3 22.7 15.2 12.75-5.5 20.7-25.3 13.04-32.5-1.63-1.5-6.83-4.2-11.56-5.8-7.72-2.7-9.37-2.9-16.03-1.7-12 2.1-25.2 9.7-36.93 21.1-5.02 4.9-8.22 10-15.13 24.2-4.9 9.9-8.9 19.2-9 20.6-.2 2.2-1 2.6-5.5 2.6h-5.3l1.2-5.3zm425.44 1.3c1.6-8 8.3-22.2 14.4-30.9 14.5-20.7 46-41 65.6-42.4 6.6-.5 8.6-.1 15.2 3.3 12.4 6.2 19.6 17.9 19.6 32 0 17.1-8.5 27.7-26.2 32.5-21.1 5.7-40.7-3.9-40.7-20 0-7.4 2.2-12.7 8-18.5 6.6-6.8 11.1-8.8 17.4-7.8 7.6 1.2 15.2 5.1 16.9 8.8 1.8 4.1 1.9 3.9-1.7 6.2-2.9 1.9-3.3 1.8-6.6-.4-8.3-5.8-14.7-4.4-20.9 4.5-4.1 5.8-4.1 10.2-.3 13.8 6 5.7 18.2 6 30.1.7 7.2-3.2 9.7-5.7 12.4-12.1 2.8-6.7 2.3-11.9-1.7-19.7-2.7-5.4-4.8-7.6-9.6-10.3-3.4-1.9-7.7-3.4-9.7-3.4-5.2-.1-20.8 6.8-31.6 13.8-19.4 12.6-31.5 27.1-38.8 46.1-2.6 6.7-2.7 6.9-7.9 7.2l-5.3.4.8-4.2zm124.9 1.6c.2-1.3.8-5.1 1.3-8.5 1.1-7.9 5.8-20.1 11.5-30.4 7-12.7 33.3-38.4 51.5-50.2 7.9-5.2 16.9-10.8 20-12.6 9.5-5.5 28.4-11.3 38.7-11.9 12.9-.8 14.4-1.2 16.8-5 1.2-1.8 4.1-10.6 6.5-19.4 3.5-13.3 4.2-17.9 3.9-26.3-.4-11.9-2.1-13.6-6-6-4.3 8.4-11.8 15.5-20.2 19.3-6.7 3-8.7 3.4-15.6 2.7-14.4-1.3-28.1-10.4-33.3-21.9-1.8-4.1-2.6-9.4-3.1-20.6-.8-19.7 1.1-27.7 11.6-49.4 6.7-13.9 9.5-18.2 15.9-24.5 9.6-9.6 15-12.7 19.1-10.8 5.2 2.4 3.8 6.7-3.8 11.9-7.9 5.4-8.9 7.3-6.4 11.3 2.4 3.6 1.2 4.7-4 3.7l-4.2-.8-8.1 16.7c-6.8 14-8.3 18.3-9.3 26.8-1.3 10.6-.1 29.7 2.2 33.8 2 3.7 9.3 10.1 13.1 11.6 5.2 2 16.7 1.6 21.5-.7 10.8-5.2 16.9-15.6 17.7-30.1.5-9.8.4-10.5-3.1-14.9-5.2-6.8-12.5-11.8-17.4-11.8-8.6 0-16.8 5.4-16.8 11.2 0 6.3 4.7 8.1 9.5 3.6 3.2-3 8.4-2.6 9.7.9 1.1 2.9-3.6 9.9-7.8 11.7-4.4 1.8-12 .6-16.6-2.7-6.5-4.6-7.9-18.8-2.6-25.9 3.4-4.6 15.9-10.8 21.5-10.6 5.7.1 10.2 2.4 19.4 9.9 8.5 6.9 14.4 15.6 14.4 21.2 0 3.6.6 4.3 5.3 6.1 7.5 3 9.7 5.5 15.3 16.9 2.7 5.5 5.4 10 5.9 10 .6 0 2.5-3.3 4.3-7.2 4.7-10.4 5.3-23.6 1.6-36.1-1.6-5.2-2.9-12-3-15.2-.2-5.8-.2-5.9 4.6-7 3.4-.9 5.6-.7 7.8.4 3.5 1.8 16.1 20.2 18.2 26.3 3 9.1 5.2 8.8 10.5-1.6 5.6-11.1 8.3-19.1 9.3-27.7.5-4.7 1.6-9.2 2.3-9.9 2.4-2.4 13.1 8.1 17.1 16.8 4.7 10.6 5.7 14.7 6.7 27.9.9 12.8.4 12.4 12.6 8.8 3.8-1.1 13.3-2.3 21.1-2.7 11.6-.5 14.8-.3 17.3 1.4 5 3.2 3.5 8-3.5 11.8-7 3.8-21 14.2-28.5 21.2-4.8 4.5-5.3 5.4-3.7 6.9 1 1.1 7.3 2.6 14.8 3.7 14.9 2.1 19.1 4.5 16.7 9.8-1.2 2.6-2.8 3.1-12 4.4-12.5 1.7-18.5 3.7-39.6 13.3-15.1 6.8-22.5 11.8-22.5 15.2 0 .9 2.7 2.9 5.9 4.5 13.5 6.5 23.9 13.4 33.1 22 5.1 4.7 5.8 7.5 2.7 10.7-1.7 1.7-2.4 1.8-4.7.3-6.1-3.9-15.1-5.3-33.3-5.2-16.2.1-18.9.5-25.6 3.2-4.7 1.9-7.5 3.7-7.3 4.9.1 1 1.4 5.2 3 9.3 1.7 4.5 3 11.6 3.4 17.9.5 9.6-.1 15.4-3.8 32.4l-1.4 6.6H1507l1.9-5.4c2.4-6.7 1.4-9.6-3.2-9.5-4.8.1-9.6 6.2-8.9 11.2.5 3.5.3 3.7-3.4 3.7-3.5 0-4.2-.6-5.9-5-1.9-4.9-2.1-5-8.2-5-3.4 0-7.2-.3-8.3-.8-3.2-1.2-4.77-6.3-5.5-18.6l-.8-11.3-7.5-.8c-4.1-.5-9.8-2-12.5-3.4l-5-2.5-.3-12.8c-.1-7-.4-13-.7-13.2-.84-.87-13.87-4.2-18.96-4.9-11.1-1.6-14.5-4.9-12.6-12.4.6-2.28.3-3.16-1-3.16-2.5 0-17.6 10.4-17.26 11.9.18.7 2.48 1.3 5.1 1.3 5.07 0 10.1 3.26 10.1 6.47 0 .96-1.7 4.9-3.7 8.75-3.6 6.7-4.64 11.6-2.9 13.3.45.43 4.15-2.8 8.2-7.3 7.8-8.5 10.5-9.6 13.9-5.8 2.8 3 2.8 2.9-2.3 9s-4.3 8.7 2.7 8.7c3.1 0 5.56 1.2 9.2 4.5 4.3 3.9 5 5.2 5 9.8 0 2.9.3 5.6.7 6 .4.4 3.3-.5 6.4-2l5.6-2.7 2.3 2.9c2.9 3.56 2.36 5.07-3.2 8.85-6.4 4.4-5.3 7.7 2.6 7.7 2.4 0 13.08 3.47 13.08 4.2 0 .1.57 2.1 1.2 4.4l1.25 4.2-8.4-.9c-4.6-.4-11.5-1.1-15.3-1.4-8.7-.7-15.6-2.53-17.2-4.52-.8-1-.8-5.9 0-14.6 1.3-15.1 1-15.7-8.9-17-3.1-.4-8.3-1.2-11.4-1.8-3-.53-7.7-.7-10.3-.4-3.9.5-4.7 1.1-4.7 3.7 0 1.7-.8 4.73-1.9 6.8-1 2.1-1.7 5.3-1.5 7.1l.4 3.32 5.3-4.8c5.2-4.7 5.4-4.8 8.5-2.8 4.2 2.8 3.9 4.4-1.9 11.7-2.8 3.5-5 6.9-5 7.7 0 .9 3.5 1.4 10.1 1.4 9.7 0 13.6 1 17.1 4.5 1.4 1.4-1.2 1.7-16.3 1.7-11.3 0-18.4-.5-19.3-1.4-1-1-2.1-1-3.9 0-3.6 1.93-18.1 1.7-25-.4-3.2-.97-7.9-2.1-10.4-2.5-2.5-.4-6.7-2.1-9.2-3.9-5.4-3.6-6.8-2.7-6.8 4.2 0 3.9-.2 4.1-5 4.1-4.2 0-4.9-.4-4.5-2.4zm54.3-18c.8-6.1 1.1-11.5.7-12.2-.4-.6-2.8-1.5-5.4-1.9-10.8-1.8-17.4-3.6-21.1-5.8l-4-2.4-3.2 5.3c-4.8 8.2-8.5 17.1-7.7 18.5 1.6 2.6 6.2 1 12-4.4 6.1-5.7 9.4-6.8 12.1-4.1 2.2 2.2 1.8 4.1-1.7 8.3l-3.2 3.8 2.8 1.8c1.6 1 4.3 2.2 6 2.7 1.7.5 4.2 1.7 5.6 2.6 3.8 2.6 5.1.1 6.8-12.4zm127.7-11c.4-6.7.2-12.4-.4-13.3-.7-.9-5.5-1.7-11-1.9l-9.9-.4-2.6 8.1c-2.9 9.2-3.3 15.6-1 17 1.4.9 20 2.7 22.8 2.3.7-.1 1.6-5.5 2-12zm13.3-1.8c.3-3.6-1.5-8.1-2.6-6.8-.4.3-1 3-1.5 6-.8 4.8-.7 5.4 1.4 5 1.5-.3 2.4-1.7 2.6-4.2zm-127.5-21.4c.8-7.3 1.1-13.8.8-14.4-.4-.6-2.6-1.1-4.9-1.1-2.4 0-4.6-.6-5-1.3-1.5-2.4-5-1.2-9.7 3.4-5.7 5.4-6 7.1-1.4 6.2 7.9-1.6 10.4 4.5 4 10.1-2.1 1.8-3.8 3.9-3.8 4.7 0 1.3 11.3 5 16.3 5.4 1.5.1 2.2-2.6 3.4-13.2zm125.8 4.2c-2.4-8.1-7.4-17.3-16.7-31.5-8.7-13.1-23.9-23.1-35.7-23.6l-6.3-.3-.4 4.2c-.6 5.9 1.3 7.2 5.8 4 4.9-3.5 7.4-3.4 9.1.4 1.1 2.5 1 3.7-.8 6.4-2.4 3.6-1.2 5.4 3.5 5.5 1.3 0 4.5.7 7.2 1.5 5.6 1.7 8.5 6 8.5 12.9 0 4.4.1 4.5 4.1 3.7 5-.9 7.4 1.3 7.6 7.2.1 3.3.7 4.1 4.2 5 2.2.5 4.9 2.4 6.1 4.1 2.5 3.8 4.7 4 3.6.3zm-34.6-10.8c.4-14.9-.1-15.4-11.3-15-6.5.2-9-.3-13.5-2.8l-5.6-3.1-2-11.9c-2.2-13.2-2.9-13.9-10.7-11.3-4.9 1.6-5.1 2-2.5 5.5 2.5 3.3 2.3 6-.6 9.8-1.4 1.7-2.5 3.4-2.5 3.8 0 .3 1.9 1.3 4.2 2 2.3.8 6.5 3.1 9.3 5.1 4.5 3.3 5.1 4.3 5.1 8.7 0 5.8 1.3 6.2 6.4 1.9 4-3.4 7.2-4 9.5-1.6 2.7 2.7 1.6 6.8-3.1 11-4.3 3.9-4.5 4.2-2.3 5.8 1.2.9 4.8 1.7 8 1.7 3.1 0 6.5.5 7.5 1.2 1 .6 2.1 1.2 2.5 1.2.4 0 .8-5.6 1-12.3zM1521 231c7.18-2.53 20.94-4.65 30.64-4.7 9.9-.08 7.72-2.1-12.1-11.2-7.95-3.67-20.22-6.2-30.37-6.3-3.4-.05-4 .44-4.47 3.67-1.5 10.18 3.2 23.7 7.54 21.8 1.15-.5 5.1-1.96 8.75-3.26zm-98.32-14.32c2.4-2.16 3.1-5.43 1.2-5.43-2.27 0-6.78 4.63-5.9 6.05 1.2 1.94 2 1.83 4.7-.62zm72.3-16.42c0-13.87-1.92-28.53-4.1-31.25-.7-.8-1.74-4.4-2.28-7.9-1.1-6.8-4.8-15.4-6.7-15.4-.65 0-1.86 4.4-2.68 9.7-1.43 9.3-6.98 31.9-9.32 38.1-1.57 4.2-.5 6 5 8.4 2.66 1.2 7.56 4.9 10.9 8.3 8.17 8.3 9.18 7.2 9.18-9.6zm42.2-2.8c3.6-2.07 6.55-4.3 6.55-4.98 0-.67 6.6-4.4 14.7-8.27 14.67-7 17.03-8.6 15.66-10.9-1-1.6-29.1.1-38.1 2.3-7.9 1.9-29.8 9.4-31.4 10.8-.6.5-.6 3.2-.2 6.1.7 4.8 1.1 5.2 4.7 5.4 2.1.1 7 .9 10.8 1.7 9.9 2.3 10 2.3 17.2-1.8zm-24.05-26.33c7.95-2.96 8.37-3.66 10.64-17.73l1.54-9.68-3.3-3.07c-3.7-3.44-4.1-6.55-1.4-10.12 4.1-5.36.9-20.57-6.5-31.5-6.9-10.12-8.2-8.3-4.5 6.17 3.3 12.66 2.6 21.2-3.3 40.2-4.4 14-5.1 17.77-4.4 22.58 1 6.67 1.6 6.82 11.4 3.15zm47.82-9.4l11.6-.84 2.15-4.7c1.24-2.7 6.83-8.8 13.15-14.4 12.47-11 12.8-13.2 1.57-10.7-8.58 1.9-39.87 15.5-45.47 19.7-2.28 1.7-5.66 3.5-7.5 4-3.43.9-4.76 3.7-3.42 7.2.62 1.6 2.13 1.8 8.54 1.2 4.26-.4 13-1.2 19.36-1.6zm-13.3-25.7c13.83-5.65 15.86-7.6 17.56-16.83 1.1-5.94 1.1-9.4-.1-15-3-14.14-8.7-21.2-10.6-13.34-1.3 5.47-10.1 23.7-15.7 32.4-4.8 7.76-5.7 10.78-4.2 14.75 1.1 2.7 2.1 2.6 13.2-2zm270.1 172.05c-9.42-6.34-13.05-12.1-17.74-28.17-4.5-15.5-4.5-20.5 0-35.1 4.1-13 16-28.6 29.8-38.8 10.3-7.6 15.9-9.7 25.9-9.6 10.4.1 29.3 3.8 33.6 6.6 5.2 3.4 10.7 16.4 11.6 27.2.7 8.5.5 10.3-2.3 16.4-6.6 14.4-19.2 21.4-36.6 20.2-10.9-.7-16.3-3.3-19.4-9.4-3.6-7-3.3-17.7.6-21.6 2.1-2.1 3.9-2.7 6-2.2 6.5 1.6 7.6 4.5 3.6 9.1-3.2 3.7-3.2 7.6.1 11 2.1 2.3 3.9 2.8 10.7 2.8 10.2 0 14.9-1.9 20.8-8.4 6.3-7 8.1-13.3 6.2-21.9-2.2-9.9-5.4-14.3-11-15.3-2.6-.4-8.1-1.6-12.2-2.7-10.8-2.7-17.8-1.5-26.5 4.5-9.4 6.5-25.3 23.5-25.3 27.1 0 .5-1.1 2.3-2.5 4-6.1 7.8-6.8 23.4-1.7 39 3.4 10.6 5.3 13 16.7 21.7 7.5 5.6 8.1 8.5 1.7 8.5-3.4 0-6.6-1.2-11.3-4.4zm456.85.4c1.6-2.75 4.14-4.65 8.08-6.06 9.03-3.2 18.64-11.4 28.3-24.13 2.73-3.6 3.62-7.1 1.8-7-.5 0-5.45 4.1-10.98 9.1-11.78 10.6-24.26 19.1-35.42 24l-7.98 3.5-2.34-2.9c-1.28-1.6-2.33-3.5-2.33-4.2 0-2.7 8.94-9.7 12.4-9.7 4.4 0 14.83-7.4 29.9-21.1 13.05-11.9 12.48-10 7.8-25.8-3.05-10.3-3.27-14.8-.8-16.9 2.67-2.3 9.2 1.5 10.17 5.9 1.5 6.7 3.23 11.5 4.48 12.3 1.83 1.1 10.66-7.9 13.53-13.9 2.2-4.6 2.3-5.7.9-11.9-.9-3.8-2.5-8.7-3.7-10.9-3.2-6.2-6-15.3-5.6-18.3.9-6.4 9.9-2.7 12.2 5 2.9 9.5 6.7 16.7 8.7 16.3 2.7-.5 10.4-13.7 9-15.1-.6-.7-2.4-1.8-4-2.6-2.2-1.1-3.1-2.9-3.7-7.3-.4-3.2-1.2-6.4-1.6-7.2-1.1-1.9-4.4-14.8-4.4-17.6 0-3 1.9-4.1 5.7-3.2 3.9 1 5.5 4 8.7 16.3 1.4 5.4 3.3 10.1 4.2 10.4 2.5.8 7.4-11.5 10.3-25.4 2.8-13.8 4.5-16.6 8.5-14.5 7.2 3.8 9.5 14.5 5.7 27.2-1.4 4.8-1.6 7.2-.7 8.2 1.6 1.6 21.5-2.7 22.3-4.9.3-.8-1.1-3.1-3.2-5.2-4.1-4.2-4.2-3.1 1-17.8 1.3-3.8 2.8-9.5 3.2-12.6.7-5.1.4-6.2-3-10.5-2.1-2.7-3.8-6.3-3.8-8.2 0-1.9-1-4.8-2.3-6.4-2.2-2.8-2.7-2.9-9.2-1.5-7.3 1.5-21.5 9.5-28.2 15.8-4.9 4.6-7.7 9.5-7.7 13.6 0 4.2-2.3 5.9-7.8 5.9-6.1 0-11 2.6-18.7 9.8-8.1 7.6-12.7 16.5-11.7 22.8.6 3.9.3 5-2 6.7-1.5 1.1-4.5 1.9-6.6 1.9-2.6 0-4.8 1.1-6.9 3.5-9.9 11-12.1 18.7-7.3 25.2 3.7 5 2.2 8.1-4.2 8.6-3.1.3-6.2 1.9-10.1 5.3-7 6.2-11.5 18-10.3 27.2 1.6 12.1 1.6 11.9-1.9 13.6-1.8.9-3.7 2.8-4.1 4.2-.6 1.9-1.7 2.4-4.1 2.2-2.6-.3-4-1.7-6.4-6.4-2.7-5.5-3-7.7-3-23.1 0-10.7.5-18.4 1.5-20.7 1.6-3.9.2-7-1.9-4.2-2.7 3.6-9.2 20.1-11.5 29.3-1.7 6.5-2.2 12-1.8 16.3.8 7.3-.7 10.3-5.2 10.3-3.3 0-5.7-2.3-5.7-5.3 0-1.2-1.7-3.7-3.7-5.6-6.7-6-10-15.1-15.5-42-2.6-12.8-2.5-17.7.7-28 4-13.2 6-16.5 11.7-19.9l5.3-3.1 1.3-10.3c3.8-29.2 18.2-52.1 35.4-56.2 2.6-.6 3.6-2 4.9-6.6 3-10.7 19.6-24.3 29.5-24.3 2.1 0 6.7 1.4 10.4 3.3l6.6 3.3 4.6-2.4c2.5-1.3 7.3-4.8 10.6-7.7 3.3-3 10.2-7.4 15.3-9.8 7.8-3.7 10.7-4.4 17.8-4.4 8.5 0 17.7 2.5 21.9 6.1 1.7 1.4 3.3 1.5 7.9.5 6.7-1.4 9.9-.8 15 2.8 2.1 1.5 5.7 3.2 8.1 3.9 6.3 1.9 9.7 7.6 10.7 17.9 1.1 10.9 1.3 11.4 4.9 12.8 6.1 2.3 13.4 7.7 15.8 11.7 1.8 2.9 2.5 6.5 2.6 12.8.3 14.6.9 16 7.4 17.2 9.3 1.7 10.6 4 10.4 17.3-.1 10.7-.5 11.9-5.4 21.7-4.3 8.5-5 10.8-3.9 12.8 2.2 4.1 1.6 8.6-2.4 18.1-6.7 16-13 27-20.6 36.2-6 7.1-9.5 10-17 14-5.2 2.7-13 7.5-17.4 10.7-7.6 5.3-8.1 6-8.9 11.6-1.6 10.9-10.3 20-15.3 15.9-3.5-2.9-3.2-6.3.9-10.1 3.7-3.47 4-4.3 3.8-11.2l-.2-7.5 7.1-4c3.9-2.2 10.7-6.4 15.2-9.3 4.4-2.9 10.3-6.3 12.9-7.5 7.2-3.3 17.5-16.7 25.4-32.7 7.2-14.5 7.5-16.2 4.7-26.8-.7-2.7.2-4.9 4.3-11.1 5.4-8.1 7.64-14.2 7.65-20.9 0-5.1-2.3-6.1-8.9-4.1-9.4 2.8-12 0-9.5-10.2 1-4.1 1.3-10.6.9-17.7l-.7-11.1-5.5-2.9c-6.1-3.2-12.8-3.8-14.9-1.27-1 1.2-.7 3.93 1.25 10.3 2.8 9.14 2.4 15.3-1.5 29.1-1.4 4.9-1.3 5.84 1.1 10.2 1.5 2.6 3.8 9.93 5.1 16.25 1.3 6.34 3.3 12.5 4.32 13.7 1 1.2 1.9 3 1.9 4.1 0 3.5-5.25 8.64-12.24 12-5.73 2.8-7.63 4.6-11.7 11.3-2.6 4.4-4.8 8.2-4.8 8.5 0 1.2 7.6.36 12.48-1.35 6.2-2.2 10-.9 10 3.5 0 2.1-1.4 3.5-5.5 5.5-8.6 4.16-20.3 6.84-25.9 5.9-6.14-1-9.8 1.75-9.8 7.5 0 6.05-7.2 16.95-14 21.3-5.74 3.7-5.9 3.9-5.2 8.9 1.26 9.16-5.1 16.6-20.14 23.75-9.4 4.5-13.5 3.8-17.3-2.84-1.2-2.1 2.63-5.4 6.5-5.4 3.8 0 14.63-5.9 18.3-9.9 2.4-2.7 2.4-2.7-.6-8.3-3.4-6.2-2.8-8.9 2.5-11.16 14.1-6 18.74-11 18.74-20.16 0-5.1.5-5.9 10.18-15.1 5.6-5.3 12.7-13.3 15.7-17.8 3.1-4.5 8.1-11.7 11.1-16 9.6-13.6 7.3-16.2-9.1-10.5-21.83 7.5-20.6 6.8-24.4 14.7-4.3 8.7-3.4 10.2 4.6 8.2 7.5-1.9 11.4-1.8 13.2.3 2.6 3.1-.94 6.3-13.83 12.4-6.8 3.2-13 5.8-13.9 5.8-1.7 0-10.9 12.3-21.6 28.74-13.4 20.8-25.2 34.5-37.2 43.62-8.4 6.4-8.4 6.4-17.9 6.4h-9.6l2.3-4zm-52.2-59.6c1.76-6.63 1.72-6.93-2.96-21.23-2.62-8-5.1-15.88-5.54-17.54-1.06-4-3.42-4.6-4.37-1.1-1.2 4.5-.93 16.2.5 21 .7 2.4 1.84 7.2 2.5 10.5 2.5 12.7 3.74 16 5.95 15.5 1.37-.2 2.74-2.7 3.9-7.1zm47.46-26.73c5.26-3.87 5.5-4.33 5.72-10.9.37-11.32 10.92-27.4 20.03-30.54 4.3-1.4 5.1-2.3 5.7-6 2.2-12.8 20.6-31.9 33.8-35.1 7.7-1.8 7.1-14.3-.8-17.6-5.8-2.4-7.6-6.6-5-11.7 1.1-2.1 2-6.1 2-8.9 0-10.1-10.1-11.4-19-2.4-5.3 5.4-7 5.3-10.2-.1-2.3-3.9-7.8-7.4-11.7-7.4-3.3 0-12.7 6.3-17.4 11.6-3 3.4-4.1 6.2-4.8 11.5-.9 7-3 9.8-6.6 8.5-.9-.3-3.5-.2-5.7.2-12.6 2.4-25.6 28.3-26.3 52.6-.2 6.9-.4 13-.5 13.5-.1.5-2.2 1-4.8 1-8.3 0-13.7 6.3-7.5 8.7 4.2 1.6 6.9 5.2 7.9 10.4 1.3 7.1 3.9 14 5.5 14.5.8.3 1.9-.8 2.5-2.4.6-1.6 4-7.3 7.5-12.7 5.1-7.8 6.1-10.2 5.2-12-.6-1.2-1.5-9.2-1.9-17.7-.7-15.3-.7-15.6 3.5-27.3 4.6-12.6 6.6-14.6 11-10.6 3.1 2.8 3 4.6-.2 13.1-5.5 14.6-6.8 28.3-2.7 29.7.8.3 3.8-2.8 6.7-6.8 2.9-4 7.9-9.9 11-13.2l5.7-6 .4-11.8c.4-14.7 4.4-27.3 8.7-27.9 4.8-.7 6.2 4.5 3.7 13.5-2.1 7.7-2.6 14-1.3 15.4.5.4 3.2-.6 6.1-2.3 2.9-1.7 6.3-3.1 7.7-3.1 2.9 0 8 3.3 8 5.3 0 .8-5.8 7.4-13 14.7-11.3 11.5-14 15.1-20.2 27-3.9 7.6-8.7 16.3-10.6 19.4-5.3 8.6-7.4 18.9-3.9 18.8.5 0 3.4-1.8 6.4-4.1zm87.65-106.06c8.2-6 22.6-12.3 29.5-13.1 5.3-.7 6.9-.3 10.9 2.5 2.6 1.8 5 3.2 5.3 3.2 1.4 0 5.6-10.3 5.6-13.6 0-4.6-3.1-8-6.4-7-1.7.5-3.5-.6-6.6-3.9l-4.2-4.7-5.7 2.2c-3.1 1.2-6.6 3.5-7.6 5.1-2.1 3.2-6.1 3.9-7.7 1.4-.5-.9-1.3-3.8-1.6-6.6-.9-6.8-4.4-8.5-15-7.7-7.9.7-18.5 5.5-19.6 8.9-.2.7 1.3 3.5 3.5 6.2 3.7 4.6 3.9 5.3 3.2 13-.7 8-.7 8.1 3.9 12.8 2.6 2.6 5.3 4.7 6.1 4.7.8 0 3.9-1.8 6.9-4zm170.8 195.2c5.3-2.2 12.6-10.6 15.1-17.6 1.4-3.8 3.5-14.6 4.8-24.1 2-14.7 2.1-18.4.7-25.9-3.3-18.4-14.9-35.5-29-42.5-11.1-5.6-14.2-5.8-26.4-2.1-9.7 2.9-11.2 3.8-17 10.2-5.4 5.9-6.4 7.7-6.4 12 0 6.4 3.3 10.9 10.6 14.6 11.5 5.7 24.6-.2 26.4-12 .9-6.1.2-7.2-5.4-8.7-1.9-.5-4.3.3-7.5 2.5-5.8 4-7.1 4-9.7.1-1.9-2.9-1.9-3.4.1-6.3 2.8-4.3 9.3-8.1 13.6-8.1 4.6 0 12.9 4.2 15.2 7.8 3.1 4.7 3.7 12.4 1.5 20-2.6 9.1-7.3 13.9-15.9 16.4-6.2 1.8-7.4 1.8-13.6 0-11.8-3.5-17.4-7.6-20.7-15.1-3.4-7.7-3.9-17.9-1.1-23.2 3.3-6.2 12.4-15.8 16.9-17.7 2.4-1 8.4-3.1 13.3-4.6l8.8-2.8 10.1 3.3c16.1 5.3 27.2 14.9 35.7 30.8 9.7 18 11.3 28.2 8.2 52.3-2.5 19.5-6.3 31.9-11.7 37.9-2.7 3.1-3.8 3.4-10.9 3.3-5.6-.1-7.1-.4-5.2-1.2zm-1527.6-9.6c-1.1-1.2-1.9-4.2-1.9-7.5 0-3.1-.8-7.6-1.8-10-2.1-5.1-.8-9.2 3-9.2 2.7 0 4.6 4 6.4 13.7 2.1 11-.8 17.7-5.6 13zm-530-.5c-17.7-1.4-50.2-10.6-70-20l-14.7-6.9c-12.7-6-32.9-21.4-42.5-32.5-16.9-19.6-34.4-47.8-44.3-71.3-7.2-17.2-16.5-59.1-16.5-74.4 0-9.1.4-10.5 3.1-13.2l3.1-3.1 7.3 2.5c11.4 3.9 38.3 14.6 54.2 21.5 7.9 3.4 17.8 7.3 21.9 8.7 4.1 1.3 11.4 3.8 16.3 5.6 4.8 1.7 15.5 5.5 23.8 8.4 8.3 2.9 21.2 7.5 28.8 10.3 7.6 2.8 16.9 6 20.7 7.2 3.8 1.2 11.7 4 17.5 6.2 13.3 5.1 51 17.9 70 23.7 7.9 2.4 21.4 7 30 10.1 8.6 3.2 19.6 6.6 24.4 7.6 11.1 2.3 12.5 3.5 11.4 10.8-1.3 8.4-13.4 31.4-21.9 41.5-7.7 9.2-23.5 23.1-35.2 31.1-10.4 7.1-35.5 19-47.5 22.4-12.9 3.7-23 4.6-39.4 3.3zm35.7-13.1c10.2-2.7 26.4-10 39.2-17.6 14.1-8.3 34.3-25.1 40.7-33.7 2.6-3.5 5.7-7.2 6.9-8.2 3-2.5 12.4-22.5 11.5-24.6-1.6-4.3-5.5-1.6-12.3 8.6-3.7 5.7-7.8 12.2-9 14.5-1.1 2.3-6.1 8.2-11 13.2-12.7 12.7-24.4 20.7-36.6 25-2.7 1-9.5 3.5-15 5.5-19.4 7.3-25 8.4-42.5 8.3-22.2-.1-33.4-2.7-52.4-11.9-8.3-4.1-16-7.9-17-8.5-1-.7-6.1-3.6-11.2-6.5-5.2-3-11.6-7.2-14.4-9.3-2.7-2.2-6.8-5-9.1-6.1-8.1-4.2-27.7-23.8-39.1-39.1-7-9.4-18.3-28.8-21-36-3.6-9.8-13.9-57.3-13.9-64.5 0-1.3-1.4-3.3-3.2-4.5-2.7-1.8-3.4-1.9-4.8-.4-5.7 6.2 9.2 68.2 21.5 89.9 8.1 14.2 27 41.4 34.2 49.3 13 14.1 29.2 26.8 41.1 32.2 5.9 2.6 12.2 5.6 14 6.7 10.1 5.6 48.9 17.2 64.1 19.2 10.6 1.4 31.2.5 39.4-1.7zm-2.5-23.1c11.1-3.1 17.6-5.3 28-9.7 17.1-7.3 22.1-10.7 35.3-23.7 9.5-9.4 19.8-26.1 19.1-31-.5-3.5-13.5-9.2-39.6-17.2-21.9-6.8-47.7-15.5-72.6-24.8-9.2-3.5-22.2-8.1-28.7-10.3-34.7-11.9-45.9-15.9-49.3-17.7-4.1-2.2-22.3-8.5-24.5-8.5-.7 0-5.6-2.1-10.9-4.6-5.3-2.5-14.4-6.4-20.2-8.7-5.8-2.3-14.8-5.9-19.8-8-5.1-2.1-9.8-3.5-10.5-3.1-3.6 2.3 7.4 52.5 14.3 65.2 14.2 25.8 37 52.3 55.4 64.4l16.3 10.9c4.1 2.9 10.3 6.6 13.8 8.4 29.6 15.1 38.5 18.6 52.3 20.2 13.9 1.6 31.6.7 42.1-2.2zm-52-33.4c-3.1-7.4-3.4-11.2-1.2-13 1.7-1.4 2.4-1.3 4.6.6 4.1 3.6 6.5 10.5 5 13.9-2 4.4-6.1 3.6-8.3-1.6zm-29.4-1.4c-1.2-1.5-1.2-3.6.1-10.3 2-10.1 3.2-12 6.4-10.2 1.9 1 2.4 2.6 2.4 7.5 0 9.9-5.1 17.4-8.8 12.9zm64.3 1c-2-1.3-6.6-12.3-6.6-15.8 0-4.2 2.7-6 5.8-3.9 3.5 2.4 7.7 15.1 6 17.8-1.6 2.5-3.2 3.1-5.1 1.8zm20.9-16c-4.2-6.7-4.6-8.9-2-12.4 1.8-2.4 1.8-2.4 4.5 0 7.5 6.7 9.9 17.1 4.2 17.9-2.1.3-3.6-1-6.5-5.6zm-124.8-7.1c-2.7-2.7-1.5-6.8 3.8-13.3 5.5-6.8 7.3-7.6 9.8-4.6 2.2 2.6.7 7.3-3.9 12.5-5 5.6-7.7 7.2-9.6 5.3zm143.1-4.8c-4.2-5-5.3-9.6-2.9-12 2.4-2.3 5.5-.9 10.2 4.7 3.5 4.2 4.1 7.3 1.8 9.7-2.5 2.5-5.6 1.7-9-2.4zM361.5 181c-1.67-1.67-1.96-5.92-.54-7.94 1.45-2.08 9.76-6.8 11.96-6.8 1.1 0 2.6 1.1 3.33 2.5 1.9 3.5-.15 6.74-6.7 10.57-6.24 3.67-6.1 3.63-8.05 1.67zm-16.25-38.75c-.82-.83-1.5-2.68-1.5-4.13 0-4.06 2.47-5.62 8.9-5.62 8.25 0 12.8 5.3 8.35 9.75-1.95 1.94-13.8 1.94-15.75 0zm325.38 151.5c-4.82-1.3-10.05-2.4-11.63-2.43-1.9-.05-3.58-1.4-5-4.05-1.17-2.18-3.93-5.83-6.13-8.1-2.55-2.64-4.97-7.22-6.64-12.6-4.38-14.05-3.33-16.9 16.3-44.7 13.76-19.5 26.02-44.36 30.5-61.87 1.84-7.22 4.72-15.58 6.4-18.57 8.95-16.02 36.12-46.76 48.28-54.62 7.7-4.9 18.8-8 28.9-8 16.2.1 35.3 8.7 45.2 20.5 2.9 3.4 7.2 8.2 9.6 10.7 12.1 12.4 22.3 32.6 24.2 48 1.9 15.2-9.3 39.6-23.9 52.1-6.7 5.8-26.3 18.7-40.3 26.4-27.4 15.3-32.8 18.4-43.1 24.6-6.2 3.8-16.3 10.6-22.5 15.2-14.4 10.8-18.4 13.1-28.6 16.9-9.8 3.7-10 3.7-21.4.7zm25.84-12.56c3.66-2.4 8.06-5.3 9.78-6.6 15.68-11.7 21.32-15.5 33.78-23.1 7.9-4.8 19.86-11.6 26.6-15.2 25.65-13.5 53.6-32.4 60.76-41.1 2.1-2.6 5.9-8.9 8.5-14.1 4-8.1 4.7-10.9 5.1-19.5.4-10.2-1.8-19.3-4.7-19.3-1.7 0-4.3 5.3-6.3 12.5-2.2 8-21.1 32.6-32.8 42.5-10.5 8.9-13.8 10.9-33.1 20-10 4.7-20.5 10-23.3 11.9-8.9 5.8-22.4 17.4-37.8 32.5-8.3 8-17.4 15.9-20.4 17.7-2.9 1.7-5.3 3.9-5.3 5 0 3.4 11.3 1.3 19-3.5zM676 273.4c3.22-2.2 14.3-11.93 24.6-21.6 24.76-23.25 32.86-29.43 47.65-36.4 38.42-18.1 40.78-19.85 61.62-45.9 8.6-10.76 10.33-13.82 13.72-24.14 2.1-6.5 3.8-12.9 3.8-14.2 0-1.3-2.7-7.34-6-13.38-8-14.77-16-22.6-28.5-27.8-9-3.77-10.5-4-21.7-3.6-14.9.56-19.9 2.86-34.4 16.06-11 9.9-11.2 10.14-25.9 29.6-10.5 13.84-12.4 17.7-15.6 32.24-2.9 13.34-16.6 41.68-27.6 57.32-20.9 29.65-22.9 34.25-19.2 43.6 4.9 12.44 16.1 15.8 27.2 8.18zm49.07-83.77c-6.4-3.28-10.1-9.2-10.1-16.2 0-8.53 9.63-29.5 16.23-35.4 1.55-1.36 4.36-4.74 6.26-7.5 2.17-3.14 6.6-6.8 12.04-9.9 20.58-11.7 21.06-11.86 31.1-9.33 7.5 1.9 9.67 5.55 10.36 17.56.52 8.9.25 10.24-3.56 18.14-9.85 20.42-19.78 31.4-35.2 38.9-13.6 6.62-19.85 7.48-27.15 3.73zm19.43-9.9c3.35-1.46 8.52-4.4 11.47-6.5 6.77-4.82 18.7-20.26 19.76-25.56.74-3.7.56-4-2.56-4-7.44 0-28.36 11.63-39.7 22.1-3.25 2.96-6.44 5.4-7.1 5.4-2.36 0-2.88 5.1-.85 8.2 2.6 4 10.4 4.13 18.98.4zM772.7 134c9.64-2.2 9.77-2.26 9.77-6.1 0-5.7-4.48-10.92-8.62-10.1-4.77.98-25.44 13.07-27.63 16.17-1.03 1.46-3.96 5.2-6.5 8.26-2.55 3.08-4.37 6.02-4.06 6.53.3.5 6.57-2.1 13.9-5.8 8.06-4.1 17.2-7.6 23.12-8.96zm164.43 158.6c-10.35-3.4-15.04-7.56-22.14-19.6-3.5-5.83-6.3-10.92-6.3-11.3 0-.74-5.8-9.72-14.9-23.35-12.5-18.54-15.3-25.83-15.4-40-.1-14.4 9.6-29.38 23.9-37 4.1-2.2 7.5-4.5 7.5-5.1 0-.57-2.2-.75-4.8-.4-6.1.82-10.2-1.28-10.2-5.22 0-3.26 7.7-13.22 12.1-15.73 4.4-2.5 17.7-2.2 23.2.56 2.7 1.36 5.2 1.88 5.8 1.24.6-.62 1.2-6.46 1.5-13 .4-10.32 1-13.03 4.6-20.78 2.6-5.55 5.3-9.55 7.3-10.6 2.8-1.52 3.3-1.4 5.5 1.24 1.6 2.03 2.3 4.9 2.3 9.42 0 3.65.8 7.57 1.8 8.93 1.7 2.4 1.9 2.3 6.5-2.7 5-5.3 12.3-7.9 22.4-7.9 5.3 0 12.8 3 13.8 5.6 1.5 3.9-4.9 17.2-11 23.1-3.3 3.1-5.6 6.1-5.3 6.7.3.6 3.8 1.1 7.6 1.1 8.7 0 25 6.9 32 13.6 9 8.7 9.3 19.9 1.1 46.9-7 23-12.5 33.3-26.7 49.7-3.3 3.8-8 11.2-10.4 16.4-2.4 5.2-5.3 10.2-6.4 11.2-1.1 1-3.7 4.2-5.8 7.1-7.5 10.9-25.2 15.5-40.2 10.5zm12.66-8.5c1-1.8 1.5-1.87 3.1-.5 2.2 1.87 6.9 1.1 11.5-1.95 2.3-1.54 3-3.06 3-7.07 0-3.98.3-4.78 1.5-3.6 3.7 3.73 8.5-1.25 5.9-6.15-1.9-3.5.3-6 3.1-3.63 2.3 1.94 2 2.2 6-5.6 1.7-3.44 4.6-8.2 6.4-10.56 1.7-2.37 3.2-5.8 3.2-7.6 0-4.07 1.1-5.36 3.2-3.65 1.1.9 2.3.5 4.2-1.6 2.1-2.3 2.5-3.8 1.9-7.5-.8-4.4.8-7.5 2.5-4.9 1.4 2.3 3.1 1.3 5.6-3.6 4.9-9.6 10.3-28.4 11.6-40.4l1.3-12.2-3.8-4.8c-5.6-7-16.9-12.7-25.6-12.8-7.6-.1-14.9 1.8-14.9 3.9 0 .8.7 2.3 1.7 3.4.9 1.1 2.6 6.2 3.8 11.4l2 9.4-3.2 6.5c-1.8 3.6-3.2 7.3-3.2 8.2 0 5.2-4.3 1.4-7.6-6.6-2-5.3-8.3-12.6-10.6-12.6-1 0-1.8 1.1-1.8 2.5s-.6 2.5-1.3 2.5c-1.6 0-1.6-3.4-.1-4.3 1.8-1.2.3-3.9-3-5.4-2.4-1.1-3.4-.9-5.1 1-2.8 3.1-6.9 3-10.9-.1-3.8-3-5.1-3.1-7.2-.6-2.1 2.5-3.4 2.3-4.1-.7-1.1-4-8.1-3.2-18.8 1.9-11.1 5.3-17.3 11.4-20.8 20.2-4.9 12.5-2.6 30.7 4.3 33.8 1.9.9 3.1 2.5 3.1 4.1 0 2.6 6.8 14.4 12.3 21.3 1.6 2 5 8 7.6 13.3 4.4 9.1 8.8 15 8.8 11.7 0-.8.8-1.4 1.7-1.4 2.1 0 3.9 4.1 2 4.8-2 .7-1.6 3.4.7 5.4 2.7 2.3 11.6 5.8 15 6 1.5.1 3.3-.8 4-2zm-10.8-5.33c-2-3.23-2-5.02.1-5.02 1.4 0 4.6 4.84 4.6 6.93 0 1.6-3.4.24-4.7-1.9zm14.7-7c0-2.2 2.7-1.82 3.4.5.3.8-.4 1.48-1.5 1.48s-2-.9-2-1.98zm-12.4-7.8c-1.7-3.16-1.8-5.22-.2-5.22 2 0 4.2 5.1 2.8 6.52-.9.83-1.7.4-2.6-1.3zm20.7-3.56c-1.5-1.5-.9-4.1 1-4.1 1 0 1.8 1.1 1.8 2.5 0 2.5-1.4 3.3-2.9 1.7zm-35-2.7c-2.4-2.6-2.7-5.2-.7-5.2 1.7 0 4.7 3.8 4.8 6 0 2.3-1.8 1.9-4.2-.7zm23-7.5c-1.8-3.2-1.7-3.8.4-3.8 2 0 3.6 4.7 2 5.7-.6.4-1.7-.4-2.4-1.7zm33.1-2.5c-.4-.6-.2-1.5.5-1.9.7-.4 1.2.1 1.2 1.2 0 2.2-.8 2.6-1.8.8zm-68.2-3.3c0-2.2 2.7-1.8 3.4.5.3.9-.4 1.5-1.5 1.5s-2-.9-2-2zm20 .7c0-.7.5-1.2 1.2-1.2s1.2.6 1.2 1.3c0 .7-.6 1.3-1.3 1.3-.7 0-1.3-.5-1.3-1.2zm40-1.3c0-.7.5-1 1.2-.5s1.2 1 1.2 1.4c0 .3-.6.6-1.3.6-.7 0-1.3-.6-1.3-1.3zm-15-2.4c0-1.4.5-2.5 1.2-2.5s1.2 1.1 1.2 2.5-.6 2.5-1.3 2.5c-.7 0-1.3-1.1-1.3-2.5zm-32.9-2.2c-1.6-1.5-.8-5.4 1-5.4 1 0 1.8 1.1 1.8 2.4 0 2.6-1.7 4.3-3 3zm-24-5.4c-1.1-1.6.4-4 1.9-3 1.5.9 1.5 4.3-.1 4.3-.6 0-1.5-.6-1.9-1.2zm42.5-1.2c-.9-1.5.2-3.7 1.9-3.7 1.5 0 1.5 3.4 0 4.3-.7.4-1.6.2-2-.5zm23.9.4c-1.5-1.5-.8-4.1 1-4.1 1 0 1.8.8 1.8 1.8 0 2.1-1.8 3.5-3 2.4zm14.9-.3c-.4-.6-.2-1.5.4-1.9.6-.4 1.5-.2 1.9.5.4.7.2 1.5-.5 1.9-.7.4-1.6.2-2-.5zm-67.4-.9c-1.5-1.5-.9-2.9 1-2.9 1 0 1.8.8 1.8 1.8 0 2-1.5 2.5-2.9 1.1zm17.5-5c-.5-.5-.9-2-.9-3.4 0-2.4.1-2.4 2.1-.4 1.4 1.5 1.7 2.6.8 3.4-.7.7-1.7.9-2.2.5zm-28.4-5.5c-1.8-3.2-.5-5.6 2-3.6 2 1.6 2.4 6.1.5 6.1-.7 0-1.8-1.1-2.6-2.5zm17.2-2c-.4-.6-1-2.6-1.4-4.5-.6-2.5-.4-3.4.9-3.4 2.1 0 3.9 6.2 2.2 7.8-.7.7-1.5.7-1.8.1zm35.3-1.7c0-2.4 1.3-3.3 2.8-1.7 1 1-.3 4.3-1.7 4.3-.7 0-1.2-1.1-1.2-2.5zm35 1.3c0-.7.5-1.2 1.2-1.2.6 0 1.5.6 1.9 1.3.4.7-.1 1.3-1.2 1.3-1.1 0-2-.5-2-1.2zm-12.9-3.3c-1.5-1.4-.9-2.9 1-2.9 1 0 1.9.9 1.9 1.9 0 2-1.5 2.5-2.9 1.1zm-85.1-5c-1.5-1.5-.8-4.1 1-4.1 1 0 1.9.8 1.9 1.8 0 2.1-1.8 3.5-3 2.4zm49.2-2.9c0-1.6.6-2.5 1.5-2.2.8.3 1.5 1.3 1.5 2.2 0 .9-.7 1.9-1.6 2.2-.9.3-1.5-.6-1.5-2.2zm21.8 0c-.5-.8-.4-2 .3-2.7.8-.8 1.5-.7 2.1.2.5.8.3 2.1-.4 2.8-.9.9-1.6.8-2.2-.2zm-53.1-5.1c0-3 2.9-2.6 3.5.5.2 1.3-.4 2.1-1.6 2.1-1.2 0-2-1-2-2.6zm18.4 1.8c-1.6-1.5-.8-5.4 1-5.4 1.1 0 1.8 1.2 1.8 3.1 0 3.1-1.3 4-3 2.3zm71.2 0c-1.5-1.4-.9-2.9 1-2.9 1 0 1.8.9 1.8 1.9 0 2-1.5 2.5-2.9 1.1zm-12.1-4.1c0-.6.5-1.5 1.2-1.9.7-.4 1.2.1 1.2 1.2 0 1.1-.6 2-1.3 2-.7 0-1.3-.5-1.3-1.2zm-88.1-3c-1-2.6-.2-6.1 1.7-6.7 1-.3 1.5.8 1.5 3.3 0 4.2-2.1 6.4-3.3 3.5zm107 .5c0-.7.5-1.2 1.2-1.2s1.2.6 1.2 1.3c0 .7-.6 1.3-1.3 1.3-.7 0-1.3-.5-1.3-1.2zm-120-1.8c0-1 .8-1.8 1.8-1.8s1.8.8 1.8 1.9c0 1-.9 1.9-1.9 1.9s-1.9-.8-1.9-1.9zm68.7-.7c0-.7.5-.9 1.2-.5s1.2 1 1.2 1.3c0 .3-.6.5-1.3.5-.7 0-1.3-.6-1.3-1.4zm-40-2.4c0-1.4.8-2.5 1.9-2.5 1 0 1.8 1.1 1.8 2.5s-.9 2.5-1.9 2.5c-1.1 0-1.9-1.1-1.9-2.5zm8.2-7.8c1.8-5.9 5.1-6.4 3.6-.4-.5 1.8-1.7 3.3-2.7 3.3-1.3 0-1.6-.8-1-2.8zm16.8 1.6c0-.7.8-1.2 1.9-1.2s1.8.6 1.8 1.3c0 .7-.9 1.3-1.9 1.3-1.1 0-1.9-.5-1.9-1.2zm-46.1-2.6c.2-1.5 1.2-3.1 2.1-3.4 1.1-.3 1.5.4 1.2 2.3-.3 1.6-1.2 3.1-2.1 3.4-1.2.4-1.6-.3-1.3-2.3zm15 .7c.2-1.2 1.2-2.5 2.1-2.8 1.1-.4 1.5.2 1.3 1.7-.3 1.2-1.2 2.5-2.1 2.8-1.1.4-1.6-.2-1.3-1.6zm99.2.8c-.9-1.3 1.1-2.8 2.3-1.7 1.2 1.2 1 2.9-.4 2.9-.7 0-1.5-.5-1.9-1.1zm-44.4-2c0-1 .6-1.6 1.3-1.1.7.4.9 1.3.5 2-1.1 1.7-1.8 1.4-1.8-.8zm31.2-2.5c0-1 .5-1.6 1.2-1.2.7.5 1.2 1.3 1.2 2s-.6 1.2-1.3 1.2c-.7 0-1.3-.8-1.3-1.9zm-76-6.8c.2-1.6 1.1-3.2 2-3.5 2.2-.7 1.9 2.9-.5 4.8-1.8 1.5-2 1.3-1.6-1.3zm14.8 0c0-1.4.8-2.5 1.9-2.5 1 0 1.8 1.1 1.8 2.5s-.9 2.5-1.9 2.5c-1.1 0-1.9-1.1-1.9-2.5zm80.3 1.6c-2.1-.7-2-4.1.2-4.1 1.9 0 3.7 3.4 2.3 4.2-.5.3-1.6.3-2.5 0zm-109.1-1c0-1.8 2.6-5.6 3.9-5.6 2.2 0 .6 5.6-1.7 6-1.2.3-2.2.1-2.2-.3zm97-10c-.9-2.4 1.7-3.9 3-1.8 1.1 1.8.5 3.7-1.3 3.7-.6 0-1.4-.8-1.8-1.8zm-15.6-5.9c-1.7-1.7-2.1-4.7-.5-4.7s4 2.8 4 4.6c0 2.1-1.6 2.1-3.5.2zm11.7-5.9c-.4-.6-.2-1.5.4-1.9.6-.4 1.5-.2 1.9.5.4.7.2 1.5-.5 2-.7.4-1.6.2-2-.4zm-22.3 14.8c-1.1-11.3-7.4-16.8-14-12-2 1.5-2.1 2.1-.7 4.7 1.9 3.7 12.6 14.9 14.2 14.9.6 0 .8-3.4.4-7.6zM932 150.7c0-.6-1.2-2.52-2.5-4.3-2.9-3.6-10.7-5.4-16.5-3.7-5.8 1.6-4.1 3.34 6.1 6.1 11.4 3.1 12.9 3.3 12.9 1.8zm16-10.5c.7-.9 2.2-4.4 3.4-7.8 1.7-5.2 1.8-7.2.7-12.5-1.9-8.4-3.3-10.6-5.4-8.4-1.1 1-1.8 6.4-2.1 15.9-.5 13.9.2 16.5 3.3 12.7zm33-12.9c8.9-7.54 12.7-13.6 9.6-15.7-2.6-1.7-13.8-.1-17.3 2.48-2.7 1.97-6.6 7.9-11.5 17.3-.8 1.5-1.1 3.6-.7 4.67 1.2 3.2 10.5-.9 19.9-8.8zm1065 158.2c-4.62-.9-9.97-2.44-11.9-3.4-1.9-.97-9.1-3.28-15.97-5.13-16.45-4.45-20.14-6.18-22.4-10.55-1.7-3.26-2.64-3.7-9.12-4.2-9.1-.7-28.4-10.06-39.5-19.25-4.2-3.5-9.4-6.92-11.4-7.6-4.6-1.53-9.3-8.28-9.3-13.4 0-2.13.6-7.25 1.3-11.38 1.1-6.6 1-7.7-.9-9.1-5-3.7-20.8-16.1-22.3-17.6-.9-.9-1.7-3.1-1.7-4.8 0-5.1-8.2-17.2-13.7-20.3-4.3-2.4-5-3.6-6.4-9.7l-1.6-7 5.1-4.8c6.6-6.1 11.7-7.5 28.7-7.5 17.8 0 31.2-2.6 49.2-9.4 35.4-13.4 66.4-31.5 82.4-48.1 5.7-5.9 15.4-21.3 21.8-34.5 5.3-10.9 9.6-16.8 13.8-19 2.2-1.2 8.7-2.2 16-2.6l12.3-.7 6.6 6.9c4.9 5.1 10 8.6 19.5 13.3 11.6 5.8 12.8 6.7 12.8 9.8 0 2.1 3.2 8.2 8.2 15.9 4.5 6.9 9.9 16.1 12 20.6 2.1 4.4 5.4 10.3 7.3 13.1 7.7 11.1 10.6 25.2 9.7 47.4-1.6 42.9-15.4 79.2-38.9 102.7-30.7 30.6-69.6 46-100.9 39.8zm32.13-11.63c12.42-3.3 30.4-11.58 39.2-18.05 27.96-20.6 43.42-41.36 51.34-68.98 6.53-22.78 9.07-40.28 8.17-56.25-.98-17.1-1.77-19.8-9.97-33.8-3.64-6.2-7.38-12.7-8.3-14.5-5.2-10.1-8.1-14.8-11.92-19.3l-5.56-6.6c-1.5-1.9-5.4-1.1-9.8 2-5.4 3.8-5.8 5.5-3.8 14.7 1.1 5.4 1.7 14.9 1.6 26-.2 17.3-.2 17.6-6 35-3.3 9.6-6.7 18.7-7.7 20.3-1 1.5-4.2 7.1-7 12.5-16.7 31.3-51.4 64.2-78.4 74.2-11.8 4.4-12.2 4.8-10.4 10.8.8 2.6 1.4 6.8 1.4 9.2 0 2.4.7 4.9 1.5 5.6.8.6 6.6 2.9 12.8 5.1 13.7 4.7 28.4 5.3 42.5 1.6zm-39.18-13.75c-.92-.58-1.48-2.4-1.25-4.04.36-2.53 2.13-3.57 11.68-6.88 6.18-2.15 14.62-5.9 18.75-8.32 7.42-4.37 9.4-6.03 26.1-22.04 8.1-7.76 20.77-23.12 20.77-25.17 0-.53 2.25-4.65 5-9.17 5.9-9.74 13.82-27.25 18.97-42.03 3.24-9.3 3.7-12.3 3.62-23.92-.1-15.68 1.3-18.5 6.7-13.12 3 3 3.2 3.87 3.1 16.67 0 14.8-2.6 25.32-9.7 39.74-2.1 4.13-4.4 9.5-5.2 11.93-2.3 7.1-18.2 34.24-25 42.88-3.5 4.37-9.6 10.67-13.6 14s-9.5 8.34-12.3 11.13c-10.8 10.82-41.3 22.5-47.9 18.35zm-28.95-.78c0-1.03-.84-1.87-1.87-1.87-1.04 0-1.88.84-1.88 1.87 0 1.03.84 1.88 1.88 1.88 1.03 0 1.87-.85 1.87-1.88zm-15.56-11.56c1.6-7.5 2.7-8.77 8.3-9.65 10.38-1.62 26.7-7.18 34.14-11.63 22.06-13.22 49.04-41.1 61.94-64.02 2.52-4.47 6.03-10.66 7.8-13.75 1.78-3.1 5.28-11.8 7.77-19.34 7.4-22.5 8.2-45.5 2.3-67.8-.6-2.1-10.4-7-12.5-6.2-2.4.9-5.1 6.7-6.1 13.3-.5 3.1-2.5 11-4.6 17.6-3.1 9.8-5.7 15-14.9 28.9-12.4 18.7-22.2 30.2-36.4 42.3-20.6 17.6-52.3 38.1-65.6 42.3-2.8.9-7.3 2.5-10 3.7-2.8 1.2-6.4 2.7-8.2 3.4-2.9 1.2-3.2 1.9-3.2 9.9 0 4.7-.9 10.5-1.9 12.8-1.8 4.1-1.8 4.2 2.1 7.5 2.2 1.8 8.6 5.7 14.4 8.6 8.3 4.2 11.7 5.3 16.9 5.3 6.1 0 6.6-.2 7.2-3.4zm-30.35-23.07c-3.4-1.6-4.9-5.4-3-7.7.7-.9 4.9-2 9.1-2.5 17.1-1.9 49.3-15.7 67-28.6 13.6-9.9 27.3-22.3 31.9-28.8 2-2.8 6.2-7.8 9.3-11 3.1-3.2 7.4-9.4 9.5-13.6 4.8-9.5 7-11.2 10.5-8 1.4 1.3 2.5 3.1 2.5 4 0 3.8-9.5 20.4-15 26.2-3.3 3.5-7.3 8.2-9 10.7-6 8.8-32.6 31.4-45.2 38.4-15.4 8.5-37.7 17.2-53.8 21-9 2.1-10.5 2.2-14.3.4zm-20.6-2.9c2-4.4 1.8-6-1.2-8.8-2.6-2.3-2.7-2.3-4.4.1-3.3 4.5-1.6 12 2.6 12 .8 0 2.1-1.4 2.9-3.2zm10.8-26c13.8-3.7 30.3-11.3 45.6-21.2 21.9-14.1 29.6-20.2 47.8-38.1 11.9-11.8 31.6-39.4 34.9-49 4.1-12.2 5.8-18.4 7.2-26.9 1.4-8.7 1.4-8.9-2.2-15-5.1-8.6-7-8.5-11.4.6-2 4.1-4.8 9.1-6.2 11-1.4 2-4 6.6-5.9 10.3-8.2 16.2-28.1 32-60.1 47.8-4.1 2.1-10.3 5.2-13.6 7-9.1 4.8-30.3 12.8-39.5 14.9-4.5 1-14.1 2.4-21.3 3.2-17.6 1.8-19 2.4-18.5 8.2.3 4.3.7 4.8 5.4 5.8 7.2 1.6 27.7 0 39-3 5.3-1.4 11.7-3 14.1-3.5 6.2-1.3 26.9-10.2 34.7-14.8 3.6-2.1 6.8-3.9 7.1-3.9.3 0 6.9-3.9 14.7-8.8 12-7.4 16-10.6 24.8-20.6 5.7-6.5 11.7-13.4 13.1-15.2 2.4-3.1 3-3.3 5.9-1.9 6.5 2.9 3.9 9-11.1 26.4-9.4 10.9-11.9 13-26.4 21.7-26.1 15.6-51 27.3-62.3 29.2-2.7.5-8.4 1.9-12.5 3.1-11.4 3.4-33.6 4.5-40.5 2-4.8-1.8-5.8-1.8-7.4-.2-1.5 1.6-1.3 2.7 1.5 8.7 4 8.3 14.6 17.3 24 20.4 3.4 1.2 6.8 2.6 7.4 3.2 1.6 1.5 4 1.4 11.3-.6zm-55.7-47.7c0-2.4-2.5-3.6-4.1-2-1 1-.9 1.9.2 3.3 1.7 2.2 3.8 1.5 3.8-1.1zM2127 49.8c3.65-1.5 6.6-3.4 6.6-4.4 0-.9-.5-1.6-1.1-1.6-2.06 0-20.62-12.72-23.1-15.9-2.3-2.9-3-3.1-11.1-2.5-11.9.87-13.3 2.48-8.5 10 2 3.2 5.15 6.8 6.96 7.96 2.57 1.7 20.2 8.67 23.1 9.16.33 0 3.56-1.16 7.2-2.66zM1032.5 269.6c-12.82-12.9-14.14-14.7-13.03-17.6 1.7-4.43 6.07-1.86 18.22 10.7 6.7 6.97 12.2 13.33 12.2 14.12 0 1.85-2.6 4.45-4.4 4.45-.8 0-6.7-5.26-13.1-11.68zm644.03 1.6c-8.27-3.28-19.3-13.26-22.94-20.8-5.3-10.9-4.6-42 1.3-57.35 2.6-7 7.6-15.5 17.7-30.65 11.8-17.76 16.7-29.24 18.1-43.2.8-7.88.7-8.18-3.2-12.25-2.3-2.35-3.9-5.16-3.6-6.4.6-3.54 6.4-4.4 10.9-1.66 2.1 1.3 4.2 2.3 4.5 2.3.3 0 .3-4-.2-8.8-1-10.1.5-11.9 6.8-8l11.3 7.1c14.5 9.1 22.4 9.5 45 2.6 5.1-1.6 14.1-3.9 19.9-5 9.1-1.8 11.9-1.9 20-.5 20.5 3.4 32.8 11 37.2 23 5.4 14.7 5.4 32.2 0 45-16 38-23.5 50.7-39.7 67-15.2 15.4-32.8 26-59.4 35.9-5.5 2-13.9 5.2-18.7 7-17.9 6.8-34.9 8.5-45.4 4.3zm26.56-8.93c7.2-1.55 10.9-3.22 10.1-4.6-.4-.53-4.3-2.83-8.8-5.1-17.3-8.78-32.7-29.07-35.9-47.24-1.5-8.45-3.5-9.92-6-4.4-2.6 5.62-4.3 32.75-2.7 40.83 1.7 8.12 8.3 15.96 17.3 20.4 5.8 2.86 12.8 2.9 25.8.13zm26.8-15.3c1.2-1.53-.3-2.74-9.7-7.44-9.2-4.6-12.4-7-17.7-13.37-3.6-4.28-7.6-9.83-8.9-12.34-3.9-7.66-6.6-20.07-6.3-29.4.4-13.8.4-15.65-.4-16.4-1.5-1.46-3.3.97-6.1 7.98-2.4 5.92-2.9 9.55-2.9 20.9 0 12.63.3 14.33 3.5 20.64 4.1 7.96 18.5 22.57 26.1 26.46 4.3 2.2 10.4 3.68 19.1 4.64.7.07 2.1-.68 2.9-1.67zm19.4-11.87c.4-.66-2.5-4.74-6.4-9.08-3.9-4.32-8.4-9.84-9.9-12.24-5.1-7.8-13-33.68-15.1-48.94-4.8-36-7.1-46.04-10.5-46.04-1.7 0-2.3 3.12-3.2 15.62-.4 6.2-2 17.44-3.4 25-1.6 8.27-2.6 19.25-2.7 27.54-.1 12.32.2 14.56 3.2 20.95 1.9 4.3 5.9 9.7 9.7 13.4 9.6 9.2 18.7 13 35.7 14.9.8.1 1.8-.3 2.2-1zm26.6-13.1c6.1-7.73 10.8-38 8.9-56.95-2-19.77-5-27.34-15.3-38.48-6.3-6.82-7.4-7.38-20-10.5-5.7-1.4-12.1-3.6-14.3-4.9-4.9-2.82-19.3-8.66-21.4-8.66-2.1 0-1.8 1.8 1.1 6.7 5.9 10.1 8.3 19.9 11.8 48.3 2.2 18.3 3 21.6 8.9 37.8 3.8 10.5 5.5 13.4 12.2 20.6 10.8 11.7 11.3 11.1 10.3-13.5-.7-17.7-1.3-21.2-5.3-34.5-6.4-21.1-8.5-25.3-16.9-33.5-10.9-10.8-9.8-18.1 1.7-11.4 10 5.9 17.5 18.6 24 40.7 4.7 16 6.4 26.8 7.7 48.6.8 13.8 1.9 15.5 6.3 9.8zm26.3-22.34c9.2-18.9 10.7-25.48 10.8-45.9 0-17.34-.1-18.4-3.3-24.5-6.5-12.38-18.6-20.26-34.1-22.28-2.8-.35-6.1-.8-7.5-1-4.7-.66-3.4 3.53 2.4 8.34 6.4 5.24 13.8 14.75 18.1 23.2 3.7 7.24 7.8 33.84 7 45.63-.3 4.82-1.3 12.55-2.1 17.2-2.8 15.97.5 15.7 8.5-.67zm26.9-42.46c6.1-10.6 7.5-26.94 3.4-39.1-4.1-11.74-9-15.38-24.6-18.14-14.6-2.57-16.6-.38-6.2 6.8 12.7 8.72 20.2 23.34 21.4 41.66.7 11 1.2 14.08 2.2 14.08.3 0 1.9-2.4 3.6-5.3zm-237.5 111.54c-3.8-1.52-5.1-6.24-2.3-8.27 2.4-1.8 13-1.07 18.1 1.24 3.5 1.7 4.8 5.6 2.3 7.2-2.2 1.4-14.6 1.3-18.2-.1zm-501.5-3.24c-20.8-4.54-34.2-14.87-38.8-29.8-2.8-9.05-2.5-14.1 1.4-24.2 3.1-8.1 14.6-18.25 27.8-24.62 9.3-4.5 13.9-5.65 37.5-9.34 19.9-3.13 36-6.1 44.4-8.2 3.7-.94 12.2-2.65 18.7-3.8 6.5-1.12 18.7-4.22 27-6.86 14.2-4.5 39.2-14.9 42.6-17.73 2.3-1.92 1.9-4.72-.8-4.72-1.3 0-3.7-1.1-5.3-2.42-4.6-3.7-2-6.5 7.7-8.3 12.7-2.3 28.2-8.9 41.4-17.5 14-9.1 21.4-12.3 34.2-14.8 10.5-2 12.6-2.9 21-9.5 3.3-2.6 7-4.8 8.1-4.8 3.8 0 10.3 5.1 12.1 9.5 2.1 5.2 1 10.5-4 18.3-2.6 4-3 6.3-3.1 15 0 13.8-.9 15.6-27.3 55.4-3.8 5.7-6.9 12.4-8.7 18.8-4 13.9-4.8 15.6-7.6 15.6-3.2 0-5.1-6.5-5.1-17.2 0-4.3-.6-7.8-1.2-7.8-.7 0-3.6 1.6-6.6 3.5-3 2-7.2 4.7-9.3 6-2.2 1.3-7.3 4.6-11.3 7.3l-13.7 9.1c-3.5 2.3-6.8 4.2-7.3 4.2s-2.7 1.3-4.9 2.9c-12.3 9-61.5 30.6-84.6 37.2-38 10.8-39.9 11.2-59.7 11-9.6 0-20.8-.9-25.2-1.8zm57.3-11.73c37.8-9.5 86.5-29.37 109.1-44.52 4-2.7 8.8-5.74 10.6-6.8 8.3-4.74 31.5-20.93 37.8-26.4 6.9-6.05 11-11.6 9.5-13.08-.4-.42-6.7 1.26-13.8 3.73-7.2 2.5-17.7 5.6-23.3 6.96-11.1 2.65-15.1 2.13-17.5-2.3-1.6-3-2-2.7 13.7-12.75 12.6-8.1 18.7-13.1 18.7-15.5 0-1.4-10.4-4.3-15.7-4.3-1.7 0-7.7 2.8-13.4 6.1-5.7 3.4-14.6 7.9-19.8 10.1-5.1 2.2-11.3 4.9-13.7 6-4.7 2.1-5.1 2.3-21.3 7.3-9.5 3-16.3 4.6-35 8.3-3.1.7-8.2 1.7-11.2 2.4-7.2 1.6-22.9 4.5-41.9 7.6-29.9 4.9-37.4 7.8-51.7 19.9-6.9 5.8-10.2 12.3-10.2 20 0 14.1 13.3 26.7 31.6 30 11.3 2.1 45 .6 57.1-2.4zm189.2-96.17c18.2-27.8 17.5-26.25 16.5-37.26-.7-8.22-.5-9.88 2.3-15.32 1.7-3.35 3.6-6.45 4.3-6.88.7-.44 1.2-2.43 1.2-4.44 0-5.3-5.2-6.43-9.8-2.18-5.9 5.43-11.9 8.2-20.6 9.53-10.1 1.54-18.3 5.14-30.7 13.44-5.1 3.3-11.4 7.4-14.1 9-2.7 1.6-4.9 3.4-4.9 4.1 0 2.3 6.9 3.8 14 2.9 9.4-1.1 12.8.6 11.7 6-.5 2.1-2.2 6.6-3.9 9.8-1.7 3.2-3.1 6.5-3.1 7.2 0 3.3 5.8.4 17.6-8.8 7.1-5.5 13.3-10 13.8-10 1 0 4.9 3.5 4.9 4.5 0 .3-1.8 4-3.9 8.3-4.9 9.7-6.2 14.2-5.3 18 .9 3.9 2.7 2.4 9.7-8.3zm831.7 103.34c-3.4-3.37-2.3-4.98 4.8-6.8 12.4-3.22 20.1-1.5 19 4.22-.4 1.8-2.5 2.5-11 3.58-9.7 1.24-10.7 1.16-12.9-1zm467.8-2.18c-25.5-2.25-46.8-10.35-61-23.18-9.2-8.34-13.4-16.1-21.5-40.25-8.5-25.3-11.7-32.12-23-48.76-9.7-14.3-10.2-15.6-11.6-30.95-.5-4.8-1.6-12.97-2.6-18.12-3.1-15.78-.7-21.3 10.8-25.72 3.1-1.2 6.7-3.1 8.1-4.24 1.4-1.14 4-3.04 5.9-4.22 1.9-1.17 6.3-5.74 9.7-10.15 7-8.9 11.8-11.4 18.2-9.56 2.1.7 9.4 4 16.2 7.5 11 5.7 13.6 6.5 24.2 7.6 20.3 2.2 21.6 2.3 35 4.3 19.8 2.9 27.3 4.3 36.3 7 10.3 3 25.9 10.2 34.3 15.8 3.6 2.4 6.9 4.4 7.3 4.4 1.6 0 .7-4.5-2.4-11-3.5-7.5-3.9-14.9-1.2-20.1 3.2-6.2 20.7-18.3 30.9-21.4 8.7-2.5 9.3-2.6 15.5-.6 8.4 2.7 12.1 5.7 15.5 12.8 4.8 9.8 1.8 23.4-6.5 29.6-3.5 2.6-13.9 4.2-18.8 2.9-3.1-.8-14.8-11.2-14.8-13.1 0-1.5 3.5-5.1 5-5.1.6 0 3 1.7 5.4 3.8 3.4 3 5.4 3.8 9.9 3.8 4.9 0 6.2-.6 9.5-4.4 4-4.6 5-9.9 2.6-14.3-1.4-2.7-9.9-6.3-14.7-6.3-7.9.1-30.4 14.4-32.9 20.9-1.8 4.8 3.5 15.4 10.2 20.3 7.1 5.2 13.4 6.7 25.5 6.1 13-.6 23.3-5.1 31.3-13.7l5.7-6.1-.4 8.5-.3 8.5-6.9 4.6c-8.1 5.4-21.8 9.8-30.7 9.8-3.5 0-9.6-.8-13.7-1.9-4.1-1-7.8-1.4-8.4-.8-.6.6 1.1 4.5 3.8 8.7 7.1 10.9 7.3 11.5 9.5 21.7 1.7 8 1.8 11.8.5 28.6-1.5 19-1.7 19.6-7.5 33.1-3.3 7.5-7.6 16-9.5 18.8-5 7.4-20.2 21.8-25.9 24.7-2.8 1.4-7.6 4.4-10.7 6.6-7.1 5.2-24.8 12.5-34.3 14.3-7.8 1.5-13 1.5-28.2.2zm26.9-11.2c9.5-2.07 23.8-8.38 30.6-13.57 3.8-2.9 7.5-5.3 8.2-5.3.7 0 4.1-2.5 7.5-5.6 3.3-3.1 6.5-5.6 7-5.6 1.4-.1 7.7-10 6.8-10.9-.4-.4-4.2 2-8.4 5.5-14.6 11.9-40.9 17.5-71 15-16.4-1.4-26.3-4.6-39.6-12.9-12.6-7.9-19.1-13.7-28.7-25.6-9.1-11.3-11.8-15.8-24.5-41-10.6-21.2-18.9-33.6-21.4-32.1-.6.4-1.2 3.4-1.2 6.7 0 5.4.8 7.1 8.7 17.9 11.4 15.7 17.1 27.3 25 51.5 7.3 22.4 11.9 30.4 21.7 38.2 9.6 7.6 15.3 10.5 26.9 13.5 17.6 4.6 40.7 6.3 52.1 3.9zm25.8-34.48c9.6-3.08 12.2-4.6 23.1-13.7 19.8-16.6 23.1-20.23 27.5-30.73 3.2-7.82 4-11.4 4.3-20.62.4-14.54-1.2-20.88-7.6-30.33-11.5-16.9-37.2-32.1-64.7-38.22-14.8-3.3-49.4-8.28-57.3-8.25-7.2.03-21.2-4.52-33-10.74-5.8-3.1-11.4-5.5-12.6-5.5-2.9 0-5 1.9-10.6 9.2-5.3 6.9-9.5 9.8-20.3 14-9.9 3.9-13.2 7.1-13.2 12.9 0 3.7 1 5.5 6.3 10.7 10.7 10.4 17 19.9 27.2 41 5.4 11.1 12.7 24.4 16.1 29.5 9.5 14 23.1 27.2 34.8 33.8 17.7 10 22.6 11.1 48.7 10.5 17.7-.4 21.3-.8 30.9-3.9zm-24-41.34c-6.2-1.9-9.8-3.95-25.2-14.5-5.8-3.92-11.7-8.92-13.2-11.1-3.1-4.44-15.2-17.96-28.6-31.76-4.9-5-11.9-10.82-15.6-12.93-3.8-2.1-9.3-6.35-12.3-9.42-4.4-4.5-5.3-6.17-4.7-8.67 1.2-4.8 4-4.9 10-.3 7.3 5.6 14.5 8.63 31.2 13.2 32.5 8.92 46.2 14.62 65.2 27.18 11.6 7.65 21 16.7 23.1 22.27 2.2 5.9 1.5 17.4-1.3 20.9-4.4 5.6-19 8.2-28.8 5.2zm22.1-10.68c2.3-1.93 2-8.6-.6-12.38-2.1-3.07-10.2-11.18-11.2-11.18-.3 0-1 1.42-1.7 3.16-1.6 4.1-4.7 5.2-7.3 2.6-2-1.96-2-2.35.1-5.96 2.6-4.63 1.8-5.98-5.7-9.2-3-1.28-6.6-3.4-8.1-4.75-4.7-4.17-32.5-14.6-38.8-14.6-3.3 0-3.7 3.1-.9 6.78 1.6 2.14 2.1 2.22 5 .7 2.8-1.53 3.4-1.43 5.8.98 2.3 2.3 2.5 3.2 1.2 5.8-1.2 2.6-1 3.6.8 5.9 2.9 3.7 6.4 2.4 6.4-2.3 0-6.2 4.9-8.8 7.5-3.9 1 1.9 1 3.7.1 6-.7 1.9-1.6 6-2 9.2-.7 5.1-.4 6.1 1.7 7.3 2.2 1.2 2.9.7 5.7-3.7 2.1-3.4 3-6 2.5-8-1.3-5 5.6-9.7 7.4-5 1.3 3.4.8 6.4-1.3 8.1-1.3 1.1-1.8 2.8-1.3 5.2.4 2 0 4.9-.7 6.7-1.2 2.6-1 3.6.8 5.6 3.1 3.5 5.2 3.2 7.4-1.1 2.4-4.6 5.7-5.9 7.8-3.1 2.3 3.1 2 5.2-.9 7-3.5 2.2-3.1 4.3.9 5.9 4 1.5 16.2.7 18.6-1.3zm-10.2-4c-2.8-2-1.9-7.58 1.3-8.82 4.2-1.63 8 5.33 4.6 8.66-2.3 2.28-3.1 2.3-6 .17zM6.2 250.32c-4.62-2.3-6.36-6.18-3.55-7.93 1.5-1 15.52-.5 21.9.8 3.75.7 5.1 5.5 2.2 7.6-3.3 2.4-15.36 2.1-20.58-.6zm1027.55-8.53c-5.75-2.5-8.8-5.4-8.8-8.3 0-3.8 3.44-4.1 10.2-1 7 3.3 9.53 6.5 7.2 9.3-1.84 2.2-3.16 2.2-8.64-.2zM2759.2 238c-6.6-2.36-10.5-6.06-10.5-9.9 0-4.2 3.2-4.06 12.3.54 8.15 4.1 10.8 6.7 9.75 9.46-.9 2.33-4.8 2.3-11.55-.1zM623.7 224.4c-2.6-3.2.65-5.4 9.3-6.3 8.75-.97 13.2.5 13.2 4.3 0 3.1-2.36 3.83-12.44 3.83-6.04 0-8.96-.55-10.06-1.88zm985.46-7.9c-8.3-.28-10.57-.8-12.44-2.87-4-4.4-1.07-6.7 9-7.08 8.93-.33 13.54 1.1 15.96 5 2.44 3.9-1.27 5.36-12.52 4.96zM0 200.8V195h4.44c6.16 0 10.44-2.53 17.66-10.43 10.96-12 17-34.63 15.36-57.7-.53-7.56-1.38-15.43-1.9-17.5-3.06-12.42-16.6-28.06-28.9-33.4C.96 73.54.03 72.64 0 69.7c0-1.9.64-3.45 1.45-3.45.8 0 5.55 2 10.53 4.48C27.85 78.56 40.48 95 43.6 111.88c2.64 14.18 2.95 32.12.76 43.7-3.9 20.7-10.4 34.8-19.63 42.6-5.26 4.42-10.2 6.46-18.27 7.53l-6.46.9v-5.8zm2793.18-.2c-2.73-.95-8.07-2.1-11.88-2.56-3.8-.46-7.9-1.35-9.1-1.97-2.38-1.24-3.07-7.87-.96-9.17.68-.42 5.84-.06 11.47.8 12.4 1.9 16.5 4.68 15.9 10.67l-.4 3.94-4.9-1.7zM649 196c-.82-.83-1.5-2.17-1.5-2.98 0-1.58-3.88-2.98-8.35-3-1.5 0-3.62-.93-4.73-2.03-1.63-1.7-1.7-2.4-.44-3.9 3.24-3.9 24.6 1.6 26.63 6.9 1.8 4.5-7.8 8.7-11.6 4.9zm735.35-13.02c-3.73-4.03-8.36-16.03-7.85-20.37.2-1.7 1.27-3.3 2.36-3.5 3.97-.7 7.4 4 10.06 13.8 3.56 13.2 1.8 17.1-4.57 10.2zm-299.72-9.78c-6.98-2.5-12.84-6.7-24.3-17.5-11.14-10.47-16.58-19.55-16.58-27.66 0-10.64 13.1-29.2 29.07-41.2 9.7-7.3 17.02-10.95 26.2-13.07 6.3-1.46 8.14-1.4 15.15.5 10.04 2.72 15.8 7.43 21.44 17.5 6.1 10.84 6.1 17.53-.1 30.26-5.2 10.64-10.9 16.13-22.1 21.07-8.9 3.93-21.3 4.28-28.9.82-10.2-4.68-18.7-18.64-16-26.37 2.6-7.22 17.8-13.76 22.1-9.47 3.5 3.5 2.6 6.68-2.5 8.82-5.8 2.45-9.1 5.36-9.1 8.15 0 1.18 2.3 4.2 5 6.68 4.6 4.18 5.6 4.52 12.8 4.5 14.8-.02 28-10.3 32.8-25.54 2.1-6.6 2.1-7.6.4-11.2-10.5-22-32.5-21.2-56.7 2-16.7 16-22 26.9-17.5 35.6 2.8 5.4 21.4 22.3 28.1 25.5 5.2 2.5 6.4 2.6 17.6 1.4 22.4-2.5 34-8.3 52.6-26.6 14-13.7 16.8-18.9 21.8-39.1 2.8-11.3 3.3-16 3.3-32.2 0-13.9-.6-21.1-2.1-27-2.3-8.6-2-10 2-8.8 1.6.5 3.6 3.4 5.3 7.9 2.4 6.1 2.9 10.1 3.3 28.7.5 19.3.2 22.8-2.3 33.1-3.2 13.2-8 25.4-12.7 32.9-3.8 6-20.6 21.2-30.4 27.5-9.5 6-20.6 10-34.7 12.3-14.3 2.3-16.2 2.3-22.4.1zM0 166.4v-6.08l4.88-.78c5.7-.9 15.88-9.92 16.6-14.7.7-4.4-.96-10.94-3.43-13.68-2.37-2.6-9.17-4.9-14.6-4.9-3.25 0-3.45-.34-3.45-5.56v-5.54l4.7.63c16.7 2.2 26.58 12.9 26.52 28.5-.05 11-7.78 20.5-20.84 25.5C.48 173.6 0 173.5 0 166.4zm242.42-.23c-4.76-4.77-2.88-6.15 13.53-9.92 12.03-2.77 15.78-2.57 17.1.9 1.23 3.17-2.78 6.1-12.24 9-10.7 3.27-15.1 3.28-18.3.02zm350.2-1.37c-10.93-3.14-26.76-18.5-30.76-29.85-2.2-6.27-2.43-16.53-.43-20.35C569.15 99.9 590.8 85 604.5 85c5.2 0 15.73 3.1 22.67 6.7 4.97 2.57 9.45 11.83 10.05 20.78.62 9.26-4.37 19.4-11.27 22.88-8.27 4.2-13.56 4.16-22.75-.15-9.28-4.3-10.5-6.2-11-17.4-.3-6.8-.2-7.1 2.9-7.5 4.23-.5 5.9 1.7 6.38 8.4.37 5.2.7 5.6 5.27 7.2 13.12 4.5 25.86-8.5 19.9-20.4-2.64-5.3-10.26-9-18.8-9.1-14.03-.2-39.1 19.4-39.1 30.5 0 5.3 5.17 13.2 12.74 19.7 9.6 8.2 10.6 8.6 25.2 8.6 11.7 0 14.2-.4 22.9-3.8 12.3-4.8 17.6-8.3 28.3-18.5 10.3-9.9 14.4-17.5 19.7-36.5 3.4-12.1 3.8-15.3 3.2-23.5-.8-10.5-2.7-19.4-5.6-26.5-4.5-11.1 3.2-11.4 8.7-.4 2.3 4.7 5.9 25.1 5.9 33.8 0 7-4.6 26.5-8.8 37.7-7.8 20.8-27.4 38.3-52.2 46.6-8.5 2.9-28.4 3.5-36.5 1.2zm1888.94-2.46c-2.1-2.14-1.98-6.9.2-7.75.96-.4 6.32-1.4 11.9-2.2 9.26-1.4 10.4-1.3 12.64.7 1.35 1.2 2.45 2.9 2.45 3.8 0 3.5-24.3 8.2-27.2 5.3zm-850.26-14.16c-4.1-4.92 2.28-8.98 16.2-10.3 5.7-.56 7.4-.23 10 1.9 4.2 3.4 2.45 5.03-8.4 7.87-10.5 2.73-15.84 2.9-17.8.53zm1137-3.8c-2.46-2.47-2.53-3.27-.5-6 1.07-1.4 5.28-2.63 13.1-3.78 12.3-1.8 14.1-1.34 14.1 3.63 0 3.65-5.82 6.26-16.4 7.34-6.76.7-8.63.47-10.3-1.2zM878 135.3c-3.97-3.25-10.35-7.6-14.18-9.68-5.4-2.92-7.03-4.48-7.33-7.08-1-7.93 12-3.9 25.2 7.88 8.8 7.86 10.2 10.23 7.5 12.87-1.1 1-2.5 1.9-3 1.9-.6 0-4.3-2.7-8.3-6zm-366.04 1.48c-3.63-3.63-2.3-7.32 5.23-14.5 8-7.72 12.1-10.3 14.7-9.3 3.8 1.47 1.8 6.97-5.3 14.84-10.7 11.8-11.5 12.27-14.8 8.96zm-429.08-1.14c-4.16-2.93-16.87-21.6-16.4-24.1.64-3.34 5.53-3.38 8.36-.06 7.6 8.96 16.44 21.82 16.12 23.48-.5 2.64-4.78 3-8.08.68zm124.45-2.38c-.8-1.76-.9-3.74-.28-4.82 1.98-3.36 27.3-24.63 29.36-24.66 3.4-.05 5.5 3.44 4.2 6.9-.6 1.68-6.7 8.12-13.4 14.3-13.2 12.14-17.2 13.8-19.7 8.28zm2261.8-.3c-1.2-3.14.9-5.55 10.68-12.27l9-6.2 2.6 2.5c1.4 1.4 2.2 3.3 1.8 4.3-1.1 2.7-17.5 13.7-20.5 13.7-1.4 0-3-1-3.4-2.1zm-570.62-10.54c-10.3-1.55-21.4-7.56-25.6-13.83-4.6-7-5.4-18.4-1.9-26.3 3-6.8 10.3-12.1 18-13.1 9.7-1.4 20 5.8 21.9 15.4 1 4.7-1.9 7.4-5.6 5.4-1.4-.8-2.5-1.9-2.5-2.4 0-.6-1.4-2.5-3-4.4-4.6-5-9.8-4.5-15.8 1.5-6.7 6.7-6.7 12.2-.1 18.9 11.5 11.5 33.2 10.9 47-1.3 5.3-4.7 13.7-20.4 15.1-28.1.5-2.8 2-9.8 3.4-15.7 3-12.5 2.6-19-2-29.9-2.5-6-2.9-8.2-1.9-10.1 1.7-3.1 5.3-3.2 7.7-.3 2.4 2.8 8.6 23.5 8.6 28.7 0 10.2-6.4 36.1-11.5 46.9-7.5 15.8-19.4 25.8-32.8 27.7-3.4.4-7.4 1-8.8 1.2-1.4.2-5.7-.1-9.6-.7zm-1437.3-3.84c-1.9-3.57-.9-8.98 3.8-20.02 7.1-16.7 8.1-17.9 12-14.02 3.1 3.04 2 8.55-4.4 23.9-5.6 13.4-8.2 15.74-11.2 10.14zm-49.1-4.13c-6.3-6.85-12.8-24.33-9.7-26.25 3.3-2.02 6.1 1.12 11.8 13.17 4.7 9.9 5.7 13.02 4.5 14.38-2 2.45-3.3 2.2-6.5-1.3zm802.9-7.66c-10.5-8-12-9.9-9.9-12.5 2.4-2.8 4.8-2.2 13.1 3.2 10.5 6.8 14.1 10.7 12.3 13.5-2.4 3.9-5.9 2.9-15.5-4.2zm991.6 2c-8-5.2-11.4-9.5-9.2-11.6.9-.9 2.4-.7 4.8.6 17.9 9.4 19.8 11 16.4 14.4-2.3 2.3-3.7 1.9-11.9-3.4zm261.6-6.8c-11.8-3.8-18.4-9.3-23.7-19.6-4.5-8.8-8.2-22.3-9-32.5-1-13.3 1.4-34.6 4.9-43.1 2.7-6.7 3-7 7.5-7 2.6 0 4.7.2 4.7.4s-1.4 3.1-3.2 6.3c-6.2 11-7.8 43.1-3 60.1 3.4 11.9 5.2 15.7 9.7 20.1 4.8 4.6 10.5 6.8 17.7 6.8 5.1 0 7-.7 10.4-3.7 5.7-5 10.9-14.9 11.8-22.5.7-5.9.5-6.5-3.4-10.1-4.9-4.5-8.1-4.8-14.8-1.4-10.2 5.2-13.5 15.3-6.3 19.6 2 1.2 4 3 4.4 4 .8 2.2-1.5 5.2-4 5.2-3.4 0-10-5-11.5-8.6-5-12.1 2.3-25.2 17-30.8 5.3-2 6.1-2 9.8-.3 5.5 2.6 12.9 9.2 15.1 13.5 5.8 11.1-2.2 32.9-14.8 40.3-6.8 4-12.7 4.9-19 2.9zM896.9 96.8c-2.06-1.04-7.08-4.86-11.15-8.5-5.34-4.77-7.18-7.2-6.6-8.7 1.37-3.6 6.13-2.2 15.76 4.55 11.2 7.88 13 10.25 9.6 12.8-2.9 2.18-2.9 2.18-7.5-.15zm704.87-4.96c-2.03-3.1-1.92-3.37 5.9-14.97 4.4-6.5 9-12.17 10.23-12.6 2.6-.87 5.87 1.4 5.87 4.1 0 5.58-14.65 26.6-18.53 26.6-.78 0-2.34-1.4-3.48-3.14zm622.32-4.95c-8.3-6.1-11.4-10.1-9.3-12.2 2-2 6.4-.3 14.9 5.9 7.8 5.7 9 7.6 6.3 10.4-2.4 2.3-3.8 1.9-12-4.1zM1734.2 83c-2.45-3.78-3.8-14.87-1.93-16.03 2.14-1.33 4.86 2.54 6.46 9.2 2.3 9.53-.25 13.36-4.53 6.83zm94-5.83c-2.5-3.6-2.57-13.9-.07-15.97 1.5-1.25 2.46-1.16 4.93.46 2.6 1.73 3.02 2.93 2.93 8.6-.2 9.6-3.7 12.75-7.8 6.92zM2256.44 74c-2.2-4.14-4.23-16.75-2.92-18.06 3.6-3.6 10.25 4.3 10.25 12.2 0 6.8-4.8 10.67-7.34 5.9z" fill="#7ac29e"/>
</svg>
