<svg xmlns="http://www.w3.org/2000/svg" viewBox="0 0 499.85809 570.86615">
  <path d="M214.33 511.85c-22.93-7.58-33.32-16.78-49.07-43.44-7.64-12.9-13.9-24.2-13.9-25 0-1.6-12.7-21.5-33.04-51.7-27.64-41.1-33.82-57.2-33.97-88.7-.14-31.8 21.33-65 53-81.9 9.23-4.9 16.78-10 16.78-11.3 0-1.3-4.8-1.7-10.68-.9-13.5 1.8-22.56-2.8-22.56-11.5 0-7.2 17-29.3 26.9-34.9 9.8-5.5 39.2-4.8 51.5 1.3 6.1 3.1 11.5 4.2 12.9 2.8 1.3-1.3 2.8-14.3 3.3-28.8.8-22.8 2.1-28.8 10.2-46 5.7-12.3 11.8-21.1 16.2-23.5 6.3-3.3 7.4-3.1 12.2 2.8 3.6 4.5 5.2 10.9 5.2 20.9 0 8.1 1.7 16.8 3.9 19.8 3.8 5.2 4.3 4.9 14.5-6 11-11.9 27.2-17.7 49.6-17.7 11.9 0 28.4 6.6 30.5 12.2 3.3 8.6-10.9 38.2-24.5 51.1-7.2 6.87-12.4 13.5-11.6 14.77.8 1.28 8.4 2.3 16.8 2.3 19.3 0 55.5 15.35 70.9 30.08 20 19.1 20.6 43.97 2.4 103.77-15.4 50.93-27.6 73.7-59 110.03-7.3 8.47-17.6 24.8-23 36.3-5.3 11.5-11.7 22.6-14.2 24.66-2.5 2.07-8.2 9.1-12.75 15.7-16.5 24.06-55.7 34.3-89 23.3zm28.05-18.87c2.22-3.96 3.35-4.14 7.03-1.08 5 4.12 15.3 2.37 25.6-4.35 5.2-3.4 6.7-6.78 6.7-15.66 0-8.9.8-10.6 3.4-8 8.3 8.2 19-2.8 13.2-13.6-4.1-7.8.7-13.3 7.1-8.1 5.2 4.3 4.6 4.9 13.4-12.4 3.9-7.6 10.3-18.2 14.2-23.4 3.9-5.3 7.1-12.9 7.1-16.9 0-9 2.6-11.9 7.1-8.1 2.6 2.1 5.1 1.1 9.4-3.5 4.7-5.1 5.6-8.5 4.2-16.5-1.6-9.8 1.9-16.7 5.6-10.8 3.2 5.2 6.8 2.9 12.4-8 10.8-21.3 22.9-62.9 25.9-89.6l3.1-27-8.3-10.5c-12.22-15.5-37.4-28-56.7-28.3-16.84-.3-33 4.1-33 8.8 0 1.6 1.7 4.9 3.8 7.3 2.1 2.4 5.9 13.7 8.4 25.2l4.5 20.9-7 14.4c-3.82 7.9-6.96 16.1-6.96 18.2 0 11.5-9.5 3.2-16.7-14.6-4.7-11.7-18.5-27.9-23.8-27.9-2.2 0-3.9 2.5-3.9 5.5s-1.3 5.5-2.8 5.5c-3.5 0-3.6-7.45-.1-9.6 4-2.5.6-8.68-6.7-12-5.3-2.4-7.4-1.98-11.37 2.4-6.2 6.9-15.2 6.82-24.1-.18-8.43-6.6-11.3-6.87-15.9-1.4-4.7 5.66-7.4 5.25-9.1-1.36-2.3-8.7-17.9-7.03-41.6 4.4-24.66 11.9-38.3 25.24-46.04 44.96-10.84 27.7-5.64 68 9.65 74.96 4.1 1.85 6.8 5.4 6.8 8.95 0 5.9 15.1 32.02 27.3 47.2 3.6 4.4 11.2 17.7 16.9 29.5 9.7 20.1 19.5 33.1 19.5 25.9 0-1.7 1.7-3.1 3.8-3.1 4.7 0 8.7 9.2 4.6 10.5-4.4 1.5-3.5 7.64 1.6 11.95 6.1 5 25.8 12.8 33.4 13.2 3.4.14 7.3-1.85 8.76-4.45zm-23.86-11.87c-4.46-7.1-4.36-11.1.27-11.1 3 0 10.1 10.8 10.1 15.4 0 3.6-7.5.6-10.4-4.2zm32.58-15.5c0-4.9 5.96-4 7.68 1.1.6 1.8-.88 3.3-3.3 3.3-2.4 0-4.38-2-4.38-4.4zm-27.45-17.3c-3.74-6.9-3.88-11.5-.35-11.5 4.47 0 9.28 11.3 6.15 14.5-1.85 1.9-3.78.9-5.8-2.9zm45.92-7.8c-3.38-3.4-1.9-9.2 2.3-9.2 2.32 0 4.16 2.5 4.16 5.6 0 5.5-2.95 7.2-6.46 3.7zm-77.6-6c-5.3-5.8-6-11.5-1.43-11.5 3.78 0 10.48 8.3 10.6 13.2.13 5-3.86 4.3-9.18-1.6zm50.96-16.8c-3.83-7.1-3.68-8.5.92-8.5 4.37 0 7.96 10.3 4.36 12.6-1.3.8-3.6-.9-5.2-3.9zm73.4-5.6c-.88-1.4-.33-3.3 1.22-4.3 1.54-.9 2.8.2 2.8 2.6 0 4.9-1.65 5.6-4.03 1.8zm-151.1-7.3c0-4.9 5.95-4 7.66 1.1.6 1.8-.9 3.3-3.3 3.3s-4.4-2-4.4-4.4zm44.3 1.6c0-1.5 1.26-2.7 2.78-2.7 1.6 0 2.8 1.3 2.8 2.8 0 1.5-1.2 2.8-2.7 2.8-1.5 0-2.7-1.2-2.7-2.7zm88.67-2.9c0-1.6 1.24-2.1 2.77-1.2 1.52 1 2.77 2.3 2.77 3 0 .7-1.25 1.2-2.77 1.2-1.53 0-2.77-1.3-2.77-2.9zm-33.25-5.4c0-3 1.25-5.5 2.77-5.5 1.53 0 2.77 2.5 2.77 5.6s-1.3 5.5-2.8 5.5c-1.5 0-2.8-2.5-2.8-5.5zm-73.03-4.7c-3.42-3.4-1.72-11.9 2.4-11.9 2.27 0 4.14 2.4 4.14 5.4 0 5.8-3.65 9.5-6.54 6.6zm-53.02-12c-2.26-3.6 1.05-8.8 4.34-6.8 3.37 2.1 3.35 9.6-.03 9.6-1.4 0-3.3-1.2-4.3-2.7zm94.22-2.7c-2.04-3.3.55-8.3 4.3-8.3 3.36 0 3.38 7.5.02 9.6-1.42.9-3.36.4-4.32-1.2zm53 .8c-3.3-3.3-1.8-9.1 2.38-9.1 2.3 0 4.16 1.8 4.16 4 0 4.6-3.96 7.7-6.54 5.1zm33-.6c-.9-1.4-.44-3.3 1-4.2 1.45-.9 3.36-.5 4.25 1 .9 1.4.44 3.3-1 4.2-1.45.9-3.36.5-4.25-1zm-149.3-2.1c-3.17-3.2-2-6.5 2.32-6.5 2.3 0 4.16 1.8 4.16 4.1 0 4.3-3.28 5.5-6.47 2.3zm38.85-11.1c-1.05-1-1.9-4.4-1.9-7.5 0-5.3.27-5.4 4.73-.9 3.23 3.3 3.83 5.7 1.9 7.6-1.57 1.6-3.7 2-4.73 1zm-62.88-12.1c-3.9-7.2-1-12.5 4.4-8 4.4 3.7 5.3 13.7 1.2 13.7-1.5 0-4-2.5-5.7-5.6zm38.1-4.6c-.8-1.2-2.2-5.7-3.2-9.9-1.4-5.6-.8-7.6 2.1-7.6 4.7 0 8.6 13.6 4.9 17.2-1.5 1.5-3.2 1.6-4 .3zm78.2-3.7c0-5.4 2.9-7.2 6.2-3.9 2.2 2.3-.7 9.5-3.8 9.5-1.4 0-2.5-2.5-2.5-5.5zm77.5 2.8c0-1.5 1.2-2.8 2.6-2.8 1.4 0 3.4 1.3 4.3 2.8.9 1.5-.3 2.8-2.6 2.8-2.4 0-4.4-1.2-4.4-2.7zm-28.6-7.4c-3.2-3.2-2-6.4 2.3-6.4 2.3 0 4.1 1.9 4.1 4.2 0 4.4-3.3 5.5-6.5 2.3zm-188.4-11.2c-3.3-3.3-1.8-9.1 2.4-9.1 2.3 0 4.1 1.8 4.1 4 0 4.6-4 7.8-6.6 5.2zm109-6.4c0-3.5 1.4-5.5 3.4-4.8 1.9.7 3.5 2.8 3.5 4.9 0 2.1-1.6 4.3-3.5 4.9-2.1.7-3.5-1.2-3.5-4.8zm48.5 0c-1.2-1.8-.8-4.5.7-6 1.8-1.8 3.4-1.7 4.7.5 1.1 1.8.8 4.5-.8 6.1-1.9 1.9-3.5 1.7-4.8-.5zm-117.7-11.3c0-6.7 6.4-5.8 7.8 1.2.5 2.8-.9 4.6-3.5 4.6s-4.4-2.3-4.4-5.7zm40.6 4c-3.5-3.5-1.9-12 2.3-12 2.6 0 4.1 2.6 4.1 6.9 0 6.7-2.7 8.9-6.5 5.1zm157.9 0c-3.2-3.2-2-6.4 2.3-6.4 2.3 0 4.1 1.9 4.1 4.2 0 4.3-3.3 5.5-6.5 2.3zm-26.8-9.1c0-1.4 1.2-3.4 2.7-4.3 1.5-.9 2.7.3 2.7 2.6 0 2.4-1.2 4.3-2.7 4.3-1.5 0-2.7-1.2-2.7-2.6zm-195.6-6.8c-2.3-5.9-.4-13.5 3.7-14.8 2.2-.7 3.4 1.8 3.4 7.2 0 9.3-4.7 14.2-7.2 7.7zm237.2 1.1c0-1.5 1.2-2.7 2.7-2.7s2.7 1.3 2.7 2.8c0 1.5-1.2 2.7-2.7 2.7s-2.7-1.3-2.7-2.8zm-266-4.1c0-2.3 1.9-4.1 4.2-4.1 2.3 0 4.1 1.9 4.1 4.2 0 2.3-1.9 4.2-4.2 4.2-2.3 0-4.2-1.9-4.2-4.2zm152.4-1.5c0-1.7 1.2-2.2 2.8-1.3 1.5.9 2.7 2.2 2.7 2.9 0 .6-1.3 1.2-2.8 1.2s-2.8-1.3-2.8-2.9zm-88.7-5.4c0-3.1 1.9-5.6 4.2-5.6 2.3 0 4.1 2.4 4.1 5.5s-1.9 5.5-4.2 5.5c-2.3 0-4.2-2.5-4.2-5.6zm18.2-17.3c4-13.2 11.3-14.2 8-1.1-1 4-3.7 7.2-5.9 7.2-2.9 0-3.5-1.8-2.1-6.3zM229 276c0-1.6 1.88-2.8 4.16-2.8 2.3 0 4.1 1.2 4.1 2.7 0 1.5-1.9 2.7-4.2 2.7-2.3 0-4.2-1.3-4.2-2.8zm-102.04-5.7c.5-3.5 2.6-6.9 4.6-7.6 2.5-.9 3.4.8 2.8 5.1-.5 3.5-2.6 6.9-4.7 7.5-2.5.8-3.4-.8-2.8-5.1zm33.2 1.4c.5-2.7 2.6-5.5 4.7-6.2 2.3-.8 3.3.5 2.7 3.7-.6 2.7-2.7 5.5-4.7 6.1-2.4.8-3.4-.6-2.8-3.7zm219.9 1.7c-1.9-3.1 2.4-6.4 5-3.8 2.6 2.6 2.1 6.4-.8 6.4-1.5 0-3.3-1.2-4.2-2.6zm-98.5-4.5c0-2.4 1.2-3.6 2.8-2.6 1.5.9 2.1 2.9 1.2 4.3-2.4 3.8-4.1 3.1-4.1-1.8zm69.2-5.6c0-2.4 1.2-3.6 2.74-2.6 1.54.9 2.8 2.8 2.8 4.3 0 1.4-1.26 2.6-2.78 2.6s-2.8-2-2.8-4.4zm-168.6-15c.5-3.6 2.5-7.1 4.4-7.7 4.95-1.7 4.24 6.2-1 10.6-3.85 3.2-4.3 2.8-3.46-2.9zm32.8-.1c0-3.1 1.8-5.6 4.13-5.6 2.3 0 4.1 2.4 4.1 5.5s-1.9 5.5-4.2 5.5c-2.3 0-4.2-2.5-4.2-5.6zm178 3.5c-4.75-1.7-4.4-9.1.4-9.1 4.15 0 8.2 7.4 5 9.2-1.06.6-3.5.5-5.4-.2zm-241.7-2.1c0-3.9 5.9-12.5 8.6-12.5 4.9 0 1.4 12.3-3.76 13.3-2.64.5-4.8.1-4.8-.9zm215.1-22.1c-2.04-5.4 3.7-8.8 6.64-4.1 2.43 3.9 1 8.1-2.78 8.1-1.3 0-3-1.8-3.9-4.1zm-34.33-13c-3.8-3.8-4.5-10.6-1.1-10.6s8.83 6.2 8.83 10.2c0 4.5-3.4 4.7-7.76.3zm25.9-13.1c-.9-1.5-.45-3.4 1-4.3 1.43-.9 3.34-.5 4.24 1 .9 1.4.44 3.3-1 4.2-1.45.9-3.36.5-4.25-1zm-49.4 32.7c-2.3-25.1-16.35-37.2-30.9-26.6-4.4 3.2-4.6 4.58-1.5 10.37 4.36 8.1 28 33 31.45 33 1.33 0 1.75-7.6.9-16.9zm-104.5-38c0-1.35-2.52-5.64-5.6-9.57-6.27-7.97-23.74-11.9-36.6-8.23-12.8 3.66-9 7.46 13.6 13.6 25.35 6.9 28.6 7.4 28.6 4.18zm35.5-23.3c1.6-1.97 5.03-9.7 7.58-17.24 3.9-11.42 4.2-16 1.5-27.64-4.2-18.67-7.2-23.35-11.8-18.66-2.4 2.36-4 14.33-4.6 35.3-1 30.94.5 36.53 7.4 28.2zm73.2-28.64C332.53 127.5 340.8 114 334 109.44c-5.65-3.8-30.47-.25-38.35 5.48-5.8 4.28-14.6 17.42-25.4 38.35-1.7 3.3-2.4 7.9-1.5 10.2 2.8 7.1 23.4-2 44.1-19.4z" fill="#7ac29e"/>
</svg>
