<?xml version="1.0" encoding="UTF-8" standalone="no"?>
<svg
   xmlns:dc="http://purl.org/dc/elements/1.1/"
   xmlns:cc="http://creativecommons.org/ns#"
   xmlns:rdf="http://www.w3.org/1999/02/22-rdf-syntax-ns#"
   xmlns:svg="http://www.w3.org/2000/svg"
   xmlns="http://www.w3.org/2000/svg"
   viewBox="0 0 519.99999 475.77707"
   height="475.77707"
   width="520"
   version="1.1"
   id="svg2">
  <metadata
     id="metadata8">
    <rdf:RDF>
      <cc:Work
         rdf:about="">
        <dc:format>image/svg+xml</dc:format>
        <dc:type
           rdf:resource="http://purl.org/dc/dcmitype/StillImage" />
        <dc:title></dc:title>
      </cc:Work>
    </rdf:RDF>
  </metadata>
  <defs
     id="defs6" />
  <path
     style="fill:#7ac29e"
     d="m 263.98953,463.71069 c -53.5749,-4.72257 -98.4267,-21.77447 -128.2409,-48.75471 -19.3793,-17.53726 -28.0924,-33.87223 -45.149101,-84.64345 -17.8782,-53.21769 -24.6348,-67.57254 -48.2748,-102.56492 -20.3367,-30.10286 -21.3598,-32.84141 -24.317,-65.09082 -0.9284,-10.1221 -3.3878,-27.27708 -5.4658,-38.12218 -6.3596997,-33.189375 -1.4974,-44.767145 22.7145,-54.086685 6.507,-2.50466 14.1972,-6.5217 17.0893,-8.92675 2.892,-2.40506 8.5147,-6.39515 12.495,-8.86692 3.9803,-2.47175 13.1977,-12.07921 20.4831,-21.34994 14.700601,-18.70578 24.777901,-23.9930001 38.325601,-20.10759 4.4806,1.28505 19.8479,8.35975 34.1493,15.72159 23.2066,11.94587 28.6883,13.66645 50.9794,16.00108 42.6707,4.46916 45.2835,4.78493 73.6152,8.89708 41.6206,6.04097 57.4689,9.0724 76.2444,14.58366 21.6734,6.362 54.5426,21.48586 72.2719,33.25395 25.1495,16.780945 27.8085,20.410905 56.2467,53.004995 14.825,22.9373 15.4283,24.31937 19.9764,45.75754 3.5796,16.87117 3.7052,24.84696 0.9471,60.12211 -3.1147,39.83429 -3.4403,41.26343 -15.8273,69.50975 -6.956,15.86162 -15.9069,33.62524 -19.8914,39.47471 -10.5609,15.50465 -42.3839,45.85801 -54.5683,52.04817 -5.784,2.93853 -15.8405,9.19953 -22.3475,13.91333 -14.9763,10.84903 -52.0983,26.24882 -72.2576,29.97543 -16.3507,3.0226 -27.2288,3.06865 -59.1982,0.25055 z m 56.526,-23.55821 c 20.1054,-4.35161 50.0397,-17.61697 64.4134,-28.54463 7.9529,-6.04638 15.7585,-10.9985 17.3454,-11.00472 1.5869,-0.004 8.6856,-5.3092 15.7747,-11.7844 7.0891,-6.47515 13.7597,-11.79911 14.8238,-11.83102 3.0205,-0.0904 16.1217,-21.00027 14.2994,-22.82245 -0.8934,-0.89359 -8.8519,4.29416 -17.6851,11.52829 -30.7486,25.18199 -85.9637,36.88226 -149.3132,31.64003 -34.5224,-2.85678 -55.2493,-9.60324 -83.2269,-27.08981 -26.5054,-16.56646 -40.1893,-28.768 -60.3167,-53.78368 -19.0784,-23.71183 -24.6834,-33.11975 -51.373401,-86.232 -22.3548,-44.48537 -39.7888,-70.63266 -44.9631,-67.4348 -1.3247,0.81861 -2.4083,7.17928 -2.4083,14.13481 0,11.48667 1.6755,14.94953 18.2709,37.76122 24.0957,33.12122 35.9516,57.53068 52.592201,108.27718 15.4973,47.261 24.9762,63.95208 45.7027,80.47513 20.1697,16.07938 32.2327,22.17851 56.4875,28.56074 36.9799,9.73065 85.575,13.34506 109.5767,8.15011 z m 54.4324,-72.51517 c 20.3281,-6.47274 25.759,-9.69071 48.6386,-28.82016 41.7849,-34.93559 48.5945,-42.54463 57.8372,-64.62527 6.8894,-16.45905 8.4633,-23.99736 9.0591,-43.38042 0.9402,-30.58291 -2.3763,-43.90742 -15.8752,-63.78541 -24.1492,-35.56152 -78.2166,-67.529605 -135.9785,-80.399065 -31.0223,-6.91185 -103.8411,-17.4033 -120.3658,-17.34187 -15.1637,0.0564 -44.504,-9.50507 -69.3029,-22.58453 -12.0508,-6.35575 -23.93,-11.5183 -26.3988,-11.4723 -6.0049,0.11189 -10.5072,4.04105 -22.222,19.39286 -11.052801,14.48425 -19.882001,20.61796 -42.558601,29.56593 -20.753,8.18886 -27.7828,15.04654 -27.7828,27.101815 0,7.95171 2.1741,11.62572 13.3424,22.54645 22.4846,21.98659 35.7448,42.01236 57.189801,86.36885 11.3189,23.41167 26.5486,51.39323 33.8439,62.18123 19.8833,29.40248 48.4414,57.22404 73.0892,71.20377 37.2861,21.14796 47.6913,23.40416 102.5356,22.23285 37.2303,-0.79515 44.6962,-1.73595 64.9488,-8.18473 z m -50.4887,-86.94283 c -13.0434,-4.0117 -20.5223,-8.31653 -52.9839,-30.49811 -12.0703,-8.24779 -24.5254,-18.76278 -27.678,-23.36666 -6.3898,-9.33145 -31.9957,-37.76019 -60.1477,-66.77827 -10.2054,-10.51956 -24.9941,-22.76171 -32.8639,-27.20481 -7.8697,-4.4431 -19.4887,-13.35908 -25.8205,-19.81331 -9.3094,-9.48943 -11.2002,-12.97791 -9.8821,-18.230645 2.5389,-10.1152 8.3804,-10.30023 21.0031,-0.66521 15.4535,11.796105 30.5288,18.182775 65.6589,27.816505 68.2929,18.72797 97.1216,30.7337 137.1948,57.13469 24.4443,16.10437 44.2418,35.15682 48.6909,46.85826 4.647,12.22299 3.1328,36.48862 -2.7429,43.95876 -9.1597,11.64436 -39.8383,17.12167 -60.4287,10.7888 z m 46.4935,-22.47672 c 4.8874,-4.05628 4.2627,-18.08911 -1.1587,-26.031 -4.4161,-6.46895 -21.4109,-23.52043 -23.4425,-23.52043 -0.5443,0 -2.1256,2.98808 -3.5142,6.64018 -3.2897,8.6529 -9.7813,10.97077 -15.2919,5.46017 -4.105,-4.10506 -4.088,-4.92577 0.2633,-12.50694 5.5899,-9.74014 3.8391,-12.59808 -11.879,-19.39215 -6.154,-2.65993 -13.8037,-7.14533 -16.9992,-9.96755 -9.9156,-8.75647 -68.2262,-30.70339 -81.576,-30.70339 -6.9401,0 -7.8285,6.49465 -1.9506,14.26352 3.4136,4.51197 4.5563,4.67255 10.5238,1.47877 6.0129,-3.21792 7.269,-3.00843 12.3345,2.05702 4.7884,4.78831 5.1899,6.62764 2.659,12.18223 -2.4474,5.37149 -2.1348,7.58735 1.7468,12.38093 6.2262,7.68896 13.4342,5.03499 13.4342,-4.94651 0,-13.05021 10.4367,-18.46945 15.9023,-8.25715 2.0507,3.83189 2.1361,7.61441 0.2827,12.48833 -1.4624,3.84534 -3.3976,12.5368 -4.3002,19.31437 -1.4165,10.63747 -0.9126,12.71274 3.6852,15.17337 4.6584,2.49303 6.1648,1.52215 12.0126,-7.7413 4.4667,-7.07592 6.1716,-12.6417 5.1364,-16.76724 -2.6413,-10.52309 11.8899,-20.42828 15.6382,-10.66 2.7275,7.10724 1.7691,13.45742 -2.5744,17.06232 -2.8058,2.32866 -3.6865,5.87948 -2.692,10.85267 0.8129,4.06537 0.1367,10.33813 -1.5052,13.93945 -2.4627,5.40496 -2.151,7.46745 1.7849,11.81674 6.568,7.25731 11.0164,6.60235 15.6197,-2.29984 5.0536,-9.77262 12.1168,-12.56404 16.5275,-6.53199 4.746,6.49064 4.1735,10.91622 -1.9025,14.71087 -7.2814,4.54735 -6.5713,8.96184 1.9719,12.25619 8.4142,3.24466 34.2174,1.43636 39.2634,-2.75164 z m -21.4021,-8.39106 c -5.7542,-4.20745 -3.9657,-15.96244 2.8248,-18.56823 8.9051,-3.41716 16.7706,11.21882 9.7843,18.20541 -4.7981,4.79782 -6.4778,4.84618 -12.6091,0.36282 z"
     id="path4140" />
</svg>
