<svg xmlns="http://www.w3.org/2000/svg" viewBox="0 0 519.99999 475.77707" height="475.78" width="520">
  <path d="M264 463.7c-53.6-4.7-98.44-21.76-128.25-48.74-19.38-17.54-28.1-33.88-45.15-84.65-17.88-53.2-24.64-67.5-48.28-102.5C22 197.7 20.96 195 18.02 162.7c-.94-10.1-3.4-27.25-5.48-38.1-6.36-33.2-1.5-44.8 22.72-54.1 6.5-2.5 14.2-6.52 17.1-8.93 2.88-2.4 8.5-6.4 12.48-8.87 3.98-2.5 13.2-12.1 20.48-21.38 14.7-18.7 24.78-24 38.33-20.1 4.48 1.3 19.85 8.37 34.15 15.73 23.2 11.94 28.7 13.66 50.98 16 42.67 4.47 45.28 4.78 73.6 8.9 41.63 6.04 57.48 9.07 76.26 14.58 21.67 6.37 54.54 21.5 72.27 33.26 25.2 16.8 27.9 20.4 56.3 53 14.8 22.9 15.4 24.3 20 45.7 3.6 16.8 3.7 24.8 1 60.1-3.1 39.8-3.4 41.2-15.8 69.5-6.9 15.8-15.9 33.6-19.9 39.5-10.5 15.5-42.3 45.8-54.5 52-5.8 2.9-15.8 9.2-22.3 13.9-15 10.8-52.1 26.2-72.2 30-16.37 3-27.25 3-59.2.2zm56.52-23.55c20.1-4.35 50.04-17.6 64.4-28.54 7.96-6 15.77-11 17.35-11 1.6 0 8.7-5.3 15.78-11.7 7.1-6.5 13.76-11.8 14.82-11.8 3.02-.1 16.12-21 14.3-22.8-.9-.9-8.85 4.3-17.68 11.6-30.8 25.2-86 36.9-149.4 31.6-34.5-2.8-55.3-9.6-83.2-27.1-26.5-16.5-40.2-28.7-60.3-53.7-19.1-23.7-24.7-33.1-51.4-86.2-22.4-44.5-39.8-70.6-45-67.4-1.4.8-2.4 7.2-2.4 14.2 0 11.5 1.6 14.97 18.2 37.8 24.1 33.1 35.9 57.5 52.6 108.26 15.5 47.27 24.9 63.96 45.7 80.48 20.1 16.1 32.2 22.2 56.5 28.6 37 9.75 85.6 13.37 109.6 8.17zm54.43-72.5c20.33-6.5 25.76-9.7 48.64-28.83 41.7-34.94 48.5-42.55 57.8-64.63 6.9-16.5 8.4-24 9-43.4.9-30.6-2.4-43.9-15.9-63.8-24.2-35.6-78.2-67.6-136-80.4-31.1-6.9-103.9-17.4-120.4-17.4-15.2 0-44.5-9.5-69.3-22.6-12.1-6.4-24-11.5-26.4-11.5-6 .1-10.5 4-22.3 19.4C89.2 69 80.3 75.1 57.7 84.1 37 92.3 30 99.2 30 111.3c0 7.94 2.17 11.6 13.34 22.54 22.5 21.98 35.75 42 57.2 86.36 11.3 23.42 26.54 51.4 33.83 62.2 19.9 29.4 48.45 57.2 73.1 71.2 37.27 21.13 47.67 23.4 102.53 22.2 37.23-.8 44.7-1.73 64.95-8.18zm-50.5-86.96c-13.03-4.1-20.5-8.4-52.97-30.5-12.07-8.3-24.53-18.8-27.68-23.4-6.4-9.4-32-37.8-60.15-66.8-10.2-10.5-25-22.8-32.86-27.2-7.9-4.5-19.5-13.4-25.9-19.8-9.3-9.5-11.2-13-9.9-18.3 2.5-10.1 8.4-10.3 21-.7 15.4 11.8 30.5 18.2 65.6 27.8 68.3 18.7 97.1 30.7 137.2 57.1 24.4 16.1 44.2 35.1 48.7 46.8 4.6 12.2 3.1 36.5-2.8 43.9-9.2 11.6-39.9 17.1-60.5 10.8zm46.5-22.5c4.9-4.1 4.27-18.1-1.16-26.1-4.5-6.5-21.5-23.6-23.5-23.6-.6 0-2.1 3-3.5 6.6-3.3 8.6-9.8 10.9-15.3 5.4-4.1-4.1-4.1-4.9.2-12.5 5.6-9.8 3.8-12.6-11.9-19.4-6.2-2.7-13.8-7.2-17-10-10-8.8-68.3-30.7-81.6-30.7-7 0-7.8 6.5-2 14.2 3.4 4.5 4.5 4.7 10.5 1.5s7.2-3 12.3 2.06c4.8 4.8 5.2 6.6 2.6 12.2-2.4 5.4-2.1 7.6 1.8 12.4 6.2 7.7 13.4 5.02 13.4-4.96 0-13 10.4-18.43 15.9-8.2 2 3.86 2.1 7.6.3 12.5-1.5 3.86-3.4 12.55-4.3 19.3-1.5 10.67-1 12.7 3.6 15.2 4.63 2.5 6.14 1.5 12-7.76 4.5-7.1 6.2-12.63 5.12-16.8-2.6-10.5 11.9-20.4 15.7-10.6 2.73 7.1 1.8 13.44-2.57 17.05-2.83 2.3-3.7 5.85-2.7 10.83.8 4.06.12 10.3-1.5 13.9-2.48 5.4-2.17 7.5 1.76 11.8 6.6 7.3 11 6.68 15.6-2.3 5.06-9.7 12.1-12.5 16.53-6.5 4.7 6.5 4.13 10.9-1.9 14.7-7.3 4.6-6.6 9 1.93 12.3 8.4 3.3 34.2 1.5 39.27-2.7zm-21.4-8.4c-5.75-4.2-3.97-16 2.83-18.6 8.9-3.4 16.77 11.2 9.78 18.2-4.8 4.8-6.48 4.8-12.6.3z" fill="#7ac29e"/>
</svg>
