<?xml version="1.0" encoding="UTF-8" standalone="no"?>
<svg
   xmlns:dc="http://purl.org/dc/elements/1.1/"
   xmlns:cc="http://creativecommons.org/ns#"
   xmlns:rdf="http://www.w3.org/1999/02/22-rdf-syntax-ns#"
   xmlns:svg="http://www.w3.org/2000/svg"
   xmlns="http://www.w3.org/2000/svg"
   version="1.1"
   id="svg5157"
   viewBox="0 0 499.85809 570.86615"
   height="161.11111mm"
   width="141.07106mm">
  <defs
     id="defs5159" />
  <metadata
     id="metadata5162">
    <rdf:RDF>
      <cc:Work
         rdf:about="">
        <dc:format>image/svg+xml</dc:format>
        <dc:type
           rdf:resource="http://purl.org/dc/dcmitype/StillImage" />
        <dc:title></dc:title>
      </cc:Work>
    </rdf:RDF>
  </metadata>
  <g
     transform="translate(-216.36019,-64.012106)"
     id="layer1">
    <path
       style="fill:#7ac29e"
       d="m 571.43187,596.02041 c -2.53464,-2.53471 -4.2357,-9.19897 -4.2357,-16.59401 0,-6.797 -1.85377,-16.79436 -4.11912,-22.21639 -4.72906,-11.31868 -1.76134,-20.43885 6.65088,-20.43885 5.9802,0 10.12724,8.9338 14.14618,30.47504 4.54732,24.37355 -1.90984,39.30654 -12.44224,28.77421 z M 430.68704,575.86155 c -22.92566,-7.57523 -33.32042,-16.77752 -49.06815,-43.43886 -7.64248,-12.93935 -13.89573,-24.21159 -13.89573,-25.04944 0,-1.63914 -12.71552,-21.56146 -33.04138,-51.76837 -27.64363,-41.082 -33.8304,-57.2322 -33.97225,-88.68067 -0.14406,-31.8605 21.33475,-65.07785 52.98801,-81.94884 9.23782,-4.92365 16.79608,-10.00711 16.79608,-11.2966 0,-1.28948 -4.80708,-1.69973 -10.68245,-0.91159 -13.49812,1.81055 -22.56306,-2.83584 -22.56306,-11.565 0,-7.23267 17.05317,-29.30813 26.94792,-34.88384 9.84377,-5.54734 39.23435,-4.83567 51.47933,1.24648 6.12116,3.04042 11.54528,4.20357 12.91943,2.77046 1.30278,-1.35863 2.79882,-14.31396 3.32455,-28.78972 0.83135,-22.89617 2.15719,-28.88856 10.19462,-46.07494 5.75435,-12.3046 11.8662,-21.16187 16.20474,-23.48373 6.31133,-3.37775 7.4583,-3.11976 12.20908,2.74718 3.64127,4.49679 5.24326,10.87571 5.24326,20.8764 0,8.07467 1.72943,16.7635 3.93671,19.77886 3.78134,5.16569 4.35516,4.92721 14.54491,-6.04735 11.04149,-11.8917 27.25732,-17.66467 49.62002,-17.66467 11.89169,0 28.38723,6.61519 30.54996,12.25097 3.28421,8.55828 -10.86397,38.13148 -24.42148,51.04758 -7.17172,6.83217 -12.39659,13.46243 -11.61089,14.73352 0.78548,1.27131 8.36635,2.31123 16.84639,2.31123 19.32583,0 55.4996,15.33637 70.91265,30.06413 19.98432,19.09644 20.57343,43.96718 2.45796,103.76431 -15.44476,50.98074 -27.66093,73.75386 -59.05466,110.08778 -7.29628,8.44429 -17.61479,24.7664 -22.93053,36.27131 -5.31551,11.50492 -11.69311,22.60147 -14.17233,24.65903 -2.47923,2.05752 -8.21231,9.12556 -12.74012,15.70666 -16.5372,24.0359 -55.72988,34.28848 -89.02259,23.28772 z m 28.05543,-18.87369 c 2.21659,-3.96065 3.34406,-4.13323 7.02788,-1.07585 4.96732,4.12251 15.28118,2.36609 25.52678,-4.34716 5.21024,-3.4138 6.63758,-6.78299 6.63758,-15.66641 0,-8.80232 0.73894,-10.57849 3.32455,-7.99275 8.28234,8.28228 18.94373,-2.74964 13.13906,-13.59563 -4.14593,-7.74687 0.70858,-13.3061 7.03475,-8.05583 5.17854,4.29782 4.55708,4.87629 13.35073,-12.42518 3.87222,-7.61876 10.2558,-18.1463 14.18564,-23.39453 3.92962,-5.2482 7.1449,-12.83234 7.1449,-16.8536 0,-8.99934 2.53929,-11.87561 7.12473,-8.07004 2.52932,2.09917 5.09233,1.15539 9.3903,-3.45797 4.69161,-5.03594 5.55821,-8.43618 4.19935,-16.47922 -1.65075,-9.77075 1.92359,-16.6593 5.57705,-10.74788 3.21883,5.20829 6.8089,2.87929 12.37264,-8.02672 10.84136,-21.25053 22.8636,-62.83954 25.87542,-89.51175 l 3.04197,-26.93683 -8.32468,-10.46436 c -12.28155,-15.4381 -37.47034,-27.97365 -56.76559,-28.25003 -16.82909,-0.24092 -32.96624,4.08366 -32.96624,8.83466 0,1.63568 1.71436,4.94205 3.8095,7.3477 2.09513,2.40564 5.85785,13.75544 8.36168,25.22203 l 4.55242,20.84804 -6.97646,14.46179 c -3.83719,7.95387 -6.97668,16.12983 -6.97668,18.16911 0,11.56279 -9.504,3.23589 -16.67771,-14.61184 -4.69094,-11.67095 -18.50778,-27.85508 -23.78096,-27.85508 -2.12771,0 -3.86866,2.49341 -3.86866,5.54092 0,3.0475 -1.24671,5.54092 -2.77046,5.54092 -3.53245,0 -3.6262,-7.45542 -0.1219,-9.6217 4.03578,-2.4943 0.58822,-8.66909 -6.69166,-11.98611 -5.32149,-2.42448 -7.39202,-1.98808 -11.35866,2.39523 -6.23242,6.88692 -15.24239,6.81954 -24.14155,-0.18174 -8.43017,-6.63115 -11.3048,-6.88204 -15.86675,-1.38523 -4.67653,5.63489 -7.38604,5.22309 -9.11414,-1.38523 -2.27399,-8.69614 -17.90958,-7.0609 -41.62337,4.35339 -24.65908,11.86931 -38.32697,25.20607 -46.03993,44.92487 -10.82894,27.68441 -5.63577,67.98838 9.65827,74.95681 4.08277,1.8602 6.77587,5.41935 6.77587,8.95459 0,5.89698 15.14798,32.08264 27.3001,47.19217 3.58697,4.45988 11.18445,17.74847 16.88362,29.53021 9.74891,20.15386 19.53683,33.13772 19.53683,25.91622 0,-1.71033 1.73674,-3.10968 3.85936,-3.10968 4.70003,0 8.71387,9.1995 4.61049,10.56724 -4.37711,1.45904 -3.53577,7.6411 1.62637,11.94983 6.05378,5.05292 25.77102,12.85207 33.40087,13.21163 3.35269,0.15803 7.28386,-1.83557 8.73581,-4.43016 z m -23.86185,-11.86771 c -4.4591,-7.14034 -4.36114,-11.11945 0.27417,-11.11945 3.05393,0 10.14121,10.73981 10.14121,15.36789 0,3.56084 -7.43148,0.52951 -10.41538,-4.24844 z m 32.57904,-15.50599 c 0,-4.89243 5.96425,-4.04042 7.67661,1.09663 0.60308,1.80945 -0.87746,3.28991 -3.28997,3.28991 -2.41274,0 -4.38664,-1.97394 -4.38664,-4.38654 z m -27.44793,-17.29755 c -3.74034,-6.98905 -3.88041,-11.56141 -0.35417,-11.56141 4.46952,0 9.28635,11.31253 6.15175,14.44716 -1.8469,1.84699 -3.77935,0.88507 -5.79758,-2.88575 z m 45.91781,-7.86746 c -3.37442,-3.37424 -1.90918,-9.23487 2.30856,-9.23487 2.30879,0 4.15569,2.46265 4.15569,5.54092 0,5.51942 -2.95198,7.20629 -6.46425,3.69395 z m -77.6052,-5.98993 c -5.3,-5.85633 -6.00414,-11.55631 -1.42756,-11.55631 3.78688,0 10.48319,8.30805 10.60664,13.15967 0.12633,4.96662 -3.86423,4.26957 -9.17908,-1.60336 z m 50.96292,-16.83749 c -3.82656,-7.14998 -3.67341,-8.57112 0.92311,-8.57112 4.37068,0 7.95587,10.31819 4.35782,12.54191 -1.30433,0.80605 -3.68072,-0.98078 -5.28093,-3.97079 z m 73.39653,-5.60921 c -0.87657,-1.41847 -0.32691,-3.36212 1.22167,-4.31921 1.54857,-0.95707 2.81567,0.20324 2.81567,2.57903 0,4.86639 -1.6625,5.58292 -4.03734,1.74018 z m -151.10834,-7.34845 c 0,-4.89243 5.96424,-4.04042 7.67661,1.09664 0.60307,1.80944 -0.87746,3.2899 -3.28998,3.2899 -2.41273,0 -4.38663,-1.97394 -4.38663,-4.38654 z m 44.32734,1.61608 c 0,-1.52375 1.2467,-2.77045 2.77045,-2.77045 1.52376,0 2.77046,1.2467 2.77046,2.77045 0,1.52376 -1.2467,2.77046 -2.77046,2.77046 -1.52375,0 -2.77045,-1.2467 -2.77045,-2.77046 z m 88.65467,-2.93395 c 0,-1.6137 1.24671,-2.16347 2.77046,-1.22173 1.52375,0.94173 2.77046,2.26202 2.77046,2.93398 0,0.67194 -1.24671,1.2217 -2.77046,1.2217 -1.52375,0 -2.77046,-1.32028 -2.77046,-2.93395 z m -33.2455,-5.37742 c 0,-3.04751 1.2467,-5.54092 2.77046,-5.54092 1.52375,0 2.77045,2.49341 2.77045,5.54092 0,3.0475 -1.2467,5.54092 -2.77045,5.54092 -1.52376,0 -2.77046,-2.49342 -2.77046,-5.54092 z m -73.03062,-4.69274 c -3.42495,-3.42486 -1.72522,-11.93001 2.38392,-11.93001 2.28574,0 4.15569,2.41983 4.15569,5.37741 0,5.78259 -3.65124,9.44106 -6.53961,6.5526 z m -53.02525,-11.93001 c -2.25936,-3.65568 1.05344,-8.84348 4.34719,-6.80782 3.36488,2.07971 3.34316,9.57828 -0.0288,9.57828 -1.43377,0 -3.37752,-1.24671 -4.31925,-2.77046 z m 94.22352,-2.72527 c -2.04327,-3.30618 0.5501,-8.35657 4.29133,-8.35657 3.37109,0 3.39281,7.49859 0.0288,9.5783 -1.41847,0.87668 -3.36223,0.32687 -4.31925,-1.22173 z m 52.99732,0.80299 c -3.31125,-3.31114 -1.78905,-9.15956 2.38393,-9.15956 2.28573,0 4.15568,1.79648 4.15568,3.99219 0,4.62846 -3.95422,7.75287 -6.53961,5.16737 z m 33.00525,-0.61154 c -0.89209,-1.44334 -0.44106,-3.35407 1.00246,-4.24607 1.4433,-0.89202 3.35403,-0.44097 4.2459,1.00235 0.89208,1.44332 0.44105,3.35405 -1.00224,4.24607 -1.4433,0.89202 -3.35403,0.44097 -4.24612,-1.00235 z M 386.19303,440.7286 c -3.1878,-3.18777 -2.01756,-6.46441 2.30857,-6.46441 2.28573,0 4.15568,1.87006 4.15568,4.15569 0,4.32628 -3.27667,5.49652 -6.46425,2.30872 z m 38.83252,-11.03566 c -1.04125,-1.04121 -1.89322,-4.44592 -1.89322,-7.56597 0,-5.34847 0.27039,-5.40239 4.7295,-0.94329 3.22659,3.22637 3.82811,5.63106 1.89322,7.56597 -1.5601,1.56006 -3.68825,1.98451 -4.7295,0.94329 z m -62.8739,-12.10875 c -3.85492,-7.20279 -0.93508,-12.50456 4.43296,-8.04944 4.41633,3.66525 5.32039,13.64761 1.23607,13.64761 -1.47012,0 -4.02116,-2.51917 -5.66903,-5.59817 z m 38.1275,-4.54964 c -0.7232,-1.27559 -2.13436,-5.74764 -3.13594,-9.93813 -1.33159,-5.57128 -0.77085,-7.61876 2.08715,-7.61876 4.72508,0 8.64295,13.59675 4.97486,17.26501 -1.43621,1.43612 -3.20287,1.56746 -3.92607,0.29188 z m 78.26235,-3.70459 c 0,-5.39996 2.93846,-7.21982 6.27365,-3.88463 2.21924,2.21925 -0.68553,9.42565 -3.79952,9.42565 -1.36085,0 -2.47413,-2.49341 -2.47413,-5.54102 z m 77.57284,2.77057 c 0,-1.52387 1.17312,-2.77057 2.60689,-2.77057 1.43399,0 3.37752,1.2467 4.31925,2.77057 0.94174,1.52375 -0.23138,2.77045 -2.60689,2.77045 -2.3755,0 -4.31925,-1.2467 -4.31925,-2.77045 z m -28.62793,-7.38793 c -3.1878,-3.1878 -2.01755,-6.46448 2.30857,-6.46448 2.28574,0 4.15569,1.87017 4.15569,4.15569 0,4.32635 -3.27668,5.49659 -6.46426,2.30879 z M 339.01988,393.55541 c -3.31126,-3.31103 -1.78906,-9.15958 2.38392,-9.15958 2.28574,0 4.15569,1.79659 4.15569,3.99234 0,4.62844 -3.95422,7.75285 -6.53961,5.16724 z m 109.04657,-6.38912 c 0,-3.57079 1.40296,-5.53494 3.46308,-4.8483 1.90474,0.63498 3.46307,2.81678 3.46307,4.8483 0,2.03174 -1.55833,4.21353 -3.46307,4.8483 -2.06012,0.68685 -3.46308,-1.27729 -3.46308,-4.8483 z m 48.48303,0 c -1.10575,-1.78928 -0.76398,-4.49989 0.75977,-6.02364 1.84712,-1.8469 3.44069,-1.68599 4.78115,0.48272 1.10574,1.78949 0.76398,4.50011 -0.75977,6.02386 -1.84712,1.8469 -3.44069,1.68599 -4.78115,-0.48294 z M 378.80499,375.85373 c 0,-6.75172 6.47401,-5.79735 7.822,1.15295 0.53016,2.73389 -0.88322,4.61869 -3.46307,4.61869 -2.5701,0 -4.35893,-2.36863 -4.35893,-5.77164 z m 40.63354,3.92474 c -3.48524,-3.48523 -1.8469,-12.00539 2.30857,-12.00539 2.58583,0 4.15569,2.61664 4.15569,6.92614 0,6.72646 -2.69754,8.84597 -6.46426,5.07925 z m 157.91592,0 c -3.1878,-3.1878 -2.01756,-6.46448 2.30879,-6.46448 2.28551,0 4.15568,1.87018 4.15568,4.15569 0,4.32635 -3.27667,5.49659 -6.46447,2.30879 z m -26.78103,-9.07137 c 0,-1.43376 1.24671,-3.37752 2.77046,-4.31925 1.52375,-0.94174 2.77046,0.23139 2.77046,2.60711 0,2.3755 -1.24671,4.31903 -2.77046,4.31903 -1.52375,0 -2.77046,-1.17312 -2.77046,-2.60689 z m -195.5711,-6.75216 c -2.26579,-5.90462 -0.3626,-13.52538 3.71685,-14.88357 2.26136,-0.7529 3.46307,1.7547 3.46307,7.22558 0,9.24513 -4.66257,14.21822 -7.17992,7.65799 z m 237.12798,1.04768 c 0,-1.52375 1.24671,-2.77046 2.77046,-2.77046 1.52375,0 2.77046,1.24671 2.77046,2.77046 0,1.52375 -1.24671,2.77046 -2.77046,2.77046 -1.52375,0 -2.77046,-1.24671 -2.77046,-2.77046 z m -265.96402,-4.15569 c 0,-2.28552 1.87017,-4.15569 4.15569,-4.15569 2.28574,0 4.15568,1.87017 4.15568,4.15569 0,2.28574 -1.86994,4.15569 -4.15568,4.15569 -2.28552,0 -4.15569,-1.86995 -4.15569,-4.15569 z m 152.37522,-1.54857 c 0,-1.61374 1.24671,-2.16362 2.77046,-1.22189 1.52375,0.94174 2.77046,2.26203 2.77046,2.93403 0,0.672 -1.24671,1.22166 -2.77046,1.22166 -1.52375,0 -2.77046,-1.32029 -2.77046,-2.9338 z m -88.65467,-5.37758 c 0,-3.07809 1.84712,-5.54091 4.15568,-5.54091 2.30879,0 4.15569,2.46282 4.15569,5.54091 0,3.07832 -1.8469,5.54092 -4.15569,5.54092 -2.30856,0 -4.15568,-2.4626 -4.15568,-5.54092 z m 18.13276,-17.31536 c 3.98835,-13.20113 11.31211,-14.132 8.02103,-1.01953 -1.00113,3.98924 -3.63928,7.25306 -5.86229,7.25306 -2.90278,0 -3.51139,-1.75691 -2.15874,-6.23353 z m 37.27641,3.46307 c 0,-1.52375 1.87017,-2.77046 4.15568,-2.77046 2.28574,0 4.15569,1.24671 4.15569,2.77046 0,1.52375 -1.86995,2.77046 -4.15569,2.77046 -2.28551,0 -4.15568,-1.24671 -4.15568,-2.77046 z m -102.04752,-5.70781 c 0.50932,-3.47881 2.58916,-6.87339 4.62201,-7.5434 2.51137,-0.82759 3.39947,0.80919 2.77046,5.10695 -0.5091,3.47881 -2.58894,6.8734 -4.62201,7.54341 -2.51136,0.82759 -3.39946,-0.8092 -2.77046,-5.10696 z m 33.21403,1.40828 c 0.52661,-2.71571 2.63482,-5.49637 4.68496,-6.17901 2.38437,-0.79412 3.38262,0.53814 2.77046,3.69646 -0.52639,2.71571 -2.6346,5.49637 -4.68496,6.17901 -2.38414,0.7939 -3.38262,-0.53814 -2.77046,-3.69646 z m 219.94161,1.72057 c -1.89233,-3.06191 2.4779,-6.36829 5.03625,-3.80994 2.63415,2.63393 2.14323,6.3889 -0.83535,6.3889 -1.43377,0 -3.32411,-1.16049 -4.2009,-2.57896 z M 497.93471,332.979 c 0,-2.37572 1.2671,-3.53621 2.81567,-2.57919 1.54858,0.95725 2.09846,2.90078 1.22166,4.31926 -2.37483,3.84274 -4.03733,3.12618 -4.03733,-1.74007 z m 69.26146,-5.54092 c 0,-2.37572 1.24671,-3.54884 2.77046,-2.60711 1.52375,0.94173 2.77046,2.88549 2.77046,4.31926 0,1.43376 -1.24671,2.60689 -2.77046,2.60689 -1.52375,0 -2.77046,-1.94354 -2.77046,-4.31904 z M 398.62485,312.44835 c 0.52728,-3.61711 2.51691,-7.08971 4.42165,-7.71695 4.98461,-1.64166 4.26939,6.28518 -0.95858,10.62394 -3.86068,3.20398 -4.30019,2.83495 -3.46307,-2.90699 z m 32.81885,-0.0842 c 0,-3.07809 1.84712,-5.54092 4.15569,-5.54092 2.30879,0 4.15569,2.46283 4.15569,5.54092 0,3.07831 -1.8469,5.54092 -4.15569,5.54092 -2.30857,0 -4.15569,-2.46261 -4.15569,-5.54092 z m 178.00197,3.55106 c -4.72264,-1.69397 -4.40038,-9.09198 0.39606,-9.09198 4.17985,0 8.22449,7.4348 5.02384,9.23405 -1.07627,0.60507 -3.51538,0.54124 -5.4199,-0.14185 z m -241.72251,-2.14478 c 0,-3.90324 5.91304,-12.48812 8.60149,-12.48812 4.86914,0 1.39188,12.35403 -3.75319,13.33455 -2.66651,0.50822 -4.8483,0.12855 -4.8483,-0.84643 z m 215.12788,-22.09584 c -2.04394,-5.32616 3.68493,-8.81339 6.63558,-4.03911 2.43867,3.9458 1.01975,8.10592 -2.76448,8.10592 -1.27086,0 -3.0127,-1.83006 -3.8711,-4.06681 z m -34.49399,-13.11004 c -3.75762,-3.75762 -4.47019,-10.52774 -1.10818,-10.52774 3.45266,0 8.86547,6.2588 8.86547,10.2507 0,4.50587 -3.40678,4.62755 -7.75729,0.27704 z m 25.91133,-13.06149 c -0.89187,-1.4433 -0.44084,-3.35403 1.00246,-4.24611 1.4433,-0.89187 3.35403,-0.44084 4.24612,1.00246 0.89186,1.4433 0.44083,3.35403 -1.00247,4.24611 -1.44329,0.89187 -3.35402,0.44084 -4.24611,-1.00246 z m -49.39041,32.74948 c -2.27709,-25.11299 -16.34881,-37.1882 -30.92009,-26.53324 -4.36624,3.19268 -4.56017,4.57148 -1.45859,10.36684 4.36203,8.15047 28.03017,33.01278 31.44692,33.03362 1.35442,0 1.77376,-7.58197 0.93176,-16.86722 z M 420.36187,260.0991 c 0,-1.3183 -2.52777,-5.61052 -5.61738,-9.53836 -6.26811,-7.96828 -23.73109,-11.89835 -36.57936,-8.23181 -12.80817,3.65501 -9.01973,7.45032 13.58344,13.60871 25.34726,6.90598 28.6133,7.38117 28.6133,4.16146 z m 35.49755,-23.29779 c 1.61174,-1.94198 5.02029,-9.68663 7.57466,-17.21031 3.8762,-11.41695 4.12355,-15.98798 1.49605,-27.63676 -4.21132,-18.67068 -7.19256,-23.35142 -11.88416,-18.65982 -2.35379,2.35378 -3.90436,14.33147 -4.56993,35.3003 -0.98207,30.93405 0.48095,36.52329 7.38338,28.20659 z m 73.17912,-28.6113 c 19.81476,-16.65334 28.08602,-30.14348 21.28443,-34.71429 -5.65705,-3.80173 -30.46928,-0.25665 -38.35223,5.47975 -5.87869,4.27758 -14.60364,17.41177 -25.47182,38.34381 -1.72965,3.33142 -2.41783,7.95144 -1.52929,10.26687 2.72258,7.09526 23.37801,-1.98653 44.06891,-19.37614 z m 113.10164,316.5492 c -28.45704,-28.60115 -31.40149,-32.56747 -28.93955,-38.98321 3.76783,-9.81857 13.45579,-4.13321 40.39395,23.70487 14.95494,15.45423 27.19061,29.54202 27.19061,31.30618 0,4.09522 -5.71069,9.85662 -9.76996,9.85662 -1.71636,0 -14.71025,-11.648 -28.87505,-25.88446 z m 2.71106,-61.61621 c -12.65878,-5.4907 -19.47544,-11.89356 -19.47544,-18.29308 0,-8.32622 7.7001,-9.02845 22.57968,-2.05924 15.60633,7.30962 21.21063,14.55426 16.05958,20.76064 -4.09031,4.92869 -7.00217,4.86663 -19.16382,-0.40832 z M 299.57231,227.17253 c -8.81094,-7.23777 -22.9507,-16.8998 -31.42143,-21.47106 -12.00894,-6.48043 -15.5897,-9.93708 -16.2555,-15.69232 -2.03285,-17.57645 26.62256,-8.62587 55.88591,17.45611 19.5508,17.4253 22.64174,22.67365 16.79652,28.51888 -2.39146,2.39146 -5.39154,4.34807 -6.66683,4.34807 -1.2753,0 -9.5275,-5.92169 -18.33867,-13.15968 z m 41.83149,-85.33744 c -4.57126,-2.29638 -15.69742,-10.77598 -24.72468,-18.84333 -11.82919,-10.57118 -15.91573,-15.96449 -14.63179,-19.31032 3.03687,-7.914421 13.59675,-4.850959 34.92662,10.13212 24.86076,17.46342 28.78772,22.70713 21.21573,28.32983 -6.54981,4.86359 -6.48864,4.8647 -16.78588,-0.3083 z"
       id="path4140-0" />
  </g>
</svg>
