<?xml version="1.0" encoding="UTF-8" standalone="no"?>
<svg
   xmlns:dc="http://purl.org/dc/elements/1.1/"
   xmlns:cc="http://creativecommons.org/ns#"
   xmlns:rdf="http://www.w3.org/1999/02/22-rdf-syntax-ns#"
   xmlns:svg="http://www.w3.org/2000/svg"
   xmlns="http://www.w3.org/2000/svg"
   version="1.1"
   id="svg4481"
   viewBox="0 0 570.86615 514.69709"
   height="145.25896mm"
   width="161.11111mm">
  <defs
     id="defs4483" />
  <metadata
     id="metadata4486">
    <rdf:RDF>
      <cc:Work
         rdf:about="">
        <dc:format>image/svg+xml</dc:format>
        <dc:type
           rdf:resource="http://purl.org/dc/dcmitype/StillImage" />
        <dc:title></dc:title>
      </cc:Work>
    </rdf:RDF>
  </metadata>
  <g
     transform="translate(35.433071,-573.09814)"
     id="layer1">
    <path
       style="fill:#7ac29e"
       d="m 270.59662,1050.153 c -7.55517,-1.4883 -16.30765,-3.997 -19.45014,-5.5748 -3.14282,-1.5778 -14.92707,-5.354 -26.18767,-8.3915 -26.93817,-7.2664 -32.98335,-10.1118 -36.68289,-17.2656 -2.76315,-5.3432 -4.32604,-6.0618 -14.93608,-6.8663 -14.99962,-1.1373 -46.55668,-16.48486 -64.83933,-31.53429 -6.97027,-5.73754 -15.404178,-11.33649 -18.742238,-12.44213 -7.58858,-2.51359 -15.285925,-13.58261 -15.270364,-21.95934 0,-3.49318 0.924434,-11.87916 2.039685,-18.63553 1.779094,-10.77845 1.589261,-12.60259 -1.547494,-14.8808 -8.217543,-5.96813 -34.067643,-26.27273 -36.630476,-28.77236 -1.525547,-1.488 -2.773795,-5.03443 -2.773795,-7.88093 0,-8.25733 -13.435586,-28.07989 -22.476013,-33.16099 C 6.083022,838.84481 4.827894,836.94472 2.566764,826.84109 L 0,815.37081 8.315489,807.61418 c 10.712566,-9.99259 19.084727,-12.16159 46.995969,-12.17554 29.143934,-0.0147 51.098922,-4.18704 80.586162,-15.31495 57.88003,-21.84285 108.77192,-51.54643 134.90161,-78.73697 9.26138,-9.63731 25.20215,-34.85636 35.67672,-56.44228 8.66486,-17.85682 15.66822,-27.50076 22.55726,-31.06325 3.61977,-1.87189 14.16789,-3.58487 26.13509,-4.24431 l 20.06567,-1.10567 10.85244,11.28375 c 7.98726,8.30464 16.39316,14.06234 31.83829,21.8082 18.94125,9.4992 20.98667,11.07113 20.99551,16.13611 0,3.44049 5.17939,13.53297 13.37105,26.08547 7.34847,11.26061 16.18989,26.43208 19.64751,33.71437 3.45763,7.28227 8.84274,16.95616 11.96688,21.49754 12.54866,18.2409 17.25912,41.30744 15.8551,77.64141 -2.71778,70.34239 -25.24309,129.75681 -63.78058,168.23348 -50.28374,50.20426 -114.02076,75.33986 -165.38355,65.22146 z m 52.63659,-19.0471 c 20.34477,-5.3874 49.80891,-18.9455 64.2089,-29.5462 45.79899,-33.71531 71.12905,-67.74356 84.098,-112.97649 10.69897,-37.31614 14.85974,-65.98133 13.37252,-92.13231 -1.59433,-28.03344 -2.89811,-32.4466 -16.33124,-55.27939 -5.9623,-10.13456 -12.08316,-20.83939 -13.60199,-23.78856 -8.49239,-16.49199 -13.22954,-24.13708 -19.51337,-31.49082 -3.84908,-4.50425 -7.94598,-9.38018 -9.10447,-10.83542 -2.4377,-3.06213 -8.69892,-1.71646 -15.95632,3.42921 -8.73332,6.19227 -9.47333,9.06017 -6.24125,24.1905 1.88556,8.82785 2.89042,24.42047 2.74464,42.58984 -0.22799,28.43984 -0.30465,28.887 -9.83481,57.32679 -5.28274,15.76486 -10.94335,30.72563 -12.57929,33.24612 -1.63561,2.52049 -6.78535,11.73372 -11.44405,20.47385 -27.32913,51.274 -84.18677,105.11593 -128.45301,121.63963 -19.27259,7.19412 -19.88845,7.84151 -16.91139,17.77821 1.31508,4.38954 2.39118,11.21624 2.39118,15.17044 0,3.9542 1.15162,8.0957 2.55923,9.2034 1.40746,1.1077 10.85114,4.8841 20.98568,8.3919 22.50894,7.7908 46.62925,8.695 69.61104,2.6093 z m -64.15992,-22.5017 c -1.50605,-0.9547 -2.42738,-3.9349 -2.04738,-6.6227 0.58637,-4.14729 3.47973,-5.85569 19.11748,-11.28799 10.13455,-3.52058 23.95439,-9.65047 30.71076,-13.62195 12.16653,-7.15166 15.39714,-9.87891 42.75051,-36.0894 13.2695,-12.71486 34.02637,-37.86892 34.02637,-41.23442 0,-0.84303 3.6825,-7.59447 8.18347,-15.00317 9.68953,-15.9493 22.63587,-44.62796 31.0783,-68.84352 5.30944,-15.22956 6.05059,-20.12109 5.93512,-39.17094 -0.1556,-25.68145 2.21429,-30.30473 11.01984,-21.49917 4.93649,4.9364 5.20314,6.34351 5.17398,27.30704 -0.0328,24.26708 -4.22432,41.47923 -15.8492,65.09753 -3.32561,6.75637 -7.10852,15.54381 -8.40672,19.52762 -3.79962,11.66073 -29.7231,56.09683 -40.97699,70.23979 -5.69501,7.15703 -15.68247,17.47745 -22.19446,22.93426 -6.51215,5.45681 -15.5742,13.65624 -20.13839,18.22099 -17.71446,17.71676 -67.64097,36.85483 -78.38269,30.04603 z m -47.42248,-1.2727 c 0,-1.6891 -1.38206,-3.0711 -3.07107,-3.0711 -1.68918,0 -3.07108,1.382 -3.07108,3.0711 0,1.6891 1.3819,3.0711 3.07108,3.0711 1.68901,0 3.07107,-1.382 3.07107,-3.0711 z m -25.4896,-18.9383 c 2.62721,-12.28246 4.43677,-14.38971 13.58071,-15.81711 17.01703,-2.65639 43.7516,-11.76685 55.92764,-19.05874 36.13763,-21.64199 80.32328,-67.30604 101.46292,-104.85815 4.12065,-7.3194 9.87314,-17.45395 12.7837,-22.52123 2.91056,-5.06727 8.63521,-19.31858 12.72146,-31.66959 12.18946,-36.84349 13.51109,-74.5602 3.89052,-111.04297 -0.90036,-3.41537 -17.00524,-11.36515 -20.39145,-10.0658 -3.96472,1.52148 -8.32892,11.05974 -9.9493,21.74574 -0.76834,5.06729 -4.11049,18.03333 -7.42693,28.81347 -4.95548,16.10803 -9.29184,24.54924 -24.33864,47.37699 -20.23977,30.7064 -36.39543,49.53221 -59.53906,69.37962 -33.65456,28.8614 -85.63501,62.40402 -107.48763,69.3613 -4.50425,1.43402 -11.87483,4.17087 -16.37907,6.08186 -4.50424,1.911 -10.49292,4.42317 -13.308,5.58256 -4.75058,1.95651 -5.12337,3.12287 -5.18594,16.22949 -0.0377,7.77423 -1.4176,17.20865 -3.07107,20.98985 -2.94185,6.72691 -2.87011,6.97989 3.47858,12.28431 3.56524,2.97877 14.16053,9.32172 23.54492,14.09546 13.57513,6.9055 19.25179,8.68399 27.77235,8.70138 10.03381,0.0205 10.78578,-0.33357 11.91429,-5.60844 z m -49.7067,-37.79611 c -5.49665,-2.65292 -7.88079,-8.98583 -4.78646,-12.71436 1.2381,-1.49174 7.99381,-3.34945 15.01273,-4.12824 27.97873,-3.10441 80.80859,-25.67987 109.78824,-46.91517 22.24212,-16.29816 44.72288,-36.59816 52.26168,-47.1918 3.28416,-4.61508 10.14535,-12.7531 15.24711,-18.08444 5.10159,-5.33135 12.1436,-15.40021 15.64856,-22.37524 7.83493,-15.5918 11.4606,-18.3386 17.26878,-13.08232 2.31813,2.0978 4.21466,5.00268 4.21466,6.45532 0,6.20514 -15.57387,33.36993 -24.53224,42.79037 -5.35415,5.6303 -11.92888,13.47325 -14.61046,17.42879 -9.81466,14.47595 -53.33761,51.39362 -74.08907,62.84465 -25.29092,13.95596 -61.74483,28.20034 -88.03373,34.39926 -14.76327,3.48115 -17.23897,3.54184 -23.3898,0.57318 z m -33.64376,-4.78345 c 3.34035,-7.33137 2.99131,-9.97284 -1.90357,-14.4027 -4.199588,-3.80062 -4.333738,-3.79923 -7.165838,0.0739 -5.32222,7.27836 -2.58544,19.54351 4.36043,19.54351 1.28314,0 3.402258,-2.34665 4.708978,-5.21479 z m 17.73149,-42.6232 c 22.71007,-6.094 49.64136,-18.60718 74.7295,-34.72178 35.92209,-23.0737 48.4714,-33.08162 78.38384,-62.51147 19.60034,-19.2841 51.79585,-64.50872 57.17474,-80.31275 6.82253,-20.04604 9.5372,-30.18067 11.79506,-44.03521 2.32582,-14.27276 2.26555,-14.69079 -3.53772,-24.5681 -8.2747,-14.08401 -11.43128,-13.92948 -18.62054,0.91159 -3.26763,6.74564 -7.7794,14.87024 -10.02629,18.05472 -2.24688,3.18445 -6.58438,10.74921 -9.63859,16.81056 -13.34812,26.48992 -45.91609,52.41311 -98.36465,78.29587 -6.75637,3.3342 -16.77381,8.44288 -22.26129,11.35264 -14.93787,7.92121 -49.67263,21.04678 -64.75252,24.46879 -7.31947,1.66097 -22.981958,3.98385 -34.805518,5.16196 -28.863846,2.876 -31.123502,3.87918 -30.321747,13.46063 0.587681,7.02524 1.23924,7.71694 8.824223,9.36875 11.811438,2.57225 45.445362,-0.0852 63.943062,-5.05215 8.74757,-2.3489 19.12944,-4.97651 23.07074,-5.83915 10.19761,-2.23204 44.10228,-16.67918 56.90498,-24.24781 5.96132,-3.52422 11.21802,-6.40771 11.68122,-6.40771 0.46336,0 11.34496,-6.45935 24.18173,-14.35411 19.60493,-12.05743 26.0894,-17.45393 40.52689,-33.72728 9.45335,-10.65519 19.14533,-21.90146 21.53782,-24.99167 3.92606,-5.07084 4.87425,-5.37981 9.72507,-3.16956 10.61102,4.83466 6.46204,14.70696 -18.15718,43.20416 -15.41286,17.84082 -19.56316,21.23668 -43.33442,35.45732 -42.73021,25.56229 -83.56142,44.68699 -102.04242,47.79516 -4.50424,0.75753 -13.75252,3.03812 -20.55164,5.06803 -18.66313,5.57192 -54.909021,7.3121 -66.341774,3.1851 -7.875547,-2.84293 -9.483972,-2.89125 -12.014374,-0.36087 -2.530239,2.53037 -2.207898,4.42997 2.409197,14.18962 6.420759,13.57239 23.782571,28.36855 39.171853,33.38311 5.6303,1.83464 11.112048,4.14379 12.181928,5.13142 2.64211,2.43928 6.48529,2.23189 18.52882,-0.99981 z M 29.433677,825.11428 c 0,-3.96261 -4.01926,-6.01294 -6.64335,-3.38893 -1.557322,1.55734 -1.438574,3.09917 0.410459,5.32701 2.886156,3.4778 6.232891,2.43721 6.232891,-1.93808 z M 403.55338,664.01786 c 5.93365,-2.45934 10.7884,-5.68397 10.7884,-7.16585 0,-1.48189 -0.80323,-2.69435 -1.78483,-2.69435 -3.41536,0 -33.80721,-20.92127 -37.84072,-26.04915 -3.80879,-4.84199 -4.93976,-5.09947 -18.22499,-4.14891 -19.51075,1.39599 -21.75697,4.02604 -13.95104,16.33475 3.31578,5.22827 8.45111,11.09325 11.41196,13.03332 4.21318,2.76063 33.05738,14.19529 37.82877,14.99646 0.54116,0.0909 5.83881,-1.84694 11.77245,-4.30627 z"
       id="path4140-2" />
  </g>
</svg>
