<svg xmlns="http://www.w3.org/2000/svg" viewBox="0 0 570.87 514.7">
  <path fill="#7ac29e" d="M306.03 477.05c-7.56-1.48-16.3-4-19.45-5.57-3.14-1.58-14.93-5.35-26.2-8.4-26.93-7.26-32.97-10.1-36.67-17.26-2.7-5.34-4.3-6.06-14.9-6.86-15-1.14-46.5-16.5-64.8-31.54-6.9-5.74-15.4-11.33-18.7-12.44-7.6-2.5-15.3-13.58-15.2-21.96 0-3.5 1-11.88 2.1-18.63 1.8-10.8 1.6-12.7-1.5-14.9-8.2-6-34-26.3-36.6-28.8-1.5-1.5-2.8-5.1-2.8-7.9 0-8.3-13.4-28.1-22.4-33.2-7-4-8.3-5.9-10.5-16l-2.6-11.5 8.3-7.8c10.7-10 19.1-12.2 47-12.2 29.2 0 51.1-4.2 80.6-15.3 57.8-21.8 108.7-51.5 134.9-78.7 9.3-9.6 25.2-34.8 35.7-56.4 8.7-17.9 15.7-27.5 22.6-31.1 3.7-1.9 14.2-3.6 26.2-4.2l20.1-1.1L422 46.6c8 8.3 16.4 14 31.9 21.8 18.9 9.5 20.94 11 21 16.1 0 3.4 5.13 13.5 13.32 26.1 7.34 11.2 16.2 26.4 19.64 33.7 3.5 7.3 8.9 16.9 12 21.5 12.5 18.2 17.2 41.3 15.8 77.6-2.7 70.3-25.24 129.8-63.8 168.2-50.26 50.2-114 75.4-165.36 65.2zM358.67 458c20.34-5.38 49.8-18.94 64.2-29.54 45.8-33.7 71.13-67.74 84.1-112.97 10.7-37.4 14.86-66 13.38-92.2-1.6-28.1-2.9-32.5-16.34-55.3-5.9-10.2-12-20.9-13.6-23.8-8.4-16.5-13.2-24.1-19.5-31.5-3.8-4.5-7.9-9.4-9.1-10.9-2.4-3.1-8.7-1.7-15.9 3.4-8.7 6.2-9.5 9-6.2 24.2 1.9 8.8 2.9 24.4 2.8 42.6-.2 28.4-.3 28.9-9.8 57.3-5.3 15.8-10.9 30.7-12.5 33.2-1.6 2.5-6.8 11.7-11.4 20.4-27.3 51.3-84.2 105.1-128.4 121.6-19.2 7.2-19.9 7.8-16.9 17.7 1.3 4.4 2.4 11.2 2.4 15.2 0 3.9 1.2 8.1 2.6 9.2 1.4 1.1 10.9 4.9 21 8.4 22.5 7.8 46.6 8.7 69.6 2.6zm-64.16-22.5c-1.5-.95-2.4-3.93-2-6.62.6-4.14 3.5-5.85 19.1-11.28 10.2-3.53 24-9.66 30.7-13.63 12.2-7.15 15.4-9.88 42.8-36.1 13.3-12.7 34-37.85 34-41.22 0-.84 3.7-7.6 8.2-15 9.7-15.95 22.6-44.63 31.1-68.85 5.3-15.23 6.1-20.12 6-39.17-.1-25.68 2.2-30.3 11-21.5 5 4.94 5.2 6.35 5.2 27.3 0 24.28-4.2 41.5-15.8 65.1-3.3 6.76-7.1 15.55-8.4 19.53-3.8 11.67-29.7 56.1-40.9 70.24-5.7 7.16-15.6 17.48-22.2 22.94-6.5 5.46-15.5 13.66-20.1 18.22-17.7 17.72-67.6 36.85-78.4 30.05zm-47.4-1.27c0-1.7-1.4-3.07-3-3.07-1.7 0-3 1.38-3 3.07 0 1.7 1.4 3.07 3.1 3.07 1.7 0 3.1-1.38 3.1-3.07zm-25.5-18.93c2.7-12.3 4.5-14.4 13.6-15.82 17-2.66 43.8-11.77 55.9-19.06 36.2-21.64 80.4-67.3 101.5-104.86 4.1-7.32 9.9-17.45 12.8-22.52 2.9-5.07 8.7-19.32 12.7-31.67 12.2-36.84 13.5-74.56 3.9-111.04-.9-3.42-17-11.37-20.4-10.07-3.9 1.52-8.3 11.06-9.9 21.75-.7 5.1-4.1 18.1-7.4 28.9-4.9 16.1-9.3 24.6-24.3 47.4-20.2 30.7-36.4 49.6-59.5 69.4-33.6 28.9-85.6 62.4-107.5 69.4-4.5 1.5-11.8 4.2-16.3 6.1l-13.3 5.6c-4.8 2-5.1 3.2-5.2 16.3 0 7.8-1.4 17.2-3.1 21-2.9 6.7-2.8 7 3.5 12.3 3.6 3 14.2 9.4 23.6 14.1 13.6 6.9 19.3 8.7 27.8 8.7 10 0 10.8-.3 11.9-5.6zm-49.7-37.8c-5.5-2.65-7.8-9-4.8-12.72 1.3-1.5 8-3.34 15-4.12 28-3.1 80.9-25.68 109.8-46.92 22.3-16.3 44.8-36.6 52.3-47.2 3.3-4.6 10.2-12.74 15.3-18.08 5.1-5.33 12.2-15.4 15.7-22.37 7.9-15.6 11.5-18.4 17.3-13.1 2.3 2.1 4.2 5 4.2 6.4 0 6.2-15.5 33.3-24.5 42.8-5.3 5.6-11.9 13.4-14.6 17.4-9.8 14.5-53.3 51.4-74.1 62.8-25.2 13.9-61.7 28.2-88 34.4-14.7 3.5-17.2 3.5-23.4.5zm-33.6-4.78c3.4-7.34 3-9.98-1.9-14.4-4.2-3.8-4.3-3.8-7.1.07-5.3 7.2-2.6 19.5 4.4 19.5 1.3 0 3.4-2.4 4.7-5.2zM156 330.1c22.7-6.1 49.63-18.6 74.7-34.74 35.94-23.07 48.5-33.08 78.4-62.5 19.6-19.3 51.8-64.52 57.17-80.32 6.83-20.05 9.54-30.18 11.8-44.04 2.32-14.26 2.26-14.68-3.54-24.56-8.27-14.08-11.43-13.93-18.62.9-3.2 6.76-7.7 14.88-10 18.07-2.2 3.2-6.6 10.8-9.6 16.9-13.3 26.5-45.9 52.4-98.3 78.3-6.7 3.4-16.7 8.5-22.2 11.4-14.9 7.9-49.6 21.1-64.7 24.5-7.3 1.7-23 4-34.8 5.2-29 2.8-31.2 3.8-30.4 13.4.6 7 1.3 7.7 8.8 9.4 11.8 2.6 45.5-.1 64-5 8.8-2.3 19.2-5 23.1-5.8 10.2-2.2 44.1-16.7 56.9-24.2 6-3.5 11.2-6.4 11.7-6.4.4 0 11.3-6.4 24.2-14.3 19.6-12 26-17.4 40.5-33.7 9.4-10.6 19.1-21.9 21.5-25 3.9-5 4.9-5.4 9.7-3.1 10.6 4.9 6.4 14.7-18.2 43.2-15.4 17.9-19.6 21.3-43.3 35.5-42.7 25.6-83.5 44.7-102 47.8-4.5.8-13.7 3.1-20.5 5.1-18.6 5.6-54.9 7.3-66.3 3.2-7.9-2.8-9.5-2.9-12-.4-2.53 2.5-2.2 4.4 2.4 14.2 6.4 13.6 23.8 28.4 39.18 33.4 5.6 1.8 11.1 4.1 12.2 5.1 2.6 2.5 6.43 2.3 18.5-1zM64.87 252c0-3.97-4.03-6.02-6.66-3.4-1.5 1.56-1.4 3.1.4 5.33 2.9 3.48 6.3 2.44 6.3-1.93zm374.1-161.1c5.94-2.46 10.8-5.68 10.8-7.17 0-1.48-.8-2.7-1.8-2.7-3.4 0-33.8-20.9-37.83-26.04-3.8-4.9-4.94-5.1-18.23-4.2-19.5 1.4-21.7 4-13.9 16.3 3.3 5.2 8.5 11.1 11.4 13 4.2 2.7 33.1 14.2 37.8 15 .6.1 5.9-1.9 11.8-4.3z"/>
</svg>
