<?xml version="1.0" encoding="UTF-8" standalone="no"?>
<!-- Created with Inkscape (http://www.inkscape.org/) -->

<svg
   xmlns:dc="http://purl.org/dc/elements/1.1/"
   xmlns:cc="http://creativecommons.org/ns#"
   xmlns:rdf="http://www.w3.org/1999/02/22-rdf-syntax-ns#"
   xmlns:svg="http://www.w3.org/2000/svg"
   xmlns="http://www.w3.org/2000/svg"
   xmlns:sodipodi="http://sodipodi.sourceforge.net/DTD/sodipodi-0.dtd"
   xmlns:inkscape="http://www.inkscape.org/namespaces/inkscape"
   id="svg2"
   version="1.1"
   inkscape:version="0.91 r13725"
   width="2798.8647"
   height="312.853"
   viewBox="0 0 2798.8647 312.853"
   sodipodi:docname="fruits.svg">
  <metadata
     id="metadata8">
    <rdf:RDF>
      <cc:Work
         rdf:about="">
        <dc:format>image/svg+xml</dc:format>
        <dc:type
           rdf:resource="http://purl.org/dc/dcmitype/StillImage" />
        <dc:title></dc:title>
      </cc:Work>
    </rdf:RDF>
  </metadata>
  <defs
     id="defs6" />
  <sodipodi:namedview
     pagecolor="#ffffff"
     bordercolor="#666666"
     borderopacity="1"
     objecttolerance="10"
     gridtolerance="10"
     guidetolerance="10"
     inkscape:pageopacity="0"
     inkscape:pageshadow="2"
     inkscape:window-width="2014"
     inkscape:window-height="949"
     id="namedview4"
     showgrid="false"
     fit-margin-top="0"
     fit-margin-left="0"
     fit-margin-right="0"
     fit-margin-bottom="0"
     inkscape:zoom="0.53538085"
     inkscape:cx="1810.612"
     inkscape:cy="536.52619"
     inkscape:window-x="0"
     inkscape:window-y="25"
     inkscape:window-maximized="0"
     inkscape:current-layer="svg2" />
  <path
     inkscape:connector-curvature="0"
     id="path4140"
     d="m 59.9016,303.43576 c -1.4873,-4.98437 -3.3393,-13 -4.1154,-17.8125 -2.08,-12.89712 -1.305,-36.83862 1.5763,-48.69615 2.105,-8.66255 2.1892,-10.27128 0.6522,-12.46562 -2.7515,-3.92839 -2.1329,-7.07483 2.8439,-14.465 5.8211,-8.64384 26.0377,-29.62516 31.0094,-32.18244 2.0663,-1.06286 6.2883,-4.16717 9.382,-6.89846 3.0938,-2.7313 6.8591,-5.5372 8.3674,-6.23535 2.6626,-1.23243 2.7207,-1.70059 1.9974,-16.0854 l -0.7449,-14.81604 7.3775,-3.2664 c 9.7994,-4.33862 14.5423,-5.05237 16.6553,-2.50636 0.9811,1.18207 1.9269,6.65285 2.3091,13.35537 0.4475,7.84944 1.1638,11.5513 2.3209,11.99532 2.6118,1.00226 17.4997,-10.24894 29.4208,-22.2341 11.9328,-11.99695 14.6726,-13.56976 17.9421,-10.30021 1.8503,1.85032 2.0384,3.64559 1.3154,12.55621 -0.6513,8.02633 -0.4722,10.51645 0.7852,10.92015 0.8958,0.28761 5.75,1.77958 10.787,3.31547 6.438,1.96306 9.7796,3.71761 11.25,5.90698 1.1505,1.71293 5.8656,7.1054 10.4779,11.98323 8.1587,8.62824 20.6467,26.90702 24.42,35.7438 2.0705,4.84872 3.818,10.82773 8.5859,29.375 2.8004,10.89373 3.1201,14.13993 2.4881,25.2619 -1.0819,19.04128 -5.8048,30.00512 -20.3489,47.2381 l -7.3848,8.75 -7.3001,0.37979 -7.3002,0.37979 6.289,-6.62979 c 5.5718,-5.87382 14.266,-16.17337 18.7188,-22.17512 4.3032,-5.80023 7.6435,-19.63427 8.0244,-33.23463 0.4074,-14.54095 -2.0268,-26.98491 -8.0632,-41.22004 -2.9332,-6.91723 -12.0879,-22.63362 -17.0605,-29.28882 -4.3324,-5.79819 -17.1559,-15.08618 -20.8289,-15.08618 -4.0147,0 -19.2507,6.18697 -19.2507,7.8172 0,0.71574 2.7568,6.98405 6.1263,13.92958 9.953,20.5161 12.5478,26.71332 13.3898,31.97882 1.2079,7.55354 -1.6303,7.71592 -11.0535,0.63239 -12.3959,-9.31814 -31.3566,-18.05455 -39.2706,-18.09446 -1.516,-0.008 -4.3638,1.90084 -6.5474,4.38782 -8.0428,9.16015 -21.6056,42.30505 -23.2625,56.84865 -1.1969,10.50672 -1.6932,12.16004 -3.9047,13.00869 -1.1244,0.43145 -2.7804,0.17346 -3.6802,-0.57329 -2.6148,-2.1701 -5.637,-18.01153 -6.4171,-33.63641 -0.6118,-12.25437 -0.3185,-15.97019 1.9499,-24.70336 3.4252,-13.18691 3.4973,-17.84563 0.2763,-17.84563 -2.6143,0 -18.4464,8.05472 -27.9811,14.2356 -10.9997,7.13067 -18.1396,26.49509 -18.7175,50.7644 -0.3146,13.21478 2.5779,31.8095 6.5625,42.1875 l 2.5196,6.5625 -4.942,0 -4.9419,0 -2.7043,-9.0625 z m 64.4877,-83.75 c 4.3566,-9.77832 16.7762,-28.23293 19.609,-29.13731 3.5912,-1.14654 20.7895,3.05669 28.5629,6.9807 8.1553,4.11679 12.4388,4.73753 12.4388,1.80256 0,-2.39668 -5.4786,-13.3346 -9.9969,-19.95845 -6.9139,-10.13586 -6.1303,-12.37058 5.9184,-16.87857 11.713,-4.38239 13.135,-6.64435 5.4741,-8.70721 -6.0248,-1.62232 -7.6855,-3.56334 -8.5475,-9.99019 -0.3725,-2.77696 -1.2236,-5.04903 -1.8914,-5.04903 -0.6677,0 -5.1495,3.39557 -9.9595,7.54569 -9.5694,8.25653 -25.7946,19.60228 -28.601,19.9997 -5.3701,0.76048 -6.8582,-2.40619 -7.9243,-16.86356 -0.4033,-5.46874 -1.244,-10.4539 -1.8682,-11.07813 -0.6799,-0.67993 -2.5569,-0.6592 -4.6818,0.0517 -3.5204,1.17783 -3.5455,1.26042 -3.36,11.07813 0.1029,5.4403 0.5754,11.90815 1.0503,14.373 0.9665,5.01756 2.0061,3.8627 -16.3946,18.21272 -17.4535,13.61142 -18.3114,16.98633 -2.1339,8.39445 11.7112,-6.2198 16.9713,-7.96692 19.5841,-6.50473 1.8545,1.03783 2.0273,2.71648 1.3691,13.30187 -0.4143,6.66278 -1.5483,15.01323 -2.5201,18.55654 -3.6839,13.43277 -1.4034,15.71189 3.8725,3.87011 z m 232.2214,87.28955 c 1.1691,-5.10928 0.9235,-6.20936 -3.2799,-14.6875 -8.9698,-18.09165 -17.0182,-30.40357 -24.5689,-37.5836 -9.7882,-9.3077 -15.5515,-12.20595 -24.2722,-12.20595 -6.4191,0 -7.3543,0.41144 -14.5547,6.4037 -8.7142,7.25205 -12.366,13.83564 -12.4075,22.36864 -0.036,7.4559 4.2628,13.78118 11.7627,17.30653 9.988,4.69492 18.2635,3.04981 25.0139,-4.97258 2.8924,-3.43742 3.2353,-4.68594 2.5011,-9.1074 -1.7627,-10.61574 -5.5694,-14.26805 -13.1384,-12.60561 -7.3745,1.61972 -10.805,8.55199 -6.8315,13.80531 2.3425,3.09711 2.3376,3.69996 -0.05,6.08713 -2.6396,2.6396 -3.405,2.50408 -7.1803,-1.27114 -4.8719,-4.87199 -5.7627,-13.25324 -2.1351,-20.09119 3.3257,-6.26906 6.0382,-8.23769 14.1105,-10.24074 4.9909,-1.23843 6.5644,-1.16316 9.7121,0.46458 5.9675,3.0859 10.7288,10.83121 13.0375,21.2082 1.9848,8.92115 1.9719,9.53984 -0.3039,14.66681 -3.0613,6.89663 -11.33,14.34311 -17.1364,15.43239 -6.2346,1.16961 -13.8418,-0.21289 -21.4528,-3.89873 -9.3663,-4.53588 -14.6289,-11.97356 -16.8064,-23.75238 -1.1457,-6.19797 -0.9303,-8.02249 1.9784,-16.75644 2.7586,-8.2833 4.282,-10.76389 9.8374,-16.0179 8.8055,-8.3279 13.6744,-10.68469 22.0533,-10.67494 5.2241,0.006 8.6758,0.93631 14.375,3.87411 11.421,5.88733 21.4375,14.45737 25.3313,21.67319 1.8802,3.4845 5.6123,9.79775 8.2935,14.02945 11.4106,18.00964 15.1657,27.72571 14.6887,38.00651 -0.1787,3.84938 -0.4418,4.0625 -5.0151,4.0625 l -4.8266,0 1.2638,-5.52295 z m 412.3359,0.21045 c 1.8946,-8.52401 17.5098,-40.79701 22.4738,-46.44846 5.1001,-5.80632 20.6975,-18.03169 27.2599,-21.36652 6.3752,-3.23968 19.9793,-6.87387 25.6907,-6.86297 7.0951,0.0135 19.9887,4.2053 25.2284,8.20189 2.6,1.98309 5.7548,6.24049 7.5823,10.23221 2.6253,5.73447 2.9996,7.9426 2.3226,13.70267 -0.8878,7.5541 -1.6892,9.49438 -7.4334,17.99876 -5.1494,7.6237 -10.4408,10.89952 -21.244,13.15207 -14.2404,2.9692 -24.6632,-1.09155 -30.004,-11.68958 -6.3997,-12.69924 -5.5923,-17.51749 4.2374,-25.28743 8.1229,-6.42077 11.1343,-7.15831 18.2039,-4.45841 6.705,2.56066 10.8782,9.02812 8.0356,12.45324 -2.0066,2.4178 -6.1695,2.42683 -9.3512,0.0202 -3.5963,-2.72014 -6.232,-2.2577 -10.649,1.86847 -11.4243,10.67183 6.0199,22.35714 22.701,15.20676 12.745,-5.46315 20.7041,-25.30486 13.039,-32.50582 -1.6282,-1.52961 -6.8313,-4.14646 -11.5625,-5.81521 -7.7152,-2.72128 -9.3672,-2.89803 -16.0233,-1.71438 -11.9909,2.13233 -25.2086,9.68476 -36.9291,21.10085 -5.0296,4.89903 -8.2205,9.99973 -15.139,24.20004 -4.8213,9.89597 -8.8565,19.19224 -8.9669,20.65836 -0.1705,2.26386 -0.9886,2.66571 -5.4269,2.66571 l -5.2261,0 1.1808,-5.3125 z m 425.4451,1.32757 c 1.6811,-7.95955 8.3307,-22.18957 14.4228,-30.86445 14.5384,-20.70189 45.9762,-40.99677 65.6486,-42.3798 6.5995,-0.46397 8.5837,-0.0307 15.2313,3.3249 12.4077,6.26337 19.5839,17.96431 19.6435,32.02928 0.072,17.12399 -8.4753,27.7454 -26.1878,32.53997 -21.0718,5.70385 -40.65,-3.91302 -40.65,-19.96733 0,-7.41112 2.2703,-12.6519 8.018,-18.50816 6.642,-6.76768 11.152,-8.78809 17.4078,-7.79839 7.5974,1.20195 15.23,5.18561 16.8819,8.81118 1.878,4.12165 1.9308,3.92 -1.6399,6.25957 -2.8758,1.88435 -3.315,1.85688 -6.5625,-0.41065 -8.2728,-5.77644 -14.6823,-4.38927 -20.8515,4.5128 -4.0546,5.85079 -4.1326,10.17463 -0.2497,13.82251 6.0447,5.67867 18.2104,5.95107 30.1209,0.67442 7.1926,-3.18649 9.7613,-5.68852 12.4523,-12.12902 2.7797,-6.65278 2.3402,-11.88635 -1.6531,-19.6819 -2.7575,-5.38338 -4.8535,-7.61447 -9.6604,-10.2833 -3.3763,-1.87456 -7.7248,-3.42143 -9.6632,-3.4375 -5.1404,-0.0426 -20.793,6.82657 -31.5355,13.83933 -19.4281,12.6828 -31.5485,27.09202 -38.8039,46.13147 -2.5585,6.714 -2.7442,6.88414 -7.9319,7.26507 l -5.3121,0.39005 0.8744,-4.14005 z m 124.9616,1.598 c 0.2528,-1.31282 0.8648,-5.10969 1.3599,-8.4375 1.1652,-7.83219 5.8055,-20.1138 11.4817,-30.38892 7.014,-12.69703 33.3665,-38.36006 51.5552,-50.20648 7.9062,-5.1494 16.9062,-10.81108 20,-12.58152 9.5488,-5.46447 28.4548,-11.24035 38.75,-11.83833 12.9673,-0.75322 14.3916,-1.17072 16.8635,-4.94317 1.1936,-1.82171 4.0977,-10.55806 6.4535,-19.41408 3.5316,-13.27593 4.2196,-17.88983 3.9206,-26.28937 -0.424,-11.91005 -2.1199,-13.59518 -6.0093,-5.97122 -4.2745,8.37854 -11.7576,15.54267 -20.1856,19.32494 -6.7019,3.0076 -8.7251,3.36035 -15.5945,2.71887 -14.4349,-1.34795 -28.1416,-10.39042 -33.2845,-21.9581 -1.821,-4.09606 -2.6017,-9.35194 -3.0637,-20.625 -0.8062,-19.672957 1.0851,-27.675957 11.6762,-49.408427 6.7573,-13.86536 9.5183,-18.12072 15.8946,-24.49707 9.5979,-9.59798 14.9939,-12.62953 19.1274,-10.74618 5.198,2.36838 3.83,6.62805 -3.8209,11.89743 -7.8323,5.39435 -8.9077,7.30073 -6.3338,11.22884 2.3872,3.64347 1.2165,4.74994 -3.9922,3.7728 l -4.1523,-0.779 -8.0744,16.70171 c -6.7815,14.02727 -8.2733,18.32375 -9.3165,26.831237 -1.3009,10.60928 -0.058,29.70042 2.2045,33.85679 2.0107,3.69401 9.2994,10.13621 13.0812,11.56202 5.228,1.97101 16.7643,1.60618 21.5878,-0.68274 10.833,-5.14057 16.9611,-15.51417 17.76,-30.06385 0.5332,-9.71267 0.389,-10.42235 -3.0284,-14.90483 -5.1701,-6.781427 -12.5654,-11.771917 -17.4444,-11.771917 -8.6068,0 -16.7688,5.46015 -16.7688,11.217897 0,6.32345 4.7471,8.12978 9.5377,3.62922 3.1934,-3.00007 8.4014,-2.51327 9.7143,0.90802 1.1083,2.88832 -3.6278,9.93301 -7.8552,11.68405 -4.3897,1.81827 -11.9892,0.61411 -16.6193,-2.63339 -6.4658,-4.53495 -7.8979,-18.759017 -2.6062,-25.886087 3.4309,-4.62092 15.8723,-10.7709 21.4914,-10.62356 5.71,0.14972 10.2154,2.45844 19.4034,9.94296 8.533,6.95092 14.4339,15.636257 14.4339,21.244887 0,3.53505 0.6111,4.23735 5.3125,6.10524 7.4696,2.96774 9.7311,5.46302 15.297,16.87896 2.6901,5.51749 5.372,10.0318 5.9598,10.0318 0.588,0 2.5447,-3.22323 4.3482,-7.16276 4.7292,-10.33001 5.3305,-23.61013 1.6327,-36.06581 -1.5277,-5.146587 -2.8672,-11.976727 -2.9765,-15.178067 -0.1969,-5.76625 -0.1539,-5.83148 4.6015,-6.98284 3.453,-0.83601 5.6415,-0.71209 7.797,0.44152 3.4819,1.86347 16.1358,20.166427 18.2194,26.353197 3.0739,9.1271 5.2664,8.79129 10.5392,-1.61419 5.6087,-11.068097 8.3019,-19.111847 9.2818,-27.721777 0.5356,-4.70565 1.5629,-9.1448 2.2829,-9.86478 2.457,-2.45694 13.1755,8.07031 17.0835,16.77871 4.744,10.57107 5.741,14.72931 6.6872,27.891797 0.9201,12.80003 0.4093,12.44483 12.6838,8.81679 3.7812,-1.11765 13.2745,-2.31098 21.096,-2.65186 11.6555,-0.50797 14.7697,-0.26021 17.263,1.37342 4.9408,3.23743 3.5235,8.0302 -3.5007,11.83665 -7.0378,3.81395 -21.0236,14.1823 -28.535,21.1544 -4.8433,4.49573 -5.321,5.38373 -3.7435,6.96114 1.0368,1.03686 7.3469,2.58223 14.7937,3.62306 14.9527,2.08993 19.1426,4.56472 16.7221,9.87709 -1.1783,2.58599 -2.7356,3.16495 -12,4.46095 -12.4763,1.74535 -18.5009,3.76829 -39.5956,13.29543 -15.1114,6.8248 -22.5,11.82735 -22.5,15.23385 0,0.90098 2.6718,2.93311 5.9375,4.51581 13.4955,6.54067 23.9047,13.4635 33.125,22.03034 5.0938,4.73288 5.8,7.55688 2.6717,10.68516 -1.7375,1.73742 -2.3847,1.77987 -4.6875,0.30741 -6.0451,-3.86549 -15.1144,-5.27 -33.2967,-5.1565 -16.1863,0.101 -18.9273,0.43974 -25.625,3.16641 -4.7054,1.91557 -7.4234,3.73649 -7.2945,4.88685 0.1125,1.00849 1.4615,5.2086 2.9965,9.3336 1.6973,4.56112 3.0263,11.56178 3.3916,17.86559 0.5571,9.61836 -0.1038,15.37841 -3.7256,32.44691 l -1.3923,6.5625 -5.2705,0 -5.2704,0 1.941,-5.39776 c 2.419,-6.727 1.4618,-9.6248 -3.1491,-9.53307 -4.7721,0.0949 -9.567,6.19386 -8.8281,11.22883 0.5049,3.43945 0.2619,3.702 -3.4255,3.702 -3.4698,0 -4.2159,-0.62888 -5.933,-5 -1.9265,-4.90453 -2.0833,-5 -8.2124,-5 -3.4365,0 -7.1811,-0.35796 -8.3212,-0.79547 -3.2122,-1.23263 -4.7293,-6.33411 -5.5253,-18.57953 l -0.7312,-11.25 -7.5,-0.8002 c -4.125,-0.44011 -9.7814,-1.94732 -12.5697,-3.34935 l -5.0697,-2.54916 -0.2213,-12.77491 c -0.1212,-7.0262 -0.4285,-12.98221 -0.6818,-13.23559 -0.8347,-0.8346 -13.859,-4.21716 -18.9575,-4.92347 -11.0883,-1.53607 -14.4924,-4.87419 -12.6118,-12.36732 0.5625,-2.24085 0.2793,-3.125 -1.0011,-3.125 -2.52,0 -17.575,10.36224 -17.2528,11.875 0.1465,0.6875 2.4509,1.25 5.121,1.25 5.0265,0 10.1197,3.25494 10.1197,6.46735 0,0.93769 -1.6875,4.86719 -3.75,8.73223 -3.5964,6.73957 -4.667,11.59172 -2.939,13.31982 0.4461,0.44608 4.1522,-2.83517 8.2357,-7.29167 7.7749,-8.48491 10.4541,-9.60734 13.8845,-5.8168 2.7251,3.01116 2.7511,2.91081 -2.3337,8.99704 -5.1032,6.10795 -4.3019,8.71703 2.677,8.71703 3.091,0 5.5553,1.20799 9.2218,4.52045 4.3325,3.91413 5.0037,5.22749 5.0037,9.79168 0,2.89916 0.3393,5.61064 0.7542,6.02549 0.4149,0.41485 3.2796,-0.47263 6.3661,-1.97217 l 5.6119,-2.72643 2.3213,2.86657 c 2.8772,3.55339 2.329,5.06948 -3.1982,8.84304 -6.4285,4.38906 -5.3215,7.65137 2.5967,7.65137 2.3812,0 13.048,3.43879 13.048,4.20648 0,0.10175 0.5461,2.08925 1.2136,4.41664 l 1.2136,4.2316 -8.4011,-0.89333 c -4.6206,-0.49134 -11.4949,-1.15591 -15.2761,-1.47684 -8.7169,-0.73985 -15.5999,-2.5608 -17.2212,-4.55602 -0.842,-1.03615 -0.8626,-5.90979 -0.061,-14.63404 1.3837,-15.07644 1.0845,-15.65116 -8.8233,-16.9456 -3.1728,-0.41452 -8.3,-1.21456 -11.3937,-1.77786 -3.0938,-0.5633 -7.7344,-0.74818 -10.3125,-0.41085 -3.9685,0.51926 -4.6875,1.08121 -4.6875,3.66366 0,1.67768 -0.8775,4.74723 -1.95,6.82124 -1.0725,2.074 -1.7756,5.27055 -1.5625,7.10344 l 0.3875,3.33253 5.3114,-4.81 c 5.1692,-4.68117 5.3951,-4.75513 8.4375,-2.76171 4.2226,2.76675 3.9677,4.35701 -1.8739,11.69383 -2.75,3.45386 -5,6.90233 -5,7.66328 0,0.89705 3.5452,1.38355 10.0821,1.38355 9.7436,0 13.632,1.03558 17.1689,4.57243 1.4034,1.40344 -1.258,1.67757 -16.2868,1.67757 -11.3248,0 -18.469,-0.50477 -19.33,-1.3658 -0.9877,-0.98773 -2.0722,-0.98773 -3.9178,0 -3.6227,1.93878 -18.0555,1.692 -24.9815,-0.42715 -3.2229,-0.98612 -7.9127,-2.126 -10.4217,-2.53306 -2.509,-0.40705 -6.6702,-2.17089 -9.2471,-3.91964 -5.329,-3.61636 -6.7644,-2.73295 -6.797,4.18315 -0.019,3.89315 -0.2245,4.0625 -4.9474,4.0625 -4.1775,0 -4.8582,-0.36357 -4.4685,-2.38693 z m 54.2791,-17.96097 c 0.8093,-6.0351 1.1472,-11.49768 0.7507,-12.13908 -0.3964,-0.6414 -2.8104,-1.50313 -5.3644,-1.91494 -10.806,-1.74238 -17.3866,-3.54978 -21.1236,-5.80164 l -3.9799,-2.39831 -3.1414,5.36344 c -4.8061,8.20607 -8.4899,17.12753 -7.6399,18.50285 1.648,2.6665 6.254,0.98106 11.9955,-4.38942 6.1018,-5.70752 9.4117,-6.83397 12.1207,-4.125 2.2328,2.23283 1.8472,4.14552 -1.681,8.33859 l -3.181,3.7804 2.8685,1.81035 c 1.5776,0.99569 4.2747,2.22594 5.9935,2.73388 1.7187,0.50795 4.2318,1.68961 5.5846,2.62592 3.7565,2.60009 5.1216,0.1125 6.7977,-12.38704 z m 127.7723,-11.00176 c 0.4451,-6.7229 0.2785,-12.40594 -0.3885,-13.24504 -0.6613,-0.83198 -5.443,-1.64557 -11.02,-1.875 l -9.8519,-0.4053 -2.5721,8.16027 c -2.922,9.27016 -3.2978,15.61396 -1.0096,17.04315 1.446,0.90322 19.9856,2.77703 22.8125,2.30568 0.6875,-0.11462 1.6008,-5.50732 2.0296,-11.98376 z m 13.296,-1.78557 c 0.3086,-3.54435 -1.4333,-8.09317 -2.6149,-6.82857 -0.3026,0.32384 -0.954,3.0319 -1.4475,6.01792 -0.8031,4.85906 -0.6541,5.38297 1.4196,4.98976 1.5439,-0.29273 2.4258,-1.68741 2.6428,-4.17911 z m -127.4733,-21.39075 c 0.8159,-7.3018 1.1779,-13.77055 0.8043,-14.375 -0.3735,-0.60447 -2.5815,-1.09902 -4.9066,-1.09902 -2.3252,0 -4.5752,-0.5625 -5,-1.25 -1.4923,-2.41458 -4.9402,-1.20551 -9.6348,3.37869 -5.6201,5.48789 -5.9692,7.14769 -1.316,6.25818 7.9403,-1.51789 10.3955,4.58383 4.0758,10.12927 -2.0625,1.80981 -3.75,3.94844 -3.75,4.75249 0,1.30702 11.365,5.0402 16.3093,5.35731 1.5465,0.0992 2.2319,-2.53806 3.418,-13.15192 z m 125.8482,4.21348 c -2.4019,-8.01402 -7.3339,-17.30423 -16.7052,-31.46748 -8.6361,-13.05232 -23.8796,-23.12918 -35.6941,-23.59602 l -6.3012,-0.249 -0.4035,4.22145 c -0.5714,5.97647 1.2913,7.27668 5.8126,4.05725 4.8736,-3.47035 7.4511,-3.35226 9.17,0.4201 1.13,2.48013 0.9786,3.71762 -0.7836,6.40724 -2.3867,3.6424 -1.2097,5.46106 3.5595,5.49983 1.2952,0.01 4.567,0.68187 7.2706,1.49188 5.664,1.69699 8.4994,5.99934 8.4994,12.89682 0,4.41067 0.076,4.47936 4.1426,3.71655 4.994,-0.93688 7.4225,1.35781 7.6074,7.18842 0.1062,3.355 0.7286,4.09795 4.181,4.99256 2.2307,0.57805 4.9673,2.44194 6.0812,4.14195 2.5298,3.86093 4.6875,4.02954 3.5633,0.27845 z m -34.533,-10.74647 c 0.3607,-14.84925 -0.057,-15.40551 -11.2628,-14.99179 -6.4792,0.23923 -9.0102,-0.27916 -13.499,-2.7649 l -5.5246,-3.05934 -1.9453,-11.85878 c -2.1523,-13.12154 -2.8472,-13.8532 -10.696,-11.26288 -4.8681,1.60663 -5.0757,2.07673 -2.4501,5.54808 2.4913,3.29375 2.3066,6.01211 -0.6647,9.78967 -1.375,1.74803 -2.5,3.46776 -2.5,3.82164 0,0.35386 1.9243,1.27849 4.2762,2.0547 2.352,0.77622 6.5708,3.07337 9.375,5.10479 4.4974,3.25778 5.0988,4.28233 5.0988,8.68562 0,5.8153 1.3302,6.19871 6.478,1.86716 4.0582,-3.41482 7.1966,-3.9504 9.522,-1.625 2.7127,2.71275 1.5841,6.7717 -3.0572,10.99523 -4.2878,3.90185 -4.4215,4.24614 -2.2611,5.82585 1.2629,0.92341 4.8605,1.68754 7.9946,1.69806 3.1343,0.01 6.5424,0.56441 7.5737,1.23086 1.0312,0.66645 2.1828,1.22034 2.5592,1.23087 0.3764,0.01 0.8188,-5.5199 0.9833,-12.28984 z m 42.486,-20.42843 c 7.1811,-2.54071 20.9393,-4.66205 30.6381,-4.724 9.902,-0.0633 7.7217,-2.08067 -12.1041,-11.20002 -7.9423,-3.6532 -20.2153,-6.20014 -30.3582,-6.29998 -3.4053,-0.0335 -3.9923,0.45057 -4.467,3.68374 -1.4935,10.17661 3.1877,23.71121 7.5432,21.80899 1.152,-0.50311 5.0885,-1.97404 8.748,-3.26873 z m -98.3144,-14.33133 c 2.3856,-2.15897 3.0931,-5.43127 1.1744,-5.43127 -2.2563,0 -6.7647,4.63013 -5.8887,6.04757 1.1994,1.94062 2.0053,1.83527 4.7143,-0.6163 z m 72.2859,-16.41943 c 0,-13.87175 -1.9227,-28.53134 -4.0984,-31.24939 -0.71,-0.8869 -1.738,-4.4414 -2.2845,-7.8989 -1.0899,-6.89422 -4.8015,-15.48855 -6.689,-15.48855 -0.6583,0 -1.87,4.35369 -2.6928,9.67487 -1.4268,9.22863 -6.9715,31.87062 -9.3118,38.02648 -1.572,4.13464 -0.4914,5.94198 5.0018,8.36563 2.6542,1.171 7.5513,4.87967 10.8827,8.2415 8.1865,8.26167 9.192,7.2037 9.192,-9.67164 z m 42.1875,-2.79885 c 3.6093,-2.06996 6.5625,-4.31266 6.5625,-4.98379 0,-0.67113 6.6093,-4.39046 14.6875,-8.26518 14.6797,-7.04123 17.0386,-8.68233 15.6678,-10.90025 -0.9923,-1.60575 -29.0626,0.0182 -38.0913,2.20386 -7.9074,1.91409 -29.8373,9.4163 -31.3738,10.73296 -0.5415,0.4641 -0.6102,3.18508 -0.1527,6.04661 0.7642,4.77877 1.1501,5.21263 4.7347,5.32334 2.1465,0.0662 6.9965,0.83238 10.7778,1.70241 9.9018,2.27835 9.9877,2.26905 17.1875,-1.85996 z m -24.0335,-26.33119 c 7.948,-2.97371 8.3633,-3.66677 10.6338,-17.74197 l 1.558,-9.65761 -3.298,-3.05643 c -3.7128,-3.441 -4.1626,-6.55459 -1.4626,-10.12437 4.0645,-5.37377 0.9133,-20.57869 -6.526,-31.488917 -6.9171,-10.14438 -8.2611,-8.30835 -4.5011,6.149037 3.2905,12.65249 2.5735,21.18628 -3.3774,40.19786 -4.3787,13.98875 -5.1136,17.76423 -4.393,22.56974 1.001,6.67475 1.5475,6.82634 11.3663,3.15266 z m 47.8155,-9.40562 11.5943,-0.8397 2.1557,-4.65878 c 1.2391,-2.67831 6.8295,-8.79378 13.1503,-14.38586 12.4728,-11.03454 12.7944,-13.22752 1.5717,-10.71599 -8.582,1.92057 -39.8718,15.50843 -45.4689,19.74522 -2.2838,1.72875 -5.6588,3.54606 -7.5,4.03846 -3.4341,0.91841 -4.7661,3.71971 -3.4274,7.20845 0.6229,1.62322 2.1336,1.83719 8.5433,1.20992 4.2826,-0.41911 13.004,-1.13988 19.381,-1.60172 z m -13.2933,-25.70138 c 13.8233,-5.65181 15.8534,-7.59908 17.5536,-16.83716 1.0883,-5.91286 1.0535,-9.37537 -0.1503,-15 -3.0217,-14.117187 -8.6857,-21.198507 -10.6482,-13.312667 -1.3607,5.4681 -10.1802,23.686447 -15.6893,32.409437 -4.8903,7.74318 -5.7582,10.76469 -4.2333,14.73836 1.0383,2.70575 2.0319,2.55498 13.1675,-1.99797 z m 270.0879,172.04568 c -9.4113,-6.33794 -13.0429,-12.10563 -17.7378,-28.17065 -4.5503,-15.57116 -4.5595,-20.55411 -0.064,-35.10988 4.0365,-13.06858 15.942,-28.5889 29.762,-38.79828 10.2951,-7.60548 15.881,-9.68993 25.9002,-9.66494 10.3408,0.0257 29.2485,3.73382 33.6094,6.59122 5.152,3.37572 10.6559,16.33585 11.5619,27.22532 0.705,8.47322 0.4494,10.26648 -2.328,16.33322 -6.5914,14.39754 -19.1804,21.3435 -36.6404,20.21648 -10.9027,-0.70378 -16.3377,-3.3318 -19.4312,-9.3957 -3.5835,-7.02417 -3.2904,-17.76712 0.5906,-21.64809 2.1234,-2.12341 3.8402,-2.77769 5.9375,-2.26265 6.4517,1.58447 7.5896,4.48487 3.5752,9.11347 -3.1953,3.68425 -3.1782,7.55059 0.049,11.0143 2.1164,2.27172 3.9252,2.7357 10.6651,2.7357 10.1033,0 14.8829,-1.95117 20.7751,-8.4812 6.2849,-6.965 8.0898,-13.34318 6.1848,-21.85578 -2.2341,-9.98292 -5.3946,-14.37093 -11.0516,-15.34358 -2.6109,-0.44892 -8.1222,-1.66134 -12.2472,-2.69426 -10.8308,-2.71209 -17.8095,-1.54225 -26.5405,4.44899 -9.4406,6.47818 -25.3345,23.48941 -25.3345,27.11556 0,0.43502 -1.1231,2.21874 -2.4957,3.9638 -6.1008,7.7558 -6.806,23.35601 -1.7629,38.99132 3.4226,10.61114 5.286,13.01677 16.7529,21.62852 7.4989,5.63166 8.0504,8.47663 1.6432,8.47663 -3.4215,0 -6.6808,-1.26942 -11.3733,-4.42952 z m 456.8531,0.41031 c 1.611,-2.75849 4.1453,-4.66246 8.0791,-6.06991 9.0307,-3.23091 18.6399,-11.42506 28.3112,-24.14195 2.718,-3.57381 3.6105,-7.03576 1.805,-7.00074 -0.5157,0.01 -5.4629,4.10898 -10.994,9.10884 -11.7787,10.64731 -24.2587,19.13051 -35.4213,24.0773 l -7.9777,3.53537 -2.3348,-2.88332 c -1.2841,-1.58584 -2.3347,-3.45773 -2.3347,-4.15976 0,-2.69627 8.9416,-9.69662 12.3855,-9.69662 4.4098,0 14.8401,-7.3463 29.9112,-21.06746 13.0513,-11.88214 12.4876,-10.01859 7.7984,-25.78049 -3.0484,-10.2465 -3.267,-14.78833 -0.8099,-16.82752 2.6876,-2.2306 9.2241,1.54712 10.1839,5.88571 1.4901,6.73633 3.2351,11.51846 4.4849,12.29086 1.8255,1.12819 10.6551,-7.90433 13.5275,-13.83821 2.2128,-4.57161 2.2888,-5.67419 0.8207,-11.91289 -0.8899,-3.78125 -2.5511,-8.65937 -3.6919,-10.84027 -3.2591,-6.23103 -6.0506,-15.30829 -5.6243,-18.28888 0.9151,-6.39952 9.8792,-2.71687 12.2251,5.02238 2.9007,9.56949 6.7096,16.70905 8.7089,16.32402 2.6432,-0.50902 10.4047,-13.64245 8.9325,-15.11471 -0.6282,-0.62814 -2.4502,-1.79421 -4.0489,-2.59126 -2.181,-1.0874 -3.1154,-2.90798 -3.7426,-7.29239 -0.4597,-3.21376 -1.1968,-6.42722 -1.6379,-7.14104 -1.173,-1.8979 -4.4231,-14.80487 -4.4231,-17.56506 0,-3.08319 1.9162,-4.18034 5.66,-3.24071 3.8485,0.96592 5.4631,4.00274 8.6441,16.25764 1.414,5.4476 3.2824,10.1379 4.152,10.42287 2.4531,0.80393 7.4486,-11.49935 10.3042,-25.37797 2.8325,-13.76603 4.493,-16.59734 8.4822,-14.46245 7.2173,3.86266 9.4651,14.50407 5.7575,27.25792 -1.395,4.79835 -1.6035,7.27635 -0.6895,8.19036 1.6043,1.60444 21.444,-2.69785 22.2815,-4.83181 0.3013,-0.768 -1.1502,-3.09449 -3.2257,-5.16996 -4.1371,-4.13716 -4.1912,-3.12004 0.9458,-17.80868 1.3224,-3.78125 2.7686,-9.44532 3.2139,-12.58682 0.7233,-5.10454 0.4062,-6.21925 -2.9833,-10.48439 -2.1485,-2.70355 -3.7927,-6.2637 -3.7927,-8.21219 0,-1.8918 -1.0655,-4.75554 -2.3679,-6.36387 -2.2531,-2.78244 -2.6981,-2.85497 -9.1775,-1.49591 -7.3485,1.54135 -21.5228,9.48619 -28.2488,15.83366 -4.9302,4.65281 -7.7058,9.55951 -7.7058,13.62245 0,4.19412 -2.2934,5.93707 -7.8122,5.93707 -6.1292,0 -11.0118,2.54982 -18.7591,9.79647 -8.1559,7.62887 -12.6909,16.49866 -11.6771,22.83855 0.6315,3.94938 0.301,5.03656 -2.0266,6.66693 -1.5298,1.07143 -4.5197,1.94805 -6.6443,1.94805 -2.6362,0 -4.8385,1.09165 -6.9346,3.4375 -9.864,11.03915 -12.0761,18.7151 -7.2678,25.21877 3.6923,4.99412 2.1918,8.05193 -4.2206,8.60092 -3.0772,0.26345 -6.2125,1.9212 -10.0917,5.33588 -7.0727,6.22555 -11.5525,18.00568 -10.3544,27.22763 1.5687,12.07519 1.5969,11.87945 -1.9503,13.60688 -1.8501,0.90095 -3.7265,2.78101 -4.1698,4.17792 -0.5929,1.86798 -1.687,2.43797 -4.1363,2.15468 -2.578,-0.29816 -4.0111,-1.7588 -6.3444,-6.46583 -2.7345,-5.51648 -3.017,-7.66197 -3.0457,-23.125 -0.02,-10.69376 0.5384,-18.40097 1.4981,-20.6854 1.6319,-3.88423 0.226,-7.02212 -1.8925,-4.22442 -2.7252,3.59872 -9.2094,20.11232 -11.5106,29.31487 -1.6381,6.55067 -2.2258,11.97463 -1.772,16.35664 0.7566,7.30913 -0.7503,10.31896 -5.1661,10.31896 -3.3043,0 -5.722,-2.21421 -5.722,-5.24036 0,-1.23219 -1.6929,-3.74875 -3.762,-5.59235 -6.6907,-5.96136 -10.0617,-15.08851 -15.5179,-42.01531 -2.6004,-12.83353 -2.4874,-17.69664 0.6496,-27.9578 4.0448,-13.23 5.9771,-16.49908 11.7543,-19.88466 l 5.2986,-3.10523 1.3407,-10.38646 c 3.7744,-29.239 18.1753,-52.13334 35.3817,-56.24916 2.5925,-0.62014 3.6062,-1.98338 4.8932,-6.58035 2.9729,-10.618097 19.5419,-24.238317 29.486,-24.238317 2.0541,0 6.6948,1.47496 10.3124,3.27768 l 6.5774,3.27767 4.6055,-2.34017 c 2.533,-1.2871 7.2886,-4.76387 10.568,-7.72617 3.2793,-2.9623 10.143,-7.37131 15.2525,-9.7978 7.8062,-3.70717 10.649,-4.4118 17.7991,-4.4118 8.5341,0 17.6426,2.56832 21.8406,6.15837 1.666,1.42467 3.31,1.54292 7.8853,0.56713 6.7336,-1.43615 9.8602,-0.8625 14.9758,2.74772 2.0438,1.44231 5.6874,3.19934 8.0969,3.90453 6.2613,1.83243 9.6924,7.55817 10.6813,17.82459 1.0436,10.835337 1.2365,11.335077 4.9132,12.732967 6.0641,2.30559 13.3458,7.68511 15.7584,11.64206 1.7597,2.88607 2.493,6.48357 2.6026,12.76822 0.2546,14.60515 0.8509,16.0022 7.3624,17.25003 9.2919,1.78065 10.649,4.03546 10.4449,17.35316 -0.1645,10.7298 -0.476,11.9789 -5.4148,21.71929 -4.2995,8.47939 -4.9975,10.78837 -3.888,12.86146 2.1866,4.08575 1.5885,8.58408 -2.4076,18.10655 -6.7326,16.04358 -12.9749,26.99203 -20.6306,36.185 -5.9454,7.13909 -9.4877,10.06913 -16.9549,14.02451 -5.1918,2.75 -13.0553,7.5481 -17.4745,10.66247 -7.5455,5.3175 -8.0874,6.02922 -8.8961,11.68295 -1.5618,10.9176 -10.3149,20.00737 -15.2902,15.87822 -3.4896,-2.8961 -3.18,-6.28136 0.926,-10.12519 3.651,-3.41792 3.9387,-4.2751 3.7403,-11.14881 l -0.2149,-7.44621 7.0899,-3.98855 c 3.8995,-2.19369 10.7461,-6.35785 15.2149,-9.25369 4.4687,-2.89584 10.3008,-6.28806 12.9603,-7.53827 7.161,-3.36639 17.49,-16.68438 25.4012,-32.75177 7.1581,-14.53782 7.4461,-16.17432 4.7278,-26.85941 -0.6898,-2.71185 0.1568,-4.91386 4.2413,-11.03034 5.4086,-8.09951 7.651,-14.22557 7.6624,-20.93312 0.012,-5.07034 -2.2473,-6.11715 -8.892,-4.1263 -9.3493,2.80109 -11.9514,-0.0165 -9.4623,-10.24571 1.0053,-4.13148 1.34,-10.61975 0.9121,-17.68178 l -0.6758,-11.15552 -5.5092,-2.90699 c -6.0918,-3.21451 -12.8267,-3.79025 -14.9142,-1.27496 -0.9906,1.19373 -0.6541,3.9632 1.2535,10.3125 2.7504,9.15472 2.4304,15.31728 -1.5103,29.08875 -1.3977,4.88445 -1.2868,5.8722 1.1447,10.19833 1.4806,2.63455 3.7745,9.96107 5.0975,16.28117 1.3228,6.32008 3.2845,12.46263 4.3591,13.65008 1.0746,1.18745 1.9539,3.02323 1.9539,4.0795 0,3.49959 -5.252,8.67112 -12.237,12.04955 -5.7765,2.79392 -7.6695,4.6172 -11.7022,11.27112 -2.646,4.3659 -4.8108,8.16277 -4.8108,8.4375 0,1.18065 7.6093,0.35001 12.4547,-1.35957 6.219,-2.19417 10.0453,-0.84998 10.0453,3.52895 0,2.11218 -1.4095,3.51673 -5.5458,5.52625 -8.5602,4.15893 -20.3535,6.83285 -25.959,5.8858 -6.1399,-1.03732 -9.7452,1.72983 -9.7452,7.47958 0,6.05392 -7.1668,16.9498 -14.0188,21.31347 -5.7511,3.66254 -5.8722,3.87007 -5.1926,8.89787 1.2369,9.15022 -5.095,16.60598 -20.1636,23.74265 -9.4393,4.47053 -13.5644,3.79126 -17.3214,-2.85224 -1.227,-2.16984 2.641,-5.41158 6.4731,-5.425 3.8291,-0.0134 14.6643,-5.88338 18.2873,-9.90714 2.425,-2.6932 2.4215,-2.74101 -0.608,-8.28674 -3.3799,-6.18712 -2.7583,-8.90396 2.5555,-11.1694 14.117,-6.01858 18.7385,-10.98668 18.7385,-20.14378 0,-5.12423 0.517,-5.89438 10.1563,-15.12765 5.586,-5.35072 12.6459,-13.38482 15.6885,-17.85357 3.0428,-4.46875 8.0349,-11.67668 11.0938,-16.01765 9.5605,-13.56808 7.2672,-16.19566 -9.1633,-10.49923 -21.8318,7.56902 -20.5701,6.80975 -24.4043,14.68603 -4.2579,8.74668 -3.4099,10.26694 4.6013,8.24969 7.5214,-1.8939 11.415,-1.7882 13.1964,0.35821 2.6136,3.14923 -0.9414,6.34389 -13.8312,12.42933 -6.7495,3.1865 -12.998,5.79362 -13.8855,5.79362 -1.6634,0 -10.8828,12.30403 -21.5423,28.75 -13.4432,20.74103 -25.1859,34.51645 -37.1864,43.62384 -8.4007,6.37544 -8.4027,6.37616 -17.9276,6.37616 l -9.5259,0 2.3474,-4.01921 z m -52.209,-59.60912 c 1.7716,-6.62658 1.7298,-6.92727 -2.9522,-21.23422 -2.612,-7.98185 -5.1052,-15.87273 -5.5402,-17.53531 -1.0586,-4.04641 -3.4151,-4.6353 -4.3646,-1.09075 -1.2062,4.50283 -0.9295,16.19859 0.4968,20.99686 0.7138,2.40172 1.8412,7.12805 2.5052,10.50299 2.4979,12.69491 3.7341,15.91488 5.9466,15.48879 1.3727,-0.26434 2.7402,-2.75858 3.9084,-7.12836 z m 47.4674,-26.7251 c 5.2654,-3.86989 5.5102,-4.33642 5.7249,-10.90719 0.3697,-11.31618 10.9243,-27.41108 20.025,-30.53634 4.26,-1.46295 5.1046,-2.3543 5.7102,-6.02581 2.1103,-12.79264 20.5108,-31.91925 33.7625,-35.09488 7.6419,-1.83128 7.0869,-14.3635 -0.7816,-17.65118 -5.8704,-2.45278 -7.6806,-6.63447 -5.0634,-11.69583 1.0983,-2.12365 1.9968,-6.12615 1.9968,-8.89445 0,-10.172607 -10.0878,-11.487907 -19.0078,-2.478317 -5.2781,5.331047 -6.9682,5.304827 -10.1954,-0.15817 -2.3223,-3.93141 -7.8707,-7.4544 -11.7401,-7.4544 -3.3155,0 -12.7517,6.2853 -17.3957,11.587107 -3.0095,3.43587 -4.1739,6.20579 -4.8359,11.50464 -0.8715,6.97432 -3.0289,9.75735 -6.5798,8.48782 -0.8962,-0.32045 -3.4937,-0.23291 -5.7721,0.19452 -12.667,2.37635 -25.6452,28.28931 -26.3446,52.60091 -0.1978,6.875 -0.4201,12.92188 -0.4941,13.4375 -0.074,0.51563 -2.2594,0.9375 -4.8564,0.9375 -8.295,0 -13.6999,6.25327 -7.4656,8.63749 4.1732,1.59601 6.8698,5.16548 7.836,10.37261 1.3028,7.02177 3.9241,13.97243 5.4625,14.48525 0.7555,0.25183 1.8822,-0.85348 2.504,-2.45625 0.6217,-1.60275 4.006,-7.29968 7.5205,-12.65986 5.1008,-7.7796 6.1407,-10.21166 5.1541,-12.0551 -0.6798,-1.27012 -1.5695,-9.25954 -1.9774,-17.75422 -0.7334,-15.27649 -0.695,-15.5744 3.5226,-27.31992 4.5315,-12.61981 6.5623,-14.5643 11.0082,-10.54083 3.0487,2.75905 3.0188,4.55808 -0.2162,13.04083 -5.5443,14.5379 -6.8053,28.3155 -2.7163,29.67849 0.7695,0.25651 3.7971,-2.80059 6.728,-6.79355 2.9307,-3.99296 7.8955,-9.9527 11.0326,-13.24386 l 5.7039,-5.98393 0.3308,-11.7751 c 0.4138,-14.72013 4.3409,-27.281 8.7245,-27.9049 4.7443,-0.67522 6.1473,4.52049 3.6479,13.50983 -2.1434,7.7096 -2.6706,14.00399 -1.2886,15.38594 0.4342,0.43426 3.1555,-0.59699 6.0472,-2.29168 2.8918,-1.69467 6.3489,-3.08124 7.6824,-3.08124 2.9069,0 7.9808,3.34267 7.9808,5.25769 0,0.75125 -5.8592,7.32874 -13.0204,14.61661 -11.281,11.48059 -13.9764,15.08752 -20.1769,27.0007 -3.9361,7.5625 -8.717,16.28125 -10.6241,19.375 -5.2956,8.59032 -7.4411,18.84335 -3.9174,18.71969 0.4751,-0.0166 3.339,-1.84957 6.3644,-4.07312 z m 87.6524,-106.06053 c 8.1745,-5.92157 22.5246,-12.31417 29.4353,-13.1127 5.2629,-0.60812 6.8535,-0.23873 10.9047,2.53235 2.6086,1.78437 4.9878,3.24431 5.2871,3.24431 1.366,0 5.5949,-10.287647 5.5949,-13.610907 0,-4.54915 -3.15,-7.99797 -6.3713,-6.97559 -1.6817,0.53377 -3.5711,-0.57592 -6.5889,-3.86995 l -4.2308,-4.61831 -5.7362,2.19065 c -3.155,1.20486 -6.6123,3.52794 -7.6833,5.16239 -2.0982,3.20209 -6.1417,3.94123 -7.7094,1.40922 -0.5321,-0.85937 -1.2685,-3.79646 -1.6363,-6.52687 -0.908,-6.73943 -4.3718,-8.50188 -14.9845,-7.62434 -7.898,0.65307 -18.54,5.48621 -19.6798,8.93778 -0.245,0.74199 1.3181,3.55449 3.4738,6.25 3.7315,4.66609 3.8839,5.28877 3.1788,12.994507 -0.735,8.03337 -0.7063,8.1287 3.8674,12.8125 2.5343,2.59541 5.2531,4.71892 6.0416,4.71892 0.7886,0 3.8651,-1.76128 6.8369,-3.91396 z m 170.7541,195.1825 c 5.3171,-2.14721 12.5885,-10.57937 15.1069,-17.51854 1.3722,-3.78125 3.513,-14.5992 4.7572,-24.03988 1.9368,-14.69509 2.0383,-18.41789 0.706,-25.87314 -3.2795,-18.35089 -14.9699,-35.45256 -29.0415,-42.48421 -11.1666,-5.58002 -14.2046,-5.82022 -26.4339,-2.09004 -9.6642,2.94776 -11.2103,3.87665 -17.0038,10.21567 -5.448,5.96097 -6.373,7.70153 -6.373,11.99188 0,6.48139 3.2425,10.95886 10.5957,14.63125 11.5138,5.75022 24.6128,-0.1777 26.376,-11.93641 0.9084,-6.05688 0.1966,-7.19342 -5.4457,-8.69584 -1.9432,-0.51741 -4.3494,0.28105 -7.5673,2.51105 -5.8529,4.05602 -7.1235,4.07499 -9.6987,0.14467 -1.8994,-2.89895 -1.8967,-3.35537 0.039,-6.30967 2.7599,-4.21208 9.2259,-8.05484 13.5631,-8.06065 4.55,-0.006 12.8597,4.27644 15.1813,7.8239 3.0939,4.72747 3.6627,12.46204 1.4711,20.00107 -2.6467,9.10434 -7.3514,13.97164 -15.9097,16.45963 -6.2517,1.81739 -7.3963,1.81411 -13.6518,-0.0393 -11.828,-3.50416 -17.399,-7.56669 -20.7419,-15.12548 -3.404,-7.69708 -3.9143,-17.893 -1.1598,-23.17316 3.235,-6.20144 12.3622,-15.76036 16.8826,-17.68106 2.4425,-1.03786 8.4206,-3.12101 13.2846,-4.62925 l 8.8436,-2.74223 10.0597,3.35015 c 16.0818,5.35575 27.1702,14.91375 35.7578,30.82265 9.6998,17.96893 11.3032,28.20404 8.1913,52.28789 -2.5185,19.49073 -6.332,31.8901 -11.6729,37.9529 -2.7196,3.08724 -3.8304,3.42943 -10.9006,3.35826 -5.6716,-0.0571 -7.1296,-0.37921 -5.2154,-1.15222 z m -1527.6211,-9.53594 c -1.1436,-1.14363 -1.9111,-4.15047 -1.9111,-7.48703 0,-3.06673 -0.8364,-7.57743 -1.8585,-10.02379 -2.1337,-5.10686 -0.7947,-9.22178 3.0008,-9.22178 2.6982,0 4.5693,4.03083 6.3826,13.75 2.0517,10.99707 -0.8617,17.73467 -5.6138,12.9826 z m -530.0361,-0.4454 c -17.7546,-1.32118 -50.2608,-10.58946 -70,-19.9586 -2.75,-1.30528 -9.3568,-4.40808 -14.6817,-6.89512 -12.7467,-5.95338 -32.9556,-21.37384 -42.5971,-32.5038 -16.9278,-19.5412 -34.4658,-47.74003 -44.3473,-71.30468 C 291.803,153.4629 282.5,111.52393 282.5,96.244143 c 0,-9.03471 0.3224,-10.43193 3.0327,-13.14215 l 3.0326,-3.03263 7.2799,2.49809 c 11.3312,3.88833 38.3107,14.6052 54.1548,21.511537 7.9063,3.44628 17.75,7.36154 21.875,8.70057 4.125,1.33904 11.4375,3.86488 16.25,5.61299 4.8125,1.74811 15.5,5.55009 23.75,8.44884 8.25,2.89875 21.1875,7.5506 28.75,10.33745 7.5625,2.78685 16.8438,6.02144 20.625,7.18797 3.7813,1.16654 11.6563,3.96285 17.5,6.21404 13.2881,5.11896 50.977,17.88996 70,23.71975 7.9063,2.42294 21.4063,7.00356 30,10.17918 8.5938,3.1756 19.5625,6.59121 24.375,7.59023 11.107,2.3057 12.4371,3.57274 11.3514,10.81272 -1.2556,8.37331 -13.3989,31.43606 -21.8461,41.49053 -7.7107,9.17788 -23.4841,23.17085 -35.1303,31.16494 -10.3826,7.12678 -35.5357,18.99453 -47.5,22.41149 -12.9708,3.70444 -23.0013,4.55421 -39.375,3.33577 z m 35.625,-13.02272 c 10.2042,-2.71659 26.3406,-9.93318 39.2214,-17.5408 14.0572,-8.30233 34.2841,-25.05733 40.646,-33.66921 2.6136,-3.53784 5.7093,-7.22695 6.8794,-8.19804 2.9778,-2.47136 12.3282,-22.45651 11.5074,-24.59546 -1.6491,-4.2975 -5.5742,-1.57523 -12.3299,8.55153 -3.7838,5.67188 -7.8324,12.19527 -8.9969,14.49642 -1.1644,2.30115 -6.1526,8.23498 -11.0848,13.18631 -12.589,12.63787 -24.2567,20.62851 -36.4676,24.97487 -2.75,0.97884 -9.5,3.46842 -15,5.53239 -19.4229,7.28878 -25.0239,8.37968 -42.5,8.27756 -22.2483,-0.13001 -33.397,-2.65468 -52.37,-11.85948 -8.3215,-4.03723 -15.9737,-7.86953 -17.005,-8.51624 -1.0312,-0.64671 -6.0937,-3.58089 -11.25,-6.52039 -5.1562,-2.9395 -11.625,-7.12662 -14.375,-9.30472 -2.75,-2.17812 -6.8588,-4.9173 -9.1307,-6.0871 -8.0771,-4.15884 -27.719,-23.79124 -39.1429,-39.12405 -6.993,-9.38574 -18.2669,-28.71852 -20.9893,-35.99307 C 310.2074,152.10749 300,104.62362 300,97.387943 c 0,-1.28262 -1.44,-3.27556 -3.2,-4.42875 -2.7388,-1.79459 -3.4314,-1.84377 -4.8061,-0.34131 -5.6902,6.21891 9.1281,68.230067 21.478,89.880377 8.0841,14.17207 27.0073,41.43872 34.2071,49.28948 12.9756,14.14881 29.1062,26.80086 41.071,32.21405 5.8438,2.64387 12.1391,5.64956 13.9895,6.67931 10.066,5.60149 48.8867,17.24995 64.1355,19.24438 10.5509,1.37996 31.2253,0.50692 39.375,-1.66274 z m -2.5,-23.06551 c 11.1103,-3.041 17.6095,-5.29738 27.9652,-9.70889 17.0783,-7.27539 22.1284,-10.65798 35.2565,-23.61508 9.4628,-9.33953 19.7535,-26.07007 19.0422,-30.95873 -0.5087,-3.49687 -13.571,-9.15682 -39.6775,-17.19248 -21.9551,-6.75784 -47.6738,-15.53015 -72.5864,-24.75821 -9.2812,-3.43794 -22.2187,-8.073 -28.75,-10.30013 -34.7064,-11.83472 -45.977,-15.86706 -49.375,-17.66526 -4.0613,-2.14919 -22.3542,-8.50019 -24.4832,-8.50019 -0.7181,0 -5.6281,-2.0439 -10.9112,-4.542 -5.2831,-2.49809 -14.3868,-6.37738 -20.2306,-8.62064 -5.8437,-2.24325 -14.7586,-5.82323 -19.8109,-7.95551 -5.0522,-2.132267 -9.7565,-3.524207 -10.4539,-3.093177 -3.6682,2.267047 7.3642,52.496457 14.3145,65.172397 14.1643,25.83315 36.9242,52.33221 55.3253,64.41461 4.8125,3.15995 12.125,8.08624 16.25,10.94731 4.125,2.86108 10.3125,6.63865 13.75,8.39464 29.6201,15.13081 38.4874,18.55229 52.2726,20.16941 13.8415,1.62373 31.5356,0.70416 42.1024,-2.18807 z m -51.9833,-33.39042 c -3.0896,-7.39433 -3.4439,-11.14791 -1.226,-12.98858 1.6964,-1.40787 2.4046,-1.30445 4.586,0.66965 4.0322,3.64913 6.4969,10.57118 4.9628,13.93812 -2.0106,4.41288 -6.1379,3.60991 -8.3228,-1.61919 z m -29.3899,-1.33198 c -1.2425,-1.49712 -1.2281,-3.55985 0.072,-10.2382 1.9558,-10.05027 3.144,-11.92832 6.4329,-10.16812 1.8416,0.98555 2.3688,2.6628 2.3688,7.5358 0,9.8779 -5.1533,17.35272 -8.8732,12.87052 z m 64.2645,1.04053 C 484.6195,230.23139 480,219.21165 480,215.67269 c 0,-4.21415 2.7049,-6.01686 5.7879,-3.85744 3.4477,2.41491 7.6874,15.10736 5.9607,17.84479 -1.5948,2.52832 -3.1551,3.09512 -5.1073,1.85532 z m 20.8842,-16.05322 c -4.2184,-6.65179 -4.5811,-8.88436 -2.0134,-12.39588 1.7381,-2.37692 1.7983,-2.37703 4.4154,-0.009 7.4923,6.78049 9.8935,17.14695 4.1605,17.96175 -2.1598,0.30695 -3.6367,-0.94371 -6.5625,-5.55722 z m -124.834,-7.02238 c -2.6599,-2.65991 -1.4782,-6.80978 3.7796,-13.27322 5.5067,-6.76955 7.2542,-7.58543 9.7654,-4.55951 2.1565,2.59833 0.6895,7.28433 -3.926,12.54107 -4.97,5.66051 -7.7311,7.1795 -9.619,5.29166 z m 143.0443,-4.78783 c -4.2548,-5.05652 -5.3526,-9.57255 -2.9187,-12.00649 2.3495,-2.34951 5.4726,-0.91571 10.1731,4.67055 3.5405,4.20761 4.1086,7.33347 1.7598,9.68227 -2.5064,2.50643 -5.6108,1.69837 -9.0142,-2.34633 z M 361.5,180.99826 c -1.6676,-1.66763 -1.9581,-5.91361 -0.5433,-7.94098 1.4509,-2.07919 9.7584,-6.80902 11.9594,-6.80902 1.0978,0 2.598,1.125 3.3339,2.5 1.8868,3.52555 -0.1541,6.75237 -6.6953,10.58578 -6.2483,3.66177 -6.0899,3.62904 -8.0547,1.66422 z m -16.25,-38.75 c -0.825,-0.825 -1.5,-2.68125 -1.5,-4.125 0,-4.06413 2.4726,-5.625 8.9107,-5.625 8.2376,0 12.7793,5.31 8.3393,9.75 -1.9463,1.94628 -13.8037,1.94628 -15.75,0 z m 325.375,151.5 c -4.8125,-1.29573 -10.0418,-2.38831 -11.6206,-2.42793 -1.9046,-0.0479 -3.5872,-1.40925 -5,-4.04569 -1.1712,-2.1855 -3.9332,-5.83618 -6.1378,-8.11261 -2.5503,-2.63332 -4.9653,-7.21292 -6.6387,-12.58888 -4.3735,-14.05056 -3.3317,-16.90931 16.2893,-44.69989 13.7763,-19.51213 26.0314,-44.36537 30.5104,-61.87437 1.8465,-7.2184 4.7264,-15.57399 6.3998,-18.56795 8.9545,-16.02134 36.1265,-46.758487 48.2867,-54.622157 7.6871,-4.97104 18.7853,-8.06378 28.809,-8.02825 16.1884,0.0574 35.2375,8.68364 45.1844,20.46143 2.8421,3.365287 7.1514,8.146537 9.5762,10.624997 12.0791,12.3465 22.2615,32.54603 24.1834,47.97429 1.8937,15.20151 -9.2712,39.5456 -23.9033,52.11953 -6.7431,5.79458 -26.3874,18.67016 -40.3138,26.42313 -27.4051,15.25673 -32.7974,18.33409 -43.125,24.61122 -6.1875,3.76077 -16.3125,10.5984 -22.5,15.19473 -14.4714,10.75 -18.4377,13.09717 -28.5884,16.91787 -9.8028,3.68975 -10.0581,3.69738 -21.4116,0.64053 z m 25.84,-12.56182 c 3.663,-2.30864 8.0663,-5.24039 9.785,-6.515 15.6819,-11.62953 21.3151,-15.47344 33.7844,-23.0534 7.8873,-4.79463 19.8583,-11.62233 26.6022,-15.17269 25.643,-13.49992 53.601,-32.4067 60.7555,-41.08632 2.0993,-2.54684 5.9298,-8.87303 8.5123,-14.05819 4.0239,-8.07943 4.7588,-10.86753 5.1388,-19.49711 0.4466,-10.14279 -1.7828,-19.30547 -4.6973,-19.30547 -1.6334,0 -4.2755,5.29272 -6.2398,12.5 -2.1999,8.07179 -21.1112,32.60359 -32.8058,42.55578 -10.5107,8.94475 -13.7741,10.91489 -33.112,19.99009 -9.9988,4.69243 -20.4592,10.04017 -23.2452,11.88386 -8.8556,5.86037 -22.3622,17.46369 -37.8181,32.48899 -8.25,8.02015 -17.3906,15.98537 -20.3125,17.70047 -2.9219,1.7151 -5.3125,3.98024 -5.3125,5.03363 0,3.42303 11.3171,1.35556 18.965,-3.46464 z m -20.4402,-7.70348 c 3.2176,-2.20842 14.2877,-11.93418 24.6002,-21.6128 24.7587,-23.23686 32.8553,-29.42065 47.6403,-36.38535 38.4274,-18.10178 40.7829,-19.85686 61.6274,-45.91892 8.5949,-10.74633 10.3358,-13.8062 13.7254,-24.12426 2.135,-6.4993 3.8819,-12.89188 3.8819,-14.20573 0,-1.31385 -2.6719,-7.33293 -5.9375,-13.37573 -7.9812,-14.76875 -16.0219,-22.612807 -28.5075,-27.810597 -9.0191,-3.75466 -10.4712,-3.99476 -21.6734,-3.5838 -14.9248,0.54752 -19.8454,2.84358 -34.359,16.032487 -10.9285,9.93104 -11.1356,10.16803 -25.8687,29.60314 -10.5136,13.86898 -12.372,17.7274 -15.5435,32.27186 -2.9084,13.33803 -16.5384,41.67947 -27.5657,57.31843 -20.9131,29.65922 -22.9425,34.25492 -19.2526,43.59836 4.9148,12.4452 16.1239,15.81744 27.2327,8.19291 z m 49.0677,-83.77028 C 718.6966,186.43014 715,180.48748 715,173.4878 c 0,-8.51069 9.6261,-29.48121 16.2334,-35.36454 1.5442,-1.375 4.3612,-4.75 6.26,-7.5 2.1802,-3.15751 6.6177,-6.80386 12.042,-9.89519 20.5852,-11.73148 21.0614,-11.87455 31.1054,-9.34544 7.5111,1.89133 9.6672,5.54488 10.3628,17.55981 0.5139,8.87804 0.2464,10.23966 -3.5637,18.13969 -9.8496,20.42223 -19.777,31.3898 -35.21,38.89936 -13.6017,6.61842 -19.8403,7.4762 -27.1374,3.73119 z m 19.4361,-9.8891 c 3.353,-1.47108 8.517,-4.40042 11.4754,-6.50964 6.7615,-4.82065 18.6985,-20.26553 19.7583,-25.56473 0.7417,-3.70817 0.5541,-4.00095 -2.563,-4.00095 -7.4426,0 -28.3571,11.63088 -39.7082,22.08238 -3.2362,2.9797 -6.4327,5.41762 -7.1033,5.41762 -2.3461,0 -2.8668,5.08929 -0.8376,8.1862 2.6133,3.98843 10.4102,4.14829 18.9784,0.38912 z m 28.188,-45.72864 c 9.6544,-2.16995 9.7834,-2.25048 9.7834,-6.10424 0,-5.6703 -4.4849,-10.90999 -8.6221,-10.073 -4.7701,0.96506 -25.4428,13.05129 -27.6279,16.15261 -1.0312,1.46365 -3.9573,5.18125 -6.5023,8.26132 -2.545,3.08007 -4.3699,6.0167 -4.0552,6.52583 0.3147,0.50914 6.5726,-2.10938 13.9064,-5.81893 8.0621,-4.0779 17.2026,-7.61408 23.1177,-8.94359 z m 164.442,158.54047 c -10.3438,-3.41786 -15.0338,-7.56983 -22.139,-19.59913 -3.4482,-5.83809 -6.2696,-10.924 -6.2696,-11.30203 0,-0.73956 -5.7371,-9.72829 -14.9079,-23.35731 -12.4725,-18.53574 -15.2639,-25.82254 -15.3279,-40.01175 -0.065,-14.37506 9.626,-29.36238 23.9076,-36.97438 4.168,-2.22153 7.5782,-4.51513 7.5782,-5.0969 0,-0.58177 -2.1689,-0.76685 -4.8198,-0.41128 C 899.09,156.6995 895,154.60315 895,150.66466 c 0,-3.26333 7.6942,-13.22355 12.1586,-15.73927 4.4414,-2.50285 17.7021,-2.18175 23.2269,0.56242 2.7618,1.37184 5.2091,1.89663 5.8291,1.25 0.5878,-0.613 1.2628,-6.4583 1.5,-12.98955 0.3751,-10.33059 0.9733,-13.03425 4.5997,-20.78857 2.5963,-5.551637 5.3539,-9.547967 7.3114,-10.595577 2.8476,-1.524 3.3651,-1.40755 5.5086,1.23955 1.6429,2.02887 2.3657,4.90694 2.3657,9.419167 0,3.64323 0.7803,7.56352 1.7762,8.92402 1.7061,2.3307 1.965,2.22307 6.5625,-2.72851 4.9818,-5.36544 12.2982,-7.97008 22.388,-7.97008 5.3654,0 12.808,2.98461 13.7838,5.5275 1.4818,3.8614 -4.9017,17.20445 -11.0187,23.03207 -3.2358,3.08263 -5.5932,6.07407 -5.2387,6.64762 0.3544,0.57355 3.7748,1.04281 7.6009,1.04281 8.7196,0 25.0408,6.91953 31.995,13.5646 9.0167,8.61605 9.2825,19.83744 1.109,46.81729 -6.9685,23.0019 -12.4803,33.27688 -26.6448,49.67034 -3.292,3.80997 -7.9476,11.17432 -10.346,16.36521 -2.3983,5.19089 -5.2758,10.19753 -6.3944,11.12588 -1.1186,0.92833 -3.7053,4.11735 -5.7482,7.08667 -7.4614,10.84473 -25.1447,15.47058 -40.166,10.50716 z m 12.6583,-8.5156 c 1.0001,-1.787 1.5088,-1.86487 3.1709,-0.48541 2.2412,1.86003 6.8947,1.06755 11.5174,-1.96139 2.3508,-1.54027 2.9948,-3.06041 2.9948,-7.06851 0,-3.97151 0.3334,-4.7729 1.5,-3.60624 3.7369,3.73687 8.5472,-1.24061 5.9282,-6.1342 -1.8706,-3.4953 0.3197,-6.00356 3.174,-3.6347 2.3365,1.93913 2.0561,2.20013 6.0237,-5.6061 1.7471,-3.4375 4.6273,-8.18741 6.4004,-10.55535 1.773,-2.36793 3.2237,-5.78981 3.2237,-7.60416 0,-4.0604 1.1457,-5.35814 3.2146,-3.64111 1.1412,0.94712 2.2976,0.5213 4.2368,-1.5602 2.1168,-2.27216 2.5078,-3.80631 1.8947,-7.43524 -0.7448,-4.40845 0.8679,-7.51645 2.5163,-4.84932 1.4523,2.34992 3.0721,1.2991 5.5824,-3.62157 4.8915,-9.588 10.3158,-28.35251 11.6747,-40.38668 l 1.3725,-12.15363 -3.756,-4.72137 c -5.5413,-6.96549 -16.9062,-12.62137 -25.612,-12.74608 -7.5931,-0.10875 -14.874,1.84243 -14.874,3.98606 0,0.73799 0.7735,2.22984 1.7188,3.31523 0.9453,1.08539 2.643,6.20632 3.7727,11.37986 l 2.054,9.40644 -3.1477,6.52494 c -1.7313,3.58871 -3.1478,7.27768 -3.1478,8.19772 0,5.21704 -4.2881,1.46006 -7.5248,-6.59267 -2.1165,-5.26582 -8.3505,-12.56787 -10.7297,-12.56787 -0.96,0 -1.7455,1.125 -1.7455,2.5 0,1.375 -0.5625,2.5 -1.25,2.5 -1.5938,0 -1.6361,-3.36382 -0.055,-4.34126 1.8209,-1.12534 0.2654,-3.91139 -3.0192,-5.40795 -2.401,-1.09397 -3.3352,-0.89699 -5.1249,1.08069 -2.812,3.10725 -6.8772,3.07684 -10.8924,-0.0815 -3.8036,-2.99191 -5.1006,-3.10515 -7.1589,-0.625 -2.11,2.54239 -3.3325,2.35659 -4.1122,-0.625 -1.026,-3.92364 -8.0806,-3.1858 -18.78,1.96422 -11.1259,5.35528 -17.2927,11.3727 -20.7727,20.26955 -4.8859,12.49088 -2.5428,30.67562 4.3577,33.81968 1.8421,0.8393 3.0572,2.44515 3.0572,4.04021 0,2.66065 6.8346,14.47533 12.3175,21.29258 1.6184,2.01225 5.0463,8.00791 7.6177,13.3237 4.3986,9.0932 8.8148,14.95137 8.8148,11.69311 0,-0.77168 0.7836,-1.40305 1.7413,-1.40305 2.1206,0 3.9316,4.15071 2.0802,4.76782 -1.9749,0.6583 -1.5953,3.44758 0.7338,5.39163 2.7314,2.27982 11.6276,5.79871 15.0701,5.96094 1.5127,0.0713 3.2864,-0.82819 3.9415,-1.99884 z m -10.7662,-5.35458 c -2.0119,-3.22164 -1.9677,-5.01697 0.1237,-5.01697 1.3779,0 4.5756,4.84568 4.5756,6.93382 0,1.60661 -3.353,0.23891 -4.6993,-1.91685 z M 953.75,271.7691 c 0,-2.20741 2.691,-1.82299 3.4636,0.49479 0.2721,0.8164 -0.3959,1.48437 -1.4844,1.48437 -1.0886,0 -1.9792,-0.89062 -1.9792,-1.97916 z m -12.3842,-7.80446 c -1.6876,-3.15338 -1.7508,-5.21638 -0.1598,-5.21638 2.0166,0 4.1899,5.10409 2.7756,6.5184 -0.8333,0.83334 -1.7052,0.39933 -2.6158,-1.30202 z m 20.7176,-3.54971 c -1.5225,-1.52242 -0.8614,-4.16667 1.0416,-4.16667 1.0417,0 1.875,1.11112 1.875,2.5 0,2.4903 -1.3319,3.2514 -2.9166,1.66667 z m -35.0146,-2.70259 c -2.3913,-2.64231 -2.709,-5.21408 -0.6441,-5.21408 1.7086,0 4.7299,3.7485 4.7856,5.9375 0.057,2.24088 -1.7435,1.92638 -4.1415,-0.72342 z m 22.9939,-7.59689 c -1.7265,-3.22599 -1.6574,-3.86719 0.4165,-3.86719 1.972,0 3.5896,4.65545 1.9662,5.65877 -0.5885,0.36368 -1.6607,-0.44252 -2.3827,-1.79158 z m 33.1157,-2.53081 c -0.3955,-0.64 -0.1475,-1.51695 0.5512,-1.94878 0.6987,-0.43182 1.2704,0.0917 1.2704,1.16363 0,2.19566 -0.7501,2.51895 -1.8216,0.78515 z M 915,244.2691 c 0,-2.20741 2.691,-1.82299 3.4636,0.49479 0.2721,0.8164 -0.3959,1.48437 -1.4844,1.48437 -1.0886,0 -1.9792,-0.89062 -1.9792,-1.97916 z m 20,0.72916 c 0,-0.6875 0.5625,-1.25 1.25,-1.25 0.6875,0 1.25,0.5625 1.25,1.25 0,0.6875 -0.5625,1.25 -1.25,1.25 -0.6875,0 -1.25,-0.5625 -1.25,-1.25 z m 40,-1.32377 c 0,-0.72808 0.5625,-0.97613 1.25,-0.55123 0.6875,0.4249 1.25,1.0206 1.25,1.32378 0,0.30317 -0.5625,0.55122 -1.25,0.55122 -0.6875,0 -1.25,-0.5957 -1.25,-1.32377 z m -15,-2.42623 c 0,-1.375 0.5625,-2.5 1.25,-2.5 0.6875,0 1.25,1.125 1.25,2.5 0,1.375 -0.5625,2.5 -1.25,2.5 -0.6875,0 -1.25,-1.125 -1.25,-2.5 z m -32.9506,-2.11731 c -1.5453,-1.54526 -0.7784,-5.38269 1.0756,-5.38269 1.0313,0 1.875,1.0918 1.875,2.42623 0,2.60904 -1.6474,4.2597 -2.9506,2.95646 z m -23.9244,-5.38269 c -1.0194,-1.6494 0.4753,-3.99008 1.9614,-3.07161 1.5182,0.93834 1.5084,4.32161 -0.013,4.32161 -0.6469,0 -1.5239,-0.5625 -1.9488,-1.25 z m 42.5126,-1.22961 c -0.9219,-1.49171 0.2482,-3.77039 1.9362,-3.77039 1.521,0 1.5308,3.38328 0.013,4.32162 -0.64,0.39555 -1.517,0.14748 -1.9488,-0.55123 z m 23.9118,0.3623 c -1.494,-1.49395 -0.8072,-4.13269 1.0756,-4.13269 1.0313,0 1.875,0.81055 1.875,1.80123 0,2.08831 -1.7841,3.49801 -2.9506,2.33146 z m 14.8916,-0.27592 c -0.4025,-0.65122 -0.199,-1.51332 0.4523,-1.91578 0.6512,-0.40247 1.5133,-0.19896 1.9157,0.45225 0.4025,0.65121 0.199,1.51331 -0.4522,1.91578 -0.6512,0.40247 -1.5133,0.19896 -1.9158,-0.45225 z m -67.3576,-0.9401 c -1.4383,-1.43829 -0.9103,-2.91667 1.0416,-2.91667 1.0313,0 1.875,0.84375 1.875,1.875 0,1.95197 -1.4784,2.47997 -2.9166,1.04167 z m 17.5208,-4.97917 c -0.4698,-0.46978 -0.8542,-2.00595 -0.8542,-3.41368 0,-2.41317 0.122,-2.4375 2.1339,-0.4256 1.4558,1.4557 1.7272,2.54067 0.8542,3.41368 -0.7039,0.70388 -1.6641,0.89539 -2.1339,0.4256 z m -28.368,-5.46333 c -1.7393,-3.24982 -0.4219,-5.64189 2.0001,-3.6318 1.9926,1.6537 2.4005,6.15763 0.5577,6.15763 -0.6633,0 -1.8143,-1.13662 -2.5578,-2.52583 z m 17.2027,-2.05275 c -0.3263,-0.57553 -0.963,-2.59329 -1.4149,-4.48392 -0.6008,-2.51375 -0.3478,-3.4375 0.9417,-3.4375 2.1319,0 3.8996,6.13467 2.2446,7.78973 -0.648,0.64796 -1.4451,0.70722 -1.7714,0.13169 z m 35.3111,-1.67142 c 0,-2.43648 1.3258,-3.2575 2.8306,-1.75278 1.0013,1.00138 -0.3093,4.25278 -1.7143,4.25278 -0.614,0 -1.1163,-1.125 -1.1163,-2.5 z m 35,1.25 c 0,-0.6875 0.5293,-1.25 1.1762,-1.25 0.647,0 1.5239,0.5625 1.9488,1.25 0.4249,0.6875 -0.1044,1.25 -1.1762,1.25 -1.0718,0 -1.9488,-0.5625 -1.9488,-1.25 z m -12.9166,-3.33333 c -1.4383,-1.43829 -0.9103,-2.91667 1.0416,-2.91667 1.0313,0 1.875,0.84375 1.875,1.875 0,1.95197 -1.4784,2.47997 -2.9166,1.04167 z m -85.034,-5.03398 c -1.494,-1.49395 -0.8072,-4.13269 1.0756,-4.13269 1.0313,0 1.875,0.81055 1.875,1.80123 0,2.08831 -1.7841,3.49801 -2.9506,2.33146 z M 945,207.49826 c 0,-1.61111 0.633,-2.49732 1.5625,-2.1875 0.8594,0.28647 1.5625,1.27084 1.5625,2.1875 0,0.91667 -0.7031,1.90104 -1.5625,2.1875 C 945.633,209.99559 945,209.10938 945,207.49826 Z m 21.875,0 c -0.4989,-0.80731 -0.3447,-2.03032 0.3428,-2.71782 0.8334,-0.83334 1.5524,-0.76073 2.1572,0.21782 0.4989,0.80732 0.3447,2.03033 -0.3428,2.71783 -0.8334,0.83334 -1.5524,0.76072 -2.1572,-0.21783 z M 913.75,202.3941 c 0,-3.04631 2.921,-2.61571 3.5292,0.52025 0.2392,1.23345 -0.3985,2.08391 -1.5625,2.08391 -1.1596,0 -1.9667,-1.06875 -1.9667,-2.60416 z m 18.3334,1.77083 c -1.5725,-1.57247 -0.8333,-5.41667 1.0416,-5.41667 1.1667,0 1.875,1.18055 1.875,3.125 0,3.03484 -1.2171,3.99118 -2.9166,2.29167 z m 71.2499,0 c -1.4383,-1.43829 -0.9103,-2.91667 1.0417,-2.91667 1.0312,0 1.875,0.84375 1.875,1.875 0,1.95197 -1.4784,2.47997 -2.9167,1.04167 z M 991.25,200.07204 c 0,-0.64693 0.5625,-1.52388 1.25,-1.94878 0.6875,-0.4249 1.25,0.10438 1.25,1.17623 0,1.07182 -0.5625,1.94877 -1.25,1.94877 -0.6875,0 -1.25,-0.5293 -1.25,-1.17622 z m -88.2395,-3.04653 c -1.0223,-2.66405 -0.1636,-6.10247 1.677,-6.71533 1.0203,-0.3397 1.5625,0.7917 1.5625,3.26015 0,4.1713 -2.1037,6.41506 -3.2395,3.45518 z M 1010,197.49826 c 0,-0.6875 0.5625,-1.25 1.25,-1.25 0.6875,0 1.25,0.5625 1.25,1.25 0,0.6875 -0.5625,1.25 -1.25,1.25 -0.6875,0 -1.25,-0.5625 -1.25,-1.25 z m -120,-1.875 c 0,-1.03125 0.8438,-1.875 1.875,-1.875 1.0313,0 1.875,0.84375 1.875,1.875 0,1.03125 -0.8437,1.875 -1.875,1.875 -1.0312,0 -1.875,-0.84375 -1.875,-1.875 z m 68.75,-0.69877 c 0,-0.72808 0.5625,-0.97613 1.25,-0.55123 0.6875,0.4249 1.25,1.0206 1.25,1.32378 0,0.30317 -0.5625,0.55122 -1.25,0.55122 -0.6875,0 -1.25,-0.5957 -1.25,-1.32377 z m -40,-2.42623 c 0,-1.38888 0.8334,-2.5 1.875,-2.5 1.0417,0 1.875,1.11112 1.875,2.5 0,1.38889 -0.8333,2.5 -1.875,2.5 -1.0416,0 -1.875,-1.11111 -1.875,-2.5 z m 8.1813,-7.8125 c 1.7995,-5.95622 5.1039,-6.37622 3.619,-0.46 -0.4517,1.79988 -1.642,3.2725 -2.645,3.2725 -1.3097,0 -1.5843,-0.7927 -0.974,-2.8125 z m 16.8187,1.5625 c 0,-0.6875 0.8438,-1.25 1.875,-1.25 1.0313,0 1.875,0.5625 1.875,1.25 0,0.6875 -0.8437,1.25 -1.875,1.25 -1.0312,0 -1.875,-0.5625 -1.875,-1.25 z m -46.0427,-2.57536 c 0.2298,-1.5696 1.1682,-3.10115 2.0854,-3.40345 1.1331,-0.37346 1.5338,0.3651 1.25,2.30418 -0.2297,1.5696 -1.1681,3.10115 -2.0854,3.40345 -1.1331,0.37346 -1.5338,-0.3651 -1.25,-2.30418 z m 14.9858,0.6354 c 0.2376,-1.22532 1.1888,-2.47989 2.1138,-2.78791 1.0758,-0.35823 1.5262,0.24281 1.25,1.66784 -0.2375,1.22532 -1.1887,2.47988 -2.1138,2.78791 -1.0757,0.35822 -1.5262,-0.24281 -1.25,-1.66784 z m 99.2352,0.77634 c -0.8538,-1.38154 1.118,-2.87331 2.2723,-1.71906 1.1885,1.18848 0.967,2.88268 -0.3769,2.88268 -0.6469,0 -1.4998,-0.52363 -1.8954,-1.16362 z M 967.5,183.04949 c 0,-1.07183 0.5717,-1.59545 1.2704,-1.16363 0.6987,0.43183 0.9468,1.30878 0.5512,1.94878 -1.0715,1.7338 -1.8216,1.41051 -1.8216,-0.78515 z m 31.25,-2.5 c 0,-1.07183 0.5625,-1.60113 1.25,-1.17623 0.6875,0.4249 1.25,1.30185 1.25,1.94878 0,0.64692 -0.5625,1.17622 -1.25,1.17622 -0.6875,0 -1.25,-0.87695 -1.25,-1.94877 z m -76.0575,-6.76313 c 0.2379,-1.632 1.1356,-3.19883 1.995,-3.48186 2.249,-0.74065 1.9263,2.83578 -0.4325,4.7934 -1.7419,1.44559 -1.9402,1.27913 -1.5625,-1.31154 z m 14.8075,-0.0381 c 0,-1.38888 0.8334,-2.5 1.875,-2.5 1.0417,0 1.875,1.11112 1.875,2.5 0,1.38889 -0.8333,2.5 -1.875,2.5 -1.0416,0 -1.875,-1.11111 -1.875,-2.5 z m 80.3125,1.60215 c -2.1308,-0.76433 -1.9854,-4.10215 0.1787,-4.10215 1.8859,0 3.7108,3.35442 2.2667,4.16629 -0.4856,0.27299 -1.5861,0.24413 -2.4454,-0.0641 z M 908.75,174.38274 c 0,-1.76108 2.6679,-5.63448 3.8809,-5.63448 2.1969,0 0.628,5.57394 -1.6934,6.01639 -1.2031,0.22931 -2.1875,0.0575 -2.1875,-0.38191 z m 97.0633,-9.96944 c -0.9222,-2.40311 1.6626,-3.97644 2.9939,-1.82236 1.1003,1.78024 0.4601,3.65732 -1.2473,3.65732 -0.5734,0 -1.3593,-0.82573 -1.7466,-1.83496 z M 990.25,158.49826 c -1.6954,-1.69542 -2.0169,-4.75 -0.5,-4.75 1.5578,0 4,2.82382 4,4.625 0,2.03299 -1.5371,2.08789 -3.5,0.125 z m 11.6909,-5.89323 c -0.4024,-0.65122 -0.1989,-1.51332 0.4523,-1.91578 0.6512,-0.40247 1.5133,-0.19896 1.9158,0.45225 0.4024,0.65121 0.1989,1.51331 -0.4523,1.91578 -0.6512,0.40247 -1.5133,0.19896 -1.9158,-0.45225 z m -22.2844,14.77617 c -1.0274,-11.33067 -7.3764,-16.77885 -13.9508,-11.97147 -1.97,1.44048 -2.0575,2.06256 -0.6581,4.67742 1.9681,3.67738 12.6469,14.89501 14.1885,14.90436 0.6111,0.004 0.8003,-3.42092 0.4204,-7.61031 z M 932.5,150.16684 c 0,-0.59479 -1.1405,-2.5314 -2.5345,-4.30359 -2.8281,-3.59527 -10.7072,-5.36842 -16.5042,-3.71416 -5.7789,1.64911 -4.0696,3.36157 6.1287,6.14016 11.4364,3.11591 12.91,3.33024 12.91,1.87759 z m 16.0161,-10.51173 c 0.7272,-0.87622 2.2651,-4.37053 3.4176,-7.76512 1.7489,-5.15113 1.8605,-7.21356 0.675,-12.46935 -1.9001,-8.424 -3.2452,-10.53589 -5.362,-8.41909 -1.062,1.062 -1.7616,6.46613 -2.0619,15.92705 -0.4431,13.9571 0.217,16.47896 3.3313,12.72651 z m 33.0176,-12.90905 c 8.9402,-7.51388 12.6721,-13.60045 9.6033,-15.66278 -2.5524,-1.71527 -13.7474,-0.11574 -17.3041,2.4724 -2.6524,1.93004 -6.589,7.85603 -11.4926,17.30037 -0.7804,1.50304 -1.0909,3.58754 -0.69,4.63223 1.2284,3.2013 10.5479,-0.89625 19.8834,-8.74222 z M 2045.9886,285.5173 c -4.6127,-0.90867 -9.9564,-2.44031 -11.875,-3.40364 -1.9188,-0.96332 -9.1135,-3.26881 -15.9885,-5.12331 -16.4467,-4.43637 -20.1375,-6.17361 -22.3962,-10.54126 -1.687,-3.26221 -2.6412,-3.7009 -9.119,-4.19208 -9.1578,-0.69438 -28.4245,-10.0646 -39.5867,-19.2528 -4.2556,-3.50297 -9.4048,-6.92133 -11.4428,-7.59636 -4.6331,-1.53464 -9.3326,-8.29266 -9.3231,-13.40694 0,-2.13271 0.5644,-7.25265 1.2453,-11.37765 1.0862,-6.58062 0.9703,-7.69432 -0.9448,-9.08525 -5.0171,-3.64375 -20.7995,-16.04042 -22.3642,-17.56653 -0.9314,-0.90848 -1.6935,-3.0737 -1.6935,-4.81159 0,-5.04138 -8.2029,-17.14375 -13.7224,-20.24594 -4.284,-2.40772 -5.0503,-3.56779 -6.4308,-9.73641 l -1.5671,-7.00301 5.0769,-4.73569 c 6.5404,-6.10083 11.6519,-7.42508 28.6927,-7.4336 17.7934,-0.009 31.1977,-2.55633 49.2007,-9.35031 35.3378,-13.33582 66.4091,-31.470897 82.3622,-48.071677 5.6544,-5.88391 15.3868,-21.28103 21.7819,-34.45999 5.2902,-10.90221 9.566,-16.79017 13.772,-18.9652 2.21,-1.14285 8.65,-2.18869 15.9564,-2.5913 l 12.2508,-0.67505 6.6258,6.88912 c 4.8765,5.07028 10.0086,8.58556 19.4384,13.31467 11.5643,5.7996 12.8131,6.75932 12.8185,9.85166 0,2.10054 3.1622,8.26236 8.1635,15.9261 4.4865,6.875 9.8845,16.13771 11.9955,20.5838 2.111,4.44608 5.3988,10.35233 7.3062,13.125 7.6614,11.136717 10.5373,25.219637 9.6801,47.402797 -1.6593,42.9465 -15.4118,79.22108 -38.9403,102.71243 -30.7,30.65149 -69.6137,45.99766 -100.9725,39.82001 z m 32.1365,-11.62892 c 12.4212,-3.28922 30.4101,-11.56693 39.2018,-18.03903 27.9619,-20.58436 43.4268,-41.3598 51.3448,-68.97609 6.5321,-22.78281 9.0724,-40.28391 8.1644,-56.25 -0.9734,-17.11539 -1.7694,-19.80977 -9.9708,-33.749997 -3.6402,-6.1875 -7.3772,-12.72318 -8.3045,-14.52375 -5.1849,-10.06894 -8.0771,-14.73653 -11.9136,-19.22625 -2.35,-2.75 -4.8513,-5.72693 -5.5586,-6.6154 -1.4883,-1.86954 -5.311,-1.04796 -9.7419,2.09365 -5.332,3.7806 -5.7838,5.53155 -3.8105,14.76915 1.1512,5.38971 1.7647,14.90955 1.6757,26.0026 -0.1392,17.363497 -0.186,17.636507 -6.0045,34.999997 -3.2253,9.625 -6.6813,18.75907 -7.6801,20.29792 -0.9986,1.53885 -4.1427,7.16385 -6.987,12.5 -16.6854,31.30458 -51.399,64.17696 -78.4251,74.26526 -11.7666,4.39226 -12.1426,4.78751 -10.325,10.85422 0.8029,2.67997 1.4599,6.84789 1.4599,9.26207 0,2.41418 0.7031,4.94275 1.5625,5.61903 0.8593,0.67629 6.625,2.98187 12.8125,5.12352 13.7425,4.7566 28.4688,5.30861 42.5,1.5931 z m -39.1719,-13.73812 c -0.9195,-0.58285 -1.482,-2.40236 -1.25,-4.04336 0.358,-2.53207 2.1245,-3.57511 11.6719,-6.89172 6.1875,-2.14944 14.625,-5.89195 18.75,-8.31668 7.4281,-4.36634 9.4005,-6.03142 26.1007,-22.03384 8.1015,-7.76287 20.7743,-23.1203 20.7743,-25.17506 0,-0.5147 2.2483,-4.63669 4.9963,-9.15996 5.9158,-9.7376 13.82,-27.24693 18.9744,-42.03138 3.2416,-9.29818 3.6941,-12.28463 3.6236,-23.91523 -0.095,-15.67941 1.3519,-18.50209 6.728,-13.12599 3.0139,3.01385 3.1767,3.87294 3.1589,16.6719 -0.02,14.8159 -2.5791,25.32452 -9.6765,39.74432 -2.0304,4.125 -4.34,9.49004 -5.1326,11.9223 -2.3198,7.11928 -18.147,34.24908 -25.0179,42.88385 -3.477,4.36962 -9.5747,10.67059 -13.5505,14.00217 -3.9759,3.33157 -9.5086,8.33761 -12.2952,11.12455 -10.8153,10.8167 -41.2972,22.50115 -47.8554,18.34413 z m -28.9531,-0.777 c 0,-1.03125 -0.8438,-1.875 -1.875,-1.875 -1.0313,0 -1.875,0.84375 -1.875,1.875 0,1.03125 0.8437,1.875 1.875,1.875 1.0312,0 1.875,-0.84375 1.875,-1.875 z m -15.5623,-11.5625 c 1.604,-7.49887 2.7088,-8.78542 8.2915,-9.6569 10.3895,-1.62182 26.7119,-7.18407 34.1458,-11.63603 22.0633,-13.21319 49.0402,-41.09269 61.9467,-64.01957 2.5158,-4.46875 6.0279,-10.65625 7.8049,-13.75 1.777,-3.09375 5.2721,-11.79467 7.7669,-19.3354 7.4421,-22.49423 8.249,-45.521607 2.3753,-67.795617 -0.5497,-2.0852 -10.3823,-6.93882 -12.4497,-6.14552 -2.4206,0.92892 -5.0851,6.75236 -6.0744,13.27654 -0.4691,3.09375 -2.5096,11.00998 -4.5344,17.59163 -3.0255,9.83451 -5.673,14.988177 -14.8596,28.925307 -12.3571,18.74733 -22.2207,30.24115 -36.3507,42.35869 -20.5473,17.62089 -52.2832,38.09984 -65.625,42.3475 -2.75,0.87552 -7.25,2.54646 -10,3.71319 -2.75,1.16673 -6.4063,2.7005 -8.125,3.40835 -2.9004,1.19452 -3.128,1.90662 -3.1662,9.90867 -0.023,4.74644 -0.8655,10.50648 -1.875,12.81504 -1.7961,4.10701 -1.7523,4.26146 2.1238,7.5 2.1767,1.81864 8.6455,5.69124 14.375,8.60577 8.2881,4.21605 11.7539,5.30188 16.956,5.3125 6.126,0.0125 6.5851,-0.20366 7.2741,-3.42415 z m -30.3477,-23.07585 c -3.3559,-1.6197 -4.8115,-5.48616 -2.9223,-7.76256 0.7559,-0.91076 4.8805,-2.04496 9.1658,-2.52044 17.082,-1.89535 49.3365,-15.67846 67.0296,-28.64335 13.5796,-9.9506 27.3049,-22.34446 31.9076,-28.81225 2.0051,-2.81767 6.1941,-7.78621 9.3089,-11.04118 3.1147,-3.25498 7.4141,-9.40237 9.554,-13.66087 4.7835,-9.51934 6.9971,-11.19636 10.5432,-7.98721 1.4153,1.28078 2.5732,3.05431 2.5732,3.94119 0,3.78846 -9.5084,20.37352 -14.9778,26.12502 -3.2689,3.4375 -7.283,8.2259 -8.9202,10.64089 -5.9922,8.83808 -32.5645,31.37761 -45.234,38.36886 -15.441,8.5206 -37.6974,17.2173 -53.7477,21.00195 -9.0135,2.12537 -10.525,2.16242 -14.2803,0.34995 z m -20.5407,-2.92046 c 2.0394,-4.47606 1.8263,-6.08877 -1.1622,-8.79336 -2.564,-2.32041 -2.6459,-2.31956 -4.375,0.0451 -3.2494,4.4437 -1.5785,11.932 2.6622,11.932 0.7834,0 2.0772,-1.43271 2.875,-3.18381 z m 10.8257,-26.02296 c 13.8653,-3.7206 30.3078,-11.36033 45.625,-21.19886 21.9317,-14.0873 29.5935,-20.19749 47.8561,-38.16544 11.9667,-11.77362 31.6232,-39.384837 34.9072,-49.033747 4.1654,-12.23881 5.8228,-18.42636 7.2013,-26.88504 1.42,-8.71402 1.3832,-8.96924 -2.1599,-14.99969 -5.052,-8.59878 -6.9792,-8.50443 -11.3685,0.55656 -1.995,4.11845 -4.7496,9.07881 -6.1214,11.02304 -1.3718,1.94422 -4.02,6.56277 -5.8847,10.26344 -8.1495,16.17302 -28.0334,32.00005 -60.0551,47.802367 -4.125,2.03564 -10.241,5.15467 -13.5913,6.93118 -9.1201,4.83618 -30.3269,12.8498 -39.5337,14.93906 -4.4688,1.01408 -14.0313,2.43228 -21.25,3.15155 -17.6224,1.7559 -19.002,2.36838 -18.5125,8.21819 0.3588,4.28915 0.7566,4.71146 5.3875,5.71995 7.2113,1.57045 27.746,-0.052 39.0395,-3.08451 5.3407,-1.43409 11.6792,-3.03834 14.0855,-3.56501 6.226,-1.36274 26.926,-10.18322 34.7425,-14.80414 3.6396,-2.15166 6.849,-3.91213 7.1318,-3.91213 0.2829,0 6.9265,-3.94366 14.7638,-8.76369 11.9695,-7.36148 15.9285,-10.65622 24.7431,-20.591667 5.7716,-6.50538 11.6889,-13.37162 13.1496,-15.2583 2.397,-3.09593 2.9759,-3.28457 5.9375,-1.93513 6.4784,2.95173 3.9453,8.97912 -11.0856,26.377657 -9.4101,10.89244 -11.944,12.96573 -26.4572,21.64793 -26.0883,15.60667 -51.0172,27.28297 -62.3005,29.18062 -2.75,0.4625 -8.3964,1.85488 -12.5475,3.09421 -11.3945,3.40185 -33.5239,4.46429 -40.504,1.94461 -4.8083,-1.7357 -5.7903,-1.7652 -7.3352,-0.22032 -1.5448,1.54488 -1.348,2.70465 1.4709,8.66326 3.9201,8.28642 14.5201,17.31999 23.9158,20.38156 3.4375,1.12011 6.7843,2.52993 7.4375,3.13291 1.6131,1.48927 3.9595,1.36265 11.3125,-0.61042 z m -55.625,-47.66823 c 0,-2.41931 -2.4539,-3.67111 -4.056,-2.06906 -0.9508,0.95081 -0.8783,1.89215 0.2506,3.25233 1.7621,2.12331 3.8054,1.488 3.8054,-1.18327 z m 228.4133,-98.355007 c 3.6227,-1.50151 6.5867,-3.47026 6.5867,-4.375 0,-0.90474 -0.4904,-1.64499 -1.0897,-1.64499 -2.0852,0 -20.6405,-12.77317 -23.1031,-15.90392 -2.3254,-2.95621 -3.0159,-3.11341 -11.127,-2.53306 -11.912,0.8523 -13.2834,2.45804 -8.5176,9.97294 2.0244,3.19204 5.1597,6.77282 6.9674,7.9573 2.5723,1.68546 20.1827,8.66672 23.0958,9.15586 0.3304,0.0555 3.5648,-1.12762 7.1875,-2.62913 z M 1032.5639,269.56948 c -12.8395,-12.90452 -14.168,-14.69408 -13.0572,-17.58879 1.7,-4.43003 6.0711,-1.86486 18.2253,10.69537 6.7475,6.97278 12.2681,13.32903 12.2681,14.125 0,1.84772 -2.5766,4.4472 -4.4081,4.4472 -0.7744,0 -6.6371,-5.25545 -13.0281,-11.67878 z m 644.0074,1.59233 c -8.2714,-3.25837 -19.29,-13.24405 -22.9447,-20.79366 -5.2688,-10.8839 -4.5658,-41.97872 1.2965,-57.33621 2.6712,-6.99809 7.5822,-15.48751 17.7327,-30.65376 11.8759,-17.74405 16.6961,-29.23299 18.1278,-43.20723 0.8058,-7.86593 0.7291,-8.15775 -3.221,-12.23325 -2.2713,-2.34323 -3.8583,-5.15345 -3.6172,-6.40488 0.6815,-3.536927 6.4489,-4.402707 10.9787,-1.648037 2.1375,1.299907 4.1881,2.363477 4.5568,2.363477 0.3688,0 0.2835,-3.927627 -0.1895,-8.728077 -0.9972,-10.12016 0.5527,-11.92268 6.8448,-7.96075 2.0211,1.27261 7.122,4.48194 11.3351,7.13185 14.4893,9.112927 22.3784,9.567597 45.0288,2.59505 5.1562,-1.58727 14.129,-3.82409 19.9395,-4.97072 9.1268,-1.80107 11.8485,-1.86934 20,-0.50164 20.4955,3.43884 32.805,11.06961 37.1976,23.059287 5.3966,14.72992 5.4061,32.199 0.025,45 -15.982,38.0157 -23.4731,50.68837 -39.6275,67.03799 -15.2,15.38378 -32.7834,26.00221 -59.4091,35.8766 -5.5,2.03974 -13.8933,5.2065 -18.6517,7.03725 -17.8712,6.87593 -34.8416,8.49689 -45.4021,4.33671 z m 26.5538,-8.91036 c 7.2655,-1.55022 10.9441,-3.22559 10.0958,-4.59796 -0.3295,-0.53314 -4.2722,-2.83375 -8.7616,-5.11248 -17.29,-8.77595 -32.6921,-29.05995 -35.863,-47.23025 -1.478,-8.46933 -3.4731,-9.94537 -5.9866,-4.42892 -2.5651,5.62977 -4.3194,32.75579 -2.6411,40.83976 1.6851,8.11726 8.3468,15.95671 17.3302,20.39403 5.808,2.86887 12.8439,2.90587 25.8263,0.13582 z m 26.8226,-15.31507 c 1.2582,-1.51608 -0.322,-2.7288 -9.6786,-7.428 -9.1714,-4.60618 -12.3505,-7.01418 -17.6787,-13.3907 -3.573,-4.27604 -7.5431,-9.82657 -8.8225,-12.33449 -3.9115,-7.66716 -6.5505,-20.0725 -6.2562,-29.40993 0.4339,-13.7716 0.3911,-15.63888 -0.3756,-16.40565 -1.444,-1.444 -3.2857,0.9831 -6.0639,7.99192 -2.3469,5.92001 -2.8399,9.55091 -2.8399,20.91373 0,12.61938 0.2895,14.31532 3.5215,20.625 4.0745,7.95435 18.5073,22.55694 26.1468,26.45429 4.2967,2.19206 10.4105,3.67459 19.134,4.63976 0.7751,0.0858 2.0861,-0.6594 2.9131,-1.65593 z m 19.3799,-11.86135 c 0.3988,-0.64529 -2.4554,-4.72342 -6.3427,-9.0625 -3.8872,-4.3391 -8.3436,-9.85802 -9.9032,-12.26427 -5.0606,-7.80823 -13.0138,-33.68157 -15.0434,-48.93951 -4.7919,-36.02331 -7.0769,-46.06049 -10.4861,-46.06049 -1.6734,0 -2.3071,3.12377 -3.1696,15.625 -0.427,6.1875 -1.9327,17.4375 -3.3459,25 -1.5454,8.26925 -2.6004,19.24482 -2.6466,27.53529 -0.069,12.31574 0.2723,14.54854 3.2007,20.94495 1.9475,4.25404 5.9183,9.69129 9.784,13.39779 9.5541,9.16039 18.7031,12.95756 35.739,14.83307 0.8188,0.0901 1.815,-0.36406 2.2138,-1.00933 z m 26.6137,-13.09318 c 6.0716,-7.7188 10.8003,-37.9964 8.8935,-56.94454 -1.9895,-19.76892 -4.9922,-27.34145 -15.2585,-38.47903 -6.2882,-6.82189 -7.3395,-7.37559 -19.9461,-10.50547 -5.6404,-1.40034 -12.089,-3.60115 -14.3304,-4.89069 -4.9115,-2.8257 -19.2884,-8.66386 -21.3354,-8.66386 -2.1037,0 -1.8175,1.75864 1.0878,6.68256 5.9467,10.07897 8.3574,19.89979 11.8602,48.31744 2.2508,18.25998 3.0273,21.54495 8.9418,37.82407 3.8089,10.48391 5.5206,13.37092 12.1749,20.53403 10.8636,11.69445 11.2967,11.12657 10.2823,-13.47923 -0.7313,-17.74148 -1.2668,-21.23622 -5.2848,-34.49229 -6.4107,-21.14923 -8.5067,-25.32794 -16.8398,-33.57418 -10.8942,-10.78051 -9.7799,-18.12074 1.7273,-11.37715 9.9667,5.84089 17.4647,18.54718 23.9777,40.63297 4.724,16.0193 6.4328,26.81657 7.6945,48.61928 0.7965,13.76452 1.898,15.46232 6.355,9.79609 z m 26.2813,-22.33662 c 9.1918,-18.90764 10.7398,-25.47074 10.8261,-45.89697 0.072,-17.34312 -0.069,-18.40041 -3.292,-24.5095 -6.5235,-12.36479 -18.6125,-20.25121 -34.1316,-22.26609 -2.75,-0.35704 -6.1035,-0.80672 -7.4522,-0.99929 -4.6432,-0.66298 -3.4081,3.53097 2.4548,8.33514 6.3757,5.22448 13.8066,14.73019 18.1119,23.16904 3.6978,7.2486 7.799,33.85013 7.037,45.6457 -0.3109,4.8125 -1.2338,12.55125 -2.0509,17.19722 -2.8089,15.9711 0.5335,15.70547 8.4969,-0.67525 z m 26.8807,-42.45947 c 6.1606,-10.58927 7.5753,-26.91758 3.3865,-39.09216 -4.0321,-11.71969 -8.9694,-15.36266 -24.5591,-18.120957 -14.5678,-2.57748 -16.5539,-0.38537 -6.1458,6.782987 12.6808,8.73355 20.2028,23.35616 21.4369,41.67288 0.7403,10.98588 1.2324,14.06975 2.2453,14.06975 0.3,0 1.9362,-2.39062 3.6362,-5.3125 z m -237.4309,111.56422 c -3.7703,-1.52045 -5.0908,-6.2386 -2.3142,-8.26894 2.4555,-1.79554 13.0646,-1.06874 18.1266,1.24181 3.5454,1.61835 4.8311,5.58128 2.3258,7.16899 -2.1688,1.37435 -14.6197,1.27697 -18.1382,-0.14186 z m -501.4917,-3.24132 c -20.7511,-4.54122 -34.2026,-14.87201 -38.8169,-29.81138 -2.7927,-9.04173 -2.4994,-14.09643 1.4026,-24.17548 3.141,-8.11336 14.6168,-18.26007 27.8587,-24.6321 9.3394,-4.49416 13.9447,-5.64041 37.5,-9.33371 19.963,-3.13006 35.9803,-6.08635 44.375,-8.19028 3.7812,-0.94767 12.2187,-2.65411 18.75,-3.79208 6.5312,-1.13799 18.6885,-4.23119 27.0163,-6.8738 14.2268,-4.51454 39.2063,-14.8929 42.6712,-17.72882 2.3508,-1.92417 1.8775,-4.72275 -0.799,-4.72275 -1.2989,0 -3.6895,-1.08976 -5.3126,-2.42168 -4.5574,-3.74005 -1.9524,-6.52898 7.7757,-8.32469 12.6954,-2.34341 28.2542,-8.9374 41.4731,-17.57662 14.0123,-9.157717 21.3559,-12.333977 34.1966,-14.790827 10.5012,-2.00919 12.5987,-2.96687 20.9544,-9.56712 3.3555,-2.65048 7.0118,-4.81695 8.125,-4.81438 3.8394,0.009 10.3048,5.06215 12.161,9.50489 2.161,5.17182 0.9956,10.47331 -4.0174,18.276127 -2.5338,3.944 -2.9986,6.25063 -3.0218,15 -0.036,13.75663 -0.9193,15.54343 -27.3619,55.37977 -3.7604,5.66517 -6.8436,12.33138 -8.6721,18.75 -3.9565,13.88871 -4.7838,15.58453 -7.603,15.58453 -3.159,0 -5.069,-6.46405 -5.0785,-17.1875 0,-4.29687 -0.5413,-7.8125 -1.1944,-7.8125 -0.653,0 -3.6061,1.5914 -6.5625,3.53647 -2.9563,1.94505 -7.1516,4.61692 -9.323,5.9375 -2.1713,1.32056 -7.2338,4.58695 -11.25,7.25861 -4.0161,2.67166 -10.1558,6.74979 -13.6436,9.0625 -3.4878,2.31271 -6.7598,4.20492 -7.2709,4.20492 -0.5113,0 -2.72,1.30987 -4.9085,2.9108 -12.2779,8.98154 -61.5027,30.62947 -84.6041,37.20694 -37.9451,10.80379 -39.8258,11.15093 -59.6319,11.00675 -9.5784,-0.0697 -20.7745,-0.89832 -25.1875,-1.86409 z m 57.3194,-11.72487 c 37.8321,-9.5033 86.539,-29.36906 109.1681,-44.52568 4.0112,-2.68666 8.7925,-5.73991 10.625,-6.78498 8.3326,-4.75207 31.499,-20.94263 37.8119,-26.426 6.9501,-6.03685 11.0123,-11.59822 9.5441,-13.06635 -0.4241,-0.42419 -6.637,1.25443 -13.8063,3.73027 -7.1693,2.47585 -17.6492,5.60359 -23.2887,6.95054 -11.103,2.65189 -15.1256,2.12446 -17.4899,-2.29324 -1.6177,-3.02275 -1.9522,-2.71087 13.6858,-12.75646 12.6162,-8.10441 18.75,-13.17758 18.75,-15.5078 0,-1.47109 -10.3858,-4.35583 -15.682,-4.35583 -1.6453,0 -7.6492,2.74019 -13.3422,6.0893 -5.693,3.3491 -14.5696,7.87243 -19.7258,10.05183 -5.1563,2.1794 -11.3438,4.85242 -13.75,5.94006 -4.6795,2.11514 -5.0519,2.24211 -21.25,7.2462 -9.5142,2.93919 -16.3448,4.55584 -35,8.2836 -3.0938,0.61821 -8.1563,1.69009 -11.25,2.38196 -7.2245,1.61564 -22.9155,4.4568 -41.875,7.58225 -29.8551,4.92157 -37.3699,7.81515 -51.7187,19.91425 -6.8483,5.77453 -10.1563,12.27403 -10.1563,19.95448 0,14.11196 13.3033,26.72855 31.6427,30.00937 11.3813,2.03604 45.0518,0.61052 57.1073,-2.41777 z m 189.2411,-96.1699 c 18.1731,-27.8071 17.4896,-26.26841 16.5589,-37.27821 -0.694,-8.21088 -0.4427,-9.87572 2.3118,-15.31153 1.6999,-3.35443 3.6638,-6.453217 4.3644,-6.886197 0.7005,-0.43297 1.2738,-2.43082 1.2738,-4.43964 0,-5.28637 -5.1377,-6.43282 -9.7689,-2.17992 -5.9153,5.43209 -11.8953,8.20182 -20.5729,9.528697 -10.0731,1.54029 -18.294,5.14057 -30.6947,13.44269 -5.0389,3.37342 -11.367,7.44125 -14.0625,9.03964 -2.6955,1.59838 -4.901,3.44043 -4.901,4.09344 0,2.32285 6.8943,3.79608 13.9387,2.9785 9.4839,-1.10072 12.8741,0.6452 11.7889,6.07112 -0.4338,2.16902 -2.1813,6.60681 -3.8831,9.86172 -1.702,3.25493 -3.0945,6.4909 -3.0945,7.19105 0,3.30835 5.8115,0.423 17.5772,-8.72699 7.0723,-5.5 13.283,-10 13.8015,-10 1.0171,0 4.8713,3.56035 4.8713,4.49994 0,0.31424 -1.7669,4.07094 -3.9264,8.34821 -4.894,9.69352 -6.225,14.23829 -5.2766,18.01699 0.9812,3.90979 2.7077,2.44058 9.6941,-8.24951 z m 831.6999,103.32535 c -3.3673,-3.3672 -2.2368,-4.978 4.7681,-6.79414 12.4256,-3.22156 20.1702,-1.51135 19.0682,4.21078 -0.3447,1.79057 -2.4952,2.49287 -10.9591,3.57913 -9.675,1.2417 -10.7206,1.16084 -12.8772,-0.99577 z m 467.809,-2.18143 c -25.4719,-2.24532 -46.7965,-10.35256 -60.9715,-23.18018 -9.2138,-8.338 -13.3564,-16.10438 -21.4659,-40.2433 -8.5001,-25.30208 -11.7125,-32.12702 -22.952,-48.76397 -9.669,-14.31225 -10.1554,-15.61428 -11.5614,-30.9471 -0.4414,-4.8125 -1.6107,-12.96875 -2.5987,-18.124997 -3.0237,-15.77972 -0.7119,-21.28431 10.7995,-25.71524 3.0937,-1.19083 6.75,-3.10071 8.125,-4.24418 1.375,-1.14347 4.0483,-3.04054 5.9407,-4.21573 1.8924,-1.17518 6.2748,-5.743 9.7386,-10.15072 6.9893,-8.89357 11.7805,-11.40735 18.2217,-9.56005 2.1303,0.61097 9.4366,3.9746 16.2361,7.47475 11.0335,5.6796 13.6397,6.49764 24.2379,7.60763 20.2876,2.12484 21.5298,2.27497 35,4.23007 19.7883,2.87215 27.3233,4.31343 36.25,6.93373 10.3045,3.02478 25.932,10.21534 34.3613,15.81042 3.5873,2.38113 6.886,4.32932 7.3305,4.32932 1.6539,0 0.6905,-4.57511 -2.3291,-11.06162 -3.5235,-7.56894 -3.9825,-14.88063 -1.2641,-20.13739 3.2295,-6.24519 20.7451,-18.35078 30.9485,-21.38946 8.6312,-2.57053 9.306,-2.59917 15.4681,-0.65672 8.3928,2.64559 12.1441,5.71949 15.5394,12.73296 4.772,9.85762 1.7831,23.427 -6.524,29.61861 -3.5174,2.62168 -13.8628,4.23828 -18.7754,2.93392 -3.1177,-0.82781 -14.7552,-11.21251 -14.7552,-13.16688 0,-1.50854 3.5601,-5.12342 5.0457,-5.12342 0.6145,0 3.0393,1.6875 5.3883,3.75 3.3965,2.98216 5.4265,3.75 9.914,3.75 4.8947,0 6.1575,-0.58591 9.5225,-4.41849 4.0197,-4.57819 5.011,-9.88167 2.666,-14.26337 -1.4408,-2.69205 -9.9338,-6.32316 -14.7493,-6.30593 -7.8699,0.0282 -30.4031,14.34203 -32.8949,20.89598 -1.8288,4.8103 3.5067,15.41636 10.1914,20.25882 7.0963,5.14045 13.4465,6.66062 25.4869,6.10112 13.0299,-0.60547 23.3009,-5.091 31.342,-13.68772 l 5.702,-6.09579 -0.3699,8.44519 -0.3697,8.44519 -6.875,4.59648 c -8.0965,5.413137 -21.8149,9.788047 -30.6749,9.782477 -3.4649,-0.002 -9.6068,-0.86528 -13.6485,-1.91801 -4.0416,-1.05274 -7.826,-1.43656 -8.4096,-0.85294 -0.5837,0.58362 1.1427,4.471 3.8365,8.63863 7.0485,10.90542 7.3353,11.56252 9.4977,21.75519 1.7019,8.02131 1.7616,11.81336 0.4503,28.58475 -1.4809,18.93901 -1.6357,19.61849 -7.525,33.04806 -3.3072,7.54133 -7.5629,15.98695 -9.4573,18.76805 -5.0211,7.37161 -20.1512,21.80296 -25.9442,24.74604 -2.75,1.39711 -7.5313,4.37387 -10.625,6.61502 -7.1204,5.15812 -24.7699,12.47987 -34.3545,14.25167 -7.7739,1.43708 -12.9458,1.45897 -28.1455,0.11912 z m 26.875,-11.20063 c 9.559,-2.06895 23.7911,-8.3759 30.625,-13.5714 3.7812,-2.87472 7.4923,-5.22918 8.2468,-5.23214 0.7545,-0.002 4.1295,-2.52423 7.5,-5.60283 3.3705,-3.07858 6.542,-5.60983 7.0479,-5.625 1.4361,-0.043 7.665,-9.98447 6.7986,-10.85082 -0.4248,-0.42485 -4.2086,2.04164 -8.4083,5.48107 -14.6193,11.97265 -40.871,17.53548 -70.9902,15.04309 -16.4135,-1.35824 -26.268,-4.56581 -39.5698,-12.87971 -12.6019,-7.87644 -19.1078,-13.6776 -28.6773,-25.57118 -9.0707,-11.27367 -11.7356,-15.74662 -24.4252,-40.99857 -10.6285,-21.15034 -18.9174,-33.58194 -21.3775,-32.06153 -0.6298,0.3892 -1.145,3.41335 -1.145,6.72032 0,5.46128 0.7966,7.10768 8.6868,17.95338 11.4562,15.74732 17.093,27.35267 25.0047,51.47984 7.3681,22.47 11.8748,30.40569 21.7291,38.26149 9.5896,7.64486 15.3249,10.54466 26.8567,13.57906 17.5819,4.62639 40.6862,6.34484 52.0977,3.87493 z m 25.8796,-34.47697 c 9.6649,-3.07743 12.247,-4.6074 23.125,-13.7024 19.8664,-16.60995 23.104,-20.22763 27.4984,-30.72576 3.2755,-7.82537 4.0238,-11.40942 4.3071,-20.625 0.447,-14.54049 -1.1298,-20.87556 -7.5478,-30.32645 -11.4816,-16.90754 -37.1877,-32.106607 -64.6503,-38.225327 -14.7494,-3.2862 -49.3707,-8.27431 -57.2273,-8.2451 -7.2095,0.0268 -21.1592,-4.51914 -32.9497,-10.7377 -5.7295,-3.02181 -11.3774,-5.47632 -12.5512,-5.45445 -2.855,0.0532 -4.9956,1.9213 -10.5653,9.22024 -5.255,6.88646 -9.4528,9.8027 -20.2343,14.05697 -9.8669,3.89335 -13.2092,7.1538 -13.2092,12.88542 0,3.7806 1.0337,5.52739 6.3436,10.719597 10.6902,10.45341 16.9947,19.97456 27.1906,41.06363 5.3815,11.13096 12.6224,24.43465 16.0909,29.56375 9.4534,13.97926 23.0312,27.20688 34.7499,33.85347 17.7275,10.05469 22.6746,11.12739 48.75,10.5705 17.701,-0.37805 21.2506,-0.82535 30.8796,-3.89139 z m -24.0046,-41.33653 c -6.2014,-1.90734 -9.7572,-3.95405 -25.1909,-14.50017 -5.7388,-3.92137 -11.6605,-8.92067 -13.1594,-11.10956 -3.038,-4.43659 -15.2122,-17.95289 -28.5969,-31.74939 -4.8521,-5.00147 -11.8833,-10.82194 -15.625,-12.93439 -3.7416,-2.112447 -9.2658,-6.351507 -12.2762,-9.420137 -4.4261,-4.5117 -5.3251,-6.17028 -4.6984,-8.66767 1.2071,-4.80922 3.9844,-4.89719 9.9858,-0.31627 7.3473,5.6084 14.5148,8.64491 31.2172,13.22522 32.4695,8.904117 46.176,14.612177 65.2286,27.164397 11.6219,7.65674 21.0345,16.71513 23.1498,22.27852 2.2094,5.81136 1.4895,17.34833 -1.3041,20.89997 -4.3549,5.53625 -18.9409,8.14041 -28.7305,5.12948 z m 22.1051,-10.68644 c 2.3237,-1.92854 2.0267,-8.60038 -0.5509,-12.37631 -2.0996,-3.07563 -10.1797,-11.18267 -11.1456,-11.18267 -0.2588,0 -1.0106,1.42067 -1.6708,3.15704 -1.5641,4.11398 -4.6505,5.216 -7.2705,2.59601 -1.9517,-1.95173 -1.9436,-2.34193 0.1252,-5.94636 2.6577,-4.6309 1.8253,-5.98969 -5.6478,-9.2199 -2.9259,-1.26465 -6.5629,-3.39721 -8.0822,-4.73902 -4.7143,-4.16322 -32.4378,-14.59777 -38.7849,-14.59777 -3.2996,0 -3.722,3.08785 -0.9274,6.78152 1.623,2.14519 2.1663,2.22154 5.0035,0.70307 2.8588,-1.52994 3.456,-1.43034 5.8644,0.978 2.2766,2.27658 2.4675,3.15108 1.2642,5.79198 -1.1636,2.55385 -1.015,3.60737 0.8305,5.88645 2.9602,3.65568 6.3872,2.39386 6.3872,-2.35179 0,-6.20466 4.9621,-8.78121 7.5607,-3.92582 0.975,1.82185 1.0156,3.62023 0.1344,5.93751 -0.6953,1.82825 -1.6154,5.96056 -2.0445,9.18292 -0.6735,5.05753 -0.4339,6.04421 1.7521,7.2141 2.2148,1.1853 2.931,0.7237 5.7113,-3.68056 2.1237,-3.36421 2.9343,-6.01043 2.4421,-7.9719 -1.2558,-5.00315 5.653,-9.71252 7.4351,-5.06824 1.2968,3.3791 0.8411,6.39826 -1.224,8.11219 -1.334,1.10715 -1.7527,2.79537 -1.2799,5.15985 0.3865,1.93286 0.065,4.91521 -0.7156,6.62744 -1.1709,2.56976 -1.0227,3.55036 0.8486,5.61821 3.1227,3.45045 5.2377,3.13905 7.4263,-1.09345 2.4027,-4.64634 5.7609,-5.97351 7.8579,-3.1056 2.2565,3.08594 1.9843,5.19006 -0.9045,6.99421 -3.4619,2.16201 -3.1243,4.26086 0.9375,5.82714 4.0005,1.54266 16.2685,0.68291 18.6676,-1.30825 z m -10.1755,-3.98949 c -2.7358,-2.00041 -1.8855,-7.58926 1.343,-8.82817 4.2339,-1.62467 7.9735,5.33393 4.6519,8.65567 -2.2812,2.2811 -3.0798,2.30409 -5.9949,0.1725 z M 6.2537,250.30883 c -4.6338,-2.31678 -6.3694,-6.18428 -3.5642,-7.9423 1.5552,-0.97467 15.5608,-0.43855 21.9147,0.83886 3.7731,0.75855 5.1257,5.4849 2.1851,7.63512 -3.2662,2.38832 -15.3195,2.07624 -20.5356,-0.53168 z m 1027.5334,-8.5399 c -5.7115,-2.47734 -8.7871,-5.36624 -8.7871,-8.25363 0,-3.7567 3.4742,-4.07354 10.1877,-0.92911 7.0414,3.29802 9.57,6.56672 7.2459,9.36697 -1.8455,2.22377 -3.1593,2.19577 -8.6465,-0.18423 z m 1725.4683,-3.78422 c -6.5901,-2.33785 -10.5053,-6.03127 -10.5053,-9.91015 0,-4.16995 3.1993,-4.02121 12.2978,0.5717 8.1482,4.11312 10.8158,6.70005 9.7563,9.46109 -0.8894,2.31761 -4.7866,2.27623 -11.5488,-0.12262 z M 623.75,224.37326 c -2.6146,-3.15045 0.6549,-5.36228 9.2941,-6.28746 8.7421,-0.9362 13.2059,0.52494 13.2059,4.3227 0,3.10935 -2.3681,3.83976 -12.4492,3.83976 -6.0259,0 -8.9469,-0.54492 -10.0508,-1.875 z m 985.4627,-7.86062 c -8.3215,-0.2953 -10.5763,-0.81801 -12.4474,-2.88568 -3.9854,-4.40375 -1.067,-6.70012 8.9908,-7.07467 8.9485,-0.33324 13.5506,1.10285 15.9751,4.98502 2.4372,3.90263 -1.2664,5.37463 -12.5185,4.97533 z M 0,200.7843 l 0,-5.78604 4.4371,0 c 6.1659,0 10.4409,-2.52328 17.6631,-10.42557 10.9582,-11.98995 16.9858,-34.63178 15.3605,-57.69943 -0.5328,-7.5625 -1.3849,-15.4375 -1.8936,-17.5 C 32.5032,96.948923 18.9562,81.305063 6.6519,75.982333 c -5.67,-2.45277 -6.6123,-3.34756 -6.6306,-6.29657 -0.012,-1.89062 0.6399,-3.4375 1.448,-3.4375 0.8081,0 5.5483,2.0155 10.5338,4.47888 15.8514,7.83236 28.4697,24.26257 31.604,41.151537 2.6319,14.18176 2.941,32.11948 0.7532,43.71345 -3.9056,20.6969 -10.4079,34.79737 -19.6339,42.57667 -5.2565,4.43231 -10.2016,6.47475 -18.2666,7.54461 L 0,206.57034 0,200.7843 Z m 2793.1754,-0.2101 c -2.7222,-0.94135 -8.066,-2.08904 -11.875,-2.55042 -3.8088,-0.46139 -7.9097,-1.35067 -9.1128,-1.97618 -2.371,-1.23272 -3.0579,-7.86387 -0.9495,-9.16695 0.681,-0.42084 5.843,-0.0602 11.4711,0.80135 12.3191,1.88585 16.459,4.67628 15.8292,10.66971 l -0.4133,3.93402 -4.9497,-1.71153 z M 649,195.99826 c -0.825,-0.825 -1.5,-2.16565 -1.5,-2.97921 0,-1.57897 -3.882,-2.97572 -8.3482,-3.00372 -1.4978,-0.01 -3.6266,-0.92042 -4.7306,-2.0245 -1.6313,-1.63129 -1.7137,-2.3614 -0.4397,-3.89653 3.2379,-3.90136 24.6038,1.66429 26.6268,6.93604 1.7487,4.55712 -7.8928,8.68337 -11.6083,4.96792 z m 735.3514,-13.01858 c -3.733,-4.02807 -8.358,-16.02863 -7.8512,-20.37192 0.2061,-1.76722 1.2677,-3.38218 2.359,-3.58881 3.9736,-0.75237 7.3979,3.93888 10.0561,13.77701 3.561,13.17903 1.8175,17.06933 -4.5639,10.18372 z m -299.723,-9.78432 c -6.975,-2.48806 -12.8358,-6.70592 -24.2893,-17.48055 -11.1443,-10.48377 -16.589,-19.56651 -16.589,-27.67325 0,-10.64175 13.0898,-29.197247 29.0722,-41.211457 9.6936,-7.2868 17.0214,-10.93859 26.2126,-13.06298 6.2907,-1.45398 8.1285,-1.39267 15.1392,0.50503 10.0365,2.71676 15.8055,7.42303 21.4319,17.48402 6.0672,10.849127 6.0279,17.545647 -0.1776,30.271597 -5.1885,10.64053 -10.9499,16.12749 -22.1221,21.06838 -8.8873,3.93038 -21.3276,4.28299 -28.9312,0.82004 -10.2723,-4.67834 -18.7746,-18.63891 -16.0573,-26.36558 2.538,-7.21674 17.7992,-13.75679 22.0897,-9.46631 3.4983,3.49831 2.5796,6.67691 -2.5492,8.81986 -5.842,2.44096 -9.1082,5.36081 -9.1082,8.14239 0,1.18844 2.2516,4.19501 5.0036,6.68126 4.6301,4.18305 5.5864,4.51934 12.8125,4.50555 14.77,-0.0282 27.9397,-10.30397 32.7318,-25.53921 2.0647,-6.5641 2.101,-7.60445 0.3914,-11.189597 -10.475,-21.9664 -32.5364,-21.17995 -56.7034,2.021377 -16.7198,16.05159 -22.058,26.8892 -17.5443,35.61786 2.7826,5.3809 21.3495,22.2883 28.0243,25.51954 5.2435,2.53832 6.3634,2.62716 17.6291,1.39837 22.421,-2.44554 33.992,-8.28531 52.6335,-26.56344 13.9447,-13.67296 16.8198,-18.82396 21.7812,-39.023347 2.7663,-11.26203 3.2403,-15.97089 3.2403,-32.19148 0,-13.9223 -0.568,-21.13128 -2.1253,-26.97559 -2.2859,-8.57882 -1.9698,-9.98429 1.9649,-8.73547 1.6,0.50781 3.555,3.41779 5.3253,7.92663 2.4136,6.14712 2.8684,10.09009 3.316,28.74772 0.4631,19.30724 0.2162,22.85546 -2.3055,33.124997 -3.2424,13.20473 -7.9842,25.45806 -12.7472,32.93999 -3.8564,6.05784 -20.6129,21.16664 -30.4634,27.46792 -9.5047,6.08011 -20.6632,10.03083 -34.7198,12.29277 -14.3222,2.30468 -16.2212,2.31511 -22.3667,0.123 z M 0,166.40803 0,160.31779 4.8809,159.5373 c 5.6943,-0.91055 15.8748,-9.91924 16.6136,-14.70127 0.6777,-4.38699 -0.974,-10.94082 -3.4459,-13.67214 C 15.6833,128.5502 8.885,126.26628 3.4375,126.25524 0.205,126.24824 0,125.91746 0,120.70185 l 0,-5.54641 4.6875,0.63559 c 16.7131,2.26617 26.5923,12.91027 26.5281,28.58223 -0.045,11.04595 -7.774,20.50432 -20.8406,25.50463 C 0.467,173.66945 0,173.51326 0,166.40803 Z m 242.4219,-0.23789 c -4.7668,-4.76678 -2.8796,-6.15149 13.5248,-9.92365 12.038,-2.76814 15.7784,-2.57066 17.1115,0.90345 1.2171,3.17177 -2.7901,6.11239 -12.2524,8.99122 -10.7842,3.28104 -15.125,3.28788 -18.3839,0.029 z m 350.1984,-1.37016 c -10.9309,-3.14157 -26.7566,-18.49653 -30.7609,-29.84597 -2.2128,-6.27171 -2.428,-16.53665 -0.4266,-20.35042 7.7219,-14.714557 29.3766,-29.603007 43.059,-29.604697 5.1991,-6.4e-4 15.7368,3.11416 22.6767,6.70292 4.9745,2.57244 9.452,11.829097 10.0507,20.778367 0.6194,9.26118 -4.3682,19.38658 -11.2723,22.8838 -8.2652,4.18665 -13.5601,4.1519 -22.7515,-0.14927 -9.279,-4.34216 -10.503,-6.28583 -11.0024,-17.471 -0.3047,-6.82364 -0.1833,-7.13611 2.914,-7.49614 4.2245,-0.49107 5.8818,1.69627 6.3696,8.40656 0.3727,5.12804 0.7128,5.59021 5.2705,7.16145 13.1249,4.52473 25.8639,-8.52096 19.9159,-20.39532 -2.6579,-5.30616 -10.2708,-8.989067 -18.8149,-9.102157 -14.0302,-0.18569 -39.0981,19.377457 -39.0981,30.512527 0,5.22471 5.1725,13.19672 12.7398,19.63492 9.6153,8.18058 10.6582,8.53271 25.2705,8.53271 11.7511,0 14.2249,-0.41381 22.8947,-3.82976 12.347,-4.8648 17.6467,-8.34312 28.2865,-18.56512 10.2938,-9.88956 14.4111,-17.52091 19.7274,-36.564907 3.3875,-12.13471 3.8156,-15.30525 3.1797,-23.55059 -0.8105,-10.51058 -2.6769,-19.43091 -5.5414,-26.4849 -4.5166,-11.1222 3.2075,-11.45637 8.7768,-0.37972 2.3404,4.65484 5.916,25.08928 5.916,33.80999 0,6.91754 -4.5174,26.414477 -8.7273,37.666427 -7.754,20.72425 -27.3626,38.21671 -52.1707,46.54051 -8.5131,2.85635 -28.3809,3.48796 -36.4817,1.15979 z m 1888.9423,-2.46104 c -2.1013,-2.1392 -1.9844,-6.9113 0.1897,-7.7456 0.9638,-0.36981 6.3289,-1.34158 11.9225,-2.15948 9.2435,-1.35157 10.3938,-1.28483 12.6228,0.73239 1.3488,1.22071 2.4525,2.95426 2.4525,3.85233 0,3.49233 -24.3102,8.24962 -27.1875,5.32036 z m -850.2627,-14.15563 c -4.0871,-4.92465 2.2849,-8.98147 16.2002,-10.31396 5.6931,-0.54516 7.4122,-0.21915 10,1.89656 4.1868,3.42309 2.4536,5.04775 -8.4073,7.88002 -10.4831,2.73378 -15.8359,2.89545 -17.7929,0.53738 z m 1136.9957,-3.8181 c -2.4564,-2.45638 -2.5208,-3.25317 -0.483,-5.98007 1.0596,-1.41808 5.2701,-2.63454 13.0837,-3.78016 12.3056,-1.80422 14.1038,-1.34194 14.1038,3.62586 0,3.64962 -5.8219,6.25477 -16.392,7.33501 -6.7672,0.6916 -8.6382,0.47378 -10.3125,-1.20064 z M 878.0011,135.31076 c -3.9754,-3.26562 -10.3551,-7.625 -14.177,-9.6875 -5.4183,-2.92393 -7.0339,-4.48359 -7.3343,-7.0802 -0.9172,-7.93033 12.0118,-3.89193 25.2151,7.87598 8.8211,7.8621 10.2157,10.23005 7.5784,12.86741 -1.079,1.079 -2.4326,1.96181 -3.008,1.96181 -0.5754,0 -4.2987,-2.67187 -8.2742,-5.9375 z m -366.0368,1.47322 c -3.6383,-3.63828 -2.3115,-7.32404 5.2232,-14.50989 8.0901,-7.71546 12.1817,-10.28536 14.7852,-9.28631 3.7977,1.45733 1.8432,6.95925 -5.2697,14.83385 -10.6608,11.80248 -11.4305,12.27055 -14.7387,8.96235 z m -429.0804,-1.1445 c -4.1601,-2.93362 -16.8721,-21.60332 -16.3991,-24.08491 0.6395,-3.3551 5.5262,-3.39772 8.3506,-0.0728 7.6106,8.95907 16.4445,21.81618 16.1289,23.47438 -0.5039,2.64809 -4.7813,3.00982 -8.0804,0.68335 z m 124.4508,-2.37977 c -0.8007,-1.75741 -0.9184,-3.7421 -0.2857,-4.81775 1.9803,-3.36657 27.2992,-24.63664 29.3605,-24.66536 3.3541,-0.0467 5.433,3.44245 4.118,6.91169 -0.6338,1.67236 -6.6874,8.1075 -13.4524,14.30032 -13.2496,12.12905 -17.2238,13.79425 -19.7404,8.2711 z m 2261.8022,-0.30635 c -1.2032,-3.13565 0.8888,-5.53992 10.6734,-12.26592 l 8.9986,-6.18582 2.5193,2.51922 c 1.3856,1.38558 2.1917,3.32545 1.7916,4.31083 -1.109,2.7305 -17.5595,13.66659 -20.5579,13.66659 -1.4521,0 -2.9935,-0.92021 -3.425,-2.0449 z m -570.6283,-10.53051 c -10.3408,-1.55033 -21.4897,-7.56628 -25.6373,-13.83388 -4.5885,-6.93358 -5.4442,-18.365207 -1.9636,-26.231027 2.9932,-6.76444 10.2435,-12.05129 17.9814,-13.11188 9.7213,-1.33246 19.9483,5.87638 21.854,15.40452 0.9411,4.70559 -1.8963,7.40638 -5.6632,5.39045 -1.4188,-0.7594 -2.5798,-1.8413 -2.5798,-2.40422 0,-0.56292 -1.3794,-2.51188 -3.0654,-4.33102 -4.6213,-4.98653 -9.8059,-4.48045 -15.8316,1.54541 -6.7344,6.73433 -6.7728,12.27145 -0.131,18.913117 11.4607,11.46083 33.1478,10.86298 46.9956,-1.29553 5.2774,-4.633567 13.7055,-20.353817 15.063,-28.095527 0.4822,-2.75 2.022,-9.78125 3.4217,-15.625 3.0017,-12.53068 2.564,-18.97244 -2.0298,-29.88711 -2.5162,-5.97807 -2.9372,-8.21714 -1.9068,-10.14231 1.6361,-3.05717 5.2379,-3.18959 7.6991,-0.28308 2.4275,2.86664 8.5713,23.53773 8.5509,28.77052 -0.04,10.21086 -6.395,36.07514 -11.5271,46.9112 -7.5205,15.878637 -19.3783,25.877057 -32.8636,27.710467 -3.4375,0.46735 -7.375,1.03245 -8.75,1.25579 -1.375,0.22333 -5.7025,-0.0741 -9.6165,-0.66089 z M 461.1583,118.57682 c -1.9096,-3.56814 -0.8918,-8.97184 3.7709,-20.020357 7.0454,-16.69431 8.0622,-17.88829 11.9353,-14.01515 3.0365,3.03651 2.0058,8.55004 -4.4667,23.894447 -5.6537,13.40316 -8.2433,15.73964 -11.2395,10.14106 z m -49.1024,-4.12654 c -6.3443,-6.84559 -12.7926,-24.326627 -9.6825,-26.248787 3.2692,-2.02044 6.0685,1.11629 11.753,13.169787 4.6753,9.91329 5.6492,13.01627 4.5144,14.38357 -2.0334,2.45009 -3.3463,2.18999 -6.5849,-1.30457 z m 802.9154,-7.66493 c -10.5766,-7.992087 -12.0749,-9.877317 -9.9169,-12.477527 2.3311,-2.8088 4.7838,-2.20863 13.0899,3.20297 10.4964,6.838687 14.0415,10.720617 12.3113,13.481147 -2.4672,3.93645 -5.9657,2.98604 -15.4843,-4.20659 z m 991.5621,2.04805 c -8.0551,-5.20627 -11.4287,-9.439737 -9.2548,-11.613617 0.8467,-0.84679 2.4222,-0.64768 4.8032,0.60706 17.9226,9.444577 19.7713,11.068387 16.4183,14.421417 -2.3035,2.30353 -3.764,1.88676 -11.9667,-3.41486 z m 261.5917,-6.79395 c -11.8053,-3.827267 -18.4423,-9.299267 -23.7018,-19.541187 -4.4951,-8.75344 -8.2241,-22.21851 -9.0007,-32.5 -1.0007,-13.25016 1.403,-34.53688 4.8571,-43.0136498 2.742,-6.72920998 3.0156,-6.98292998 7.5329,-6.9846099834842 2.5781,-9.499999958e-4 4.6875,0.2086600034842 4.6875,0.4658200034842 0,0.25716 -1.4603,3.08021998 -3.245,6.27346998 -6.18,11.0572198 -7.7974,43.1601198 -3.0295,60.1339698 3.3592,11.95941 5.1821,15.72452 9.7233,20.08371 4.8238,4.63023 10.4615,6.79129 17.7175,6.79129 5.1257,0 6.9955,-0.6575 10.4197,-3.66393 5.6527,-4.96314 10.8638,-14.91878 11.7572,-22.46124 0.6946,-5.86527 0.5001,-6.4305 -3.4571,-10.04491 -4.8868,-4.46326 -8.1544,-4.76422 -14.8178,-1.36479 -10.2502,5.22931 -13.5342,15.34617 -6.3576,19.58556 2.041,1.20561 4.0195,2.99621 4.3966,3.9791 0.8442,2.19994 -1.4992,5.22021 -4.0503,5.22021 -3.3734,0 -9.9764,-4.93397 -11.4885,-8.58466 -4.9884,-12.04299 2.2575,-25.16758 17.0037,-30.79922 5.2453,-2.00321 6.0688,-2.02346 9.8064,-0.24114 5.4915,2.61873 12.8401,9.20529 15.0602,13.4985 5.7627,11.1438 -2.2327,32.91592 -14.7903,40.27517 -6.8732,4.027917 -12.7604,4.923077 -19.0235,2.892537 z M 896.875,96.807433 c -2.0625,-1.03614 -7.0825,-4.86199 -11.1555,-8.50188 -5.3372,-4.76961 -7.181,-7.20301 -6.6017,-8.71263 1.3702,-3.57089 6.1347,-2.18874 15.7585,4.57149 11.2169,7.87929 12.9887,10.24516 9.5723,12.78206 -2.9552,2.19447 -2.9276,2.19498 -7.5736,-0.13904 z m 704.8676,-4.96093 c -2.0282,-3.09543 -1.9227,-3.36287 5.9087,-14.96162 4.3855,-6.49542 8.9851,-12.15485 10.2213,-12.57651 2.6027,-0.88782 5.8775,1.39965 5.8775,4.10548 0,5.56013 -14.6527,26.58441 -18.5277,26.58441 -0.7781,0 -2.344,-1.41829 -3.4798,-3.15176 z m 622.3171,-4.9443 c -8.3104,-6.047 -11.3785,-10.08507 -9.267,-12.19662 2.0147,-2.01475 6.4681,-0.25636 14.8949,5.88118 7.882,5.74083 9.0526,7.67143 6.3125,10.4115 -2.3512,2.35116 -3.7303,1.87809 -11.9404,-4.09606 z m -489.8461,-3.84999 c -2.4759,-3.77871 -3.8307,-14.87046 -1.9578,-16.02802 2.1596,-1.33473 4.8891,2.53315 6.4866,9.19204 2.2874,9.53485 -0.2505,13.36557 -4.5288,6.83598 z m 93.9823,-5.83208 c -2.5271,-3.60806 -2.5768,-13.89208 -0.077,-15.96667 1.5047,-1.24873 2.4652,-1.16016 4.9295,0.45459 2.6353,1.72662 3.0459,2.9205 2.9534,8.58536 -0.1566,9.59034 -3.7232,12.75532 -7.8057,6.92672 z m 428.2382,-3.15937 c -2.191,-4.15304 -4.233,-16.76348 -2.9263,-18.0703 3.603,-3.60297 10.2423,4.28903 10.2423,12.17483 0,6.82499 -4.7897,10.68455 -7.316,5.89547 z"
     style="fill:#7ac29e" />
</svg>
