<svg xmlns="http://www.w3.org/2000/svg" width="465" height="500">
  <g fill="#00A363">
    <path d="M465 32.4v77.2c-23 16.8-34.6 26-59.7 45-25 19.2-32.4 24.7-85.5 76-53 51.3-144 172.4-194 269.4H100c11.4-25.6 17.8-47.8 46.4-103.6 28.6-55.8 113.8-172.6 153.8-215.8 20-21.6 36.3-38.4 51.4-53C366.8 112.6 422 60 465 32.3z"/>
    <path d="M0 445.7c6.4 1.2 11.7 3 18.2 5.3s9 3 16 6c-6 11-7.3 14-11 21-3.5 6-6.7 12-12 22H0v-54.3z"/>
    <path d="M465 234.8c-10 8-12.4 10.4-19.6 16.4-7 6-87.8 83-117.3 118.6-29.3 35.5-49.3 70-59 84-9.3 14-24.2 46.2-24.2 46.2h-32.5c7.8-30 25-59.2 36.2-81.6 11.3-22.3 25.3-44.6 53.5-89 14-22 71-88.7 98-116.2 27.3-28.2 46.3-46.4 65-64.7v86.3z"/>
    <path d="M465 280v78.4c-30 28.5-52.7 58.4-69 82.6-16.4 24-25 40-36 59h-32c4-11 14.5-34.7 20.4-46 5.8-11.6 43.4-81.6 61.5-105 18-23.3 40.5-53.8 55-69z"/>
    <path d="M465 424.8V500h-38c1.3-4.7 5-15.6 10.4-26.5 4.8-10 19.7-38.8 27.6-48.7z"/>
    <path d="M0 375.5V330s17 7.8 24 11.6c7.2 3.8 39 22.3 40.2 23l18.3 11s-7.7 12-11.5 17.5l-16.2 25c-12-9.3-23.4-18-28.7-22.3-5.2-4.3-24-18.6-26-20z"/>
    <path d="M52.4 291.7c-18-15.5-38.3-30-52.4-40.4v-44c1 0 27.2 14 39 20.4 11 6.5 48 27.4 85 52l19.5 13c-2.4 3-5.3 6.3-14.4 18.6L107 339c-24.2-20.7-36.5-31.8-54.6-47.3z"/>
    <path d="M0 126.6c0-13.2-.2-29 0-43.6 12.6 6 21 8.7 39.2 18.8 18.2 10 83.4 46.4 112.6 64.4 29.2 18 42.3 28 62.4 41-12.2 14.7-34 39.4-43.5 50.8-21-17-64-54-88.8-74.2-25-20.3-57.3-41-82-57.2z"/>
    <path d="M0 0c148 .4 337.8 0 465 0-28.7 22.3-71 51-98 72-27.3 21-73.2 59-86.4 71.8-13 12.8-43.8 41-43.8 41-59-51-77-68-118.2-99.4C77.2 54 13 8.7 0 0z"/>
  </g>
</svg>
