<?xml version="1.0" encoding="UTF-8" standalone="no"?>
<svg
   xmlns:dc="http://purl.org/dc/elements/1.1/"
   xmlns:cc="http://creativecommons.org/ns#"
   xmlns:rdf="http://www.w3.org/1999/02/22-rdf-syntax-ns#"
   xmlns:svg="http://www.w3.org/2000/svg"
   xmlns="http://www.w3.org/2000/svg"
   width="10860.4"
   height="7712.6"
   id="KCCMarket"
   version="1.1">
  <g id="A">
    <path d="m 676.8457,3116.5078 -294.33398,306.4024 c 133.4154,128.2588 232.27925,229.5637 364.82428,357.0189 l 292.8138,-306.2773 C 909.81127,3346.6762 809.14628,3244.1697 676.8457,3116.5078 Z" id="A1" />
    <path d="m 1089.3398,3518.2734 -294.63277,306.377 c 132.56579,130.5051 230.36837,219.4515 361.40507,345.3933 0,0 197.153,-194.4408 285.5745,-304.5658 -130.023,-124.7874 -222.629,-221.0067 -352.3471,-347.2045 z" id="A2" />
    <path d="M 1499.6328,3919.9434 1205,4226.3203 c 130.7144,128.5869 262.8214,252.748 393.9453,378.9317 l 294.543,-306.4864 c 0,0 -275.5571,-265.9613 -393.8555,-378.8222 z" id="A3" />
    <path d="m 1933.5788,4346.8313 -287.3784,302.6549 c 135.0288,127.8752 239.1141,236.4346 372.1609,364.3732 l 294.6328,-306.377 c -131.9408,-125.5771 -249.1868,-233.3073 -379.4153,-360.6511 z" id="A4" />
    <path d="m 2345.7819,4741.2272 -285.4753,302.7624 c 127.3722,124.2256 236.2234,235.6263 364.4493,358.944 l 294.6328,-306.377 C 2592.0136,4972.1829 2475.5472,4863.821 2345.7819,4741.2272 Z" id="A5" />
    <path d="m 2750.4199,5123.2559 -285.569,306.2773 c 139.9497,131.7768 241.4523,239.4601 379.8913,367.7012 l -0.027,0.2988 288.7754,-311.6172 c -139.3758,-140.299 -383.0707,-362.6601 -383.0707,-362.6601 z" id="A6" />
    <path d="m 3170.4818,5524.4823 -280.5742,305.3172 c 135.7613,125.6628 261.2987,238.7729 398.7408,362.5618 l 284.5293,-315.8105 C 3438.6165,5749.9667 3312.976,5648.7551 3170.4818,5524.4823 Z" id="A7" />
    <path d="m 3603.7109,5903.4648 -279.4961,320.1739 c 143.261,125.9394 273.2195,243.2469 417.7383,364.2832 l -0.125,0.289 272.9942,-326.0722 C 3872.8357,6147.6039 3740.0702,6025.069 3603.7109,5903.4648 Z" id="A8" />
    <path d="m 4051.4297,6302.9986 -265.2149,308.7416 c 147.7518,126.656 301.9791,248.6372 460.2967,359.892 66.6263,-119.4914 131.3567,-240.0551 198.2886,-359.5586 -157.1726,-116.5892 -393.3704,-309.075 -393.3704,-309.075 z" id="A9" />
    <path d="m 4510.2826,6640.7552 -189.0748,377.7721 c 173.9216,91.9231 346.9193,164.5702 529.8242,245.8529 l 155.1419,-387.7923 c 0,0 -332.7037,-149.8338 -495.8913,-235.8327 z" id="A10" />
    <path d="m 5081.899,6907.2915 -146.065,389.0034 546.4531,160.2989 87.7963,-413.4441 z" id="A11" />
    <path d="m 5647.9707,7071.3311 -101.4941,398.2021 c 191.2523,44.0213 376.5813,61.7445 573.0546,86.8652 l 34.2761,-412.016 c 0,0 -324.4469,-39.8057 -505.8366,-73.0513 z" id="A12" />
    <path d="m 6712.179,7140.8865 c -178.8105,12.335 -308.0811,2.3674 -486.9839,-2.3114 l -40.9041,422.2843 c 189.8381,11.9337 369.2583,3.5477 559.332,0.8086 l 0.088,-0.9961 z" id="A13" />
    <path d="m 7304.767,7066.1979 -524.8003,73.1467 44.2097,415.8722 562.6537,-76.0195 z" id="A14" />
    <path d="m 7888.7324,6928.9629 c -173.8764,54.7194 -351.2383,86.6599 -529.656,122.2715 l 83.5254,416.7109 c 186.0628,-30.2726 397.0863,-90.6029 555.0507,-128.1113 z" id="A15" />
    <path d="m 8445.0072,6725.0566 c -167.3902,74.4547 -313.9673,134.8155 -487.3282,192.3368 l 115.4197,390.6324 c 185.4026,-52.372 364.221,-131.0431 541.5513,-203.3595 z" id="A16" />
    <path d="m 8892.832,6409.7904 c -142.5749,113.4859 -234.2,179.0258 -385.5635,279.7953 l 186.835,371.8323 C 8850.7142,6964.3979 8993.7322,6856.1642 9142,6747.3008 l -0.3008,0 z" id="A17" />
    <path d="m 9337.6889,6042.4335 -170.1791,144.2364 -227.8106,181.6309 260.7012,335.6992 189.8476,-147.2812 0.6055,0.9941 246.1465,-218.1133 -0.1992,-0.2988 z" id="A18" />
    <path d="m 9731.2394,5622.0909 -158.6398,174.5087 0.6328,0.5234 L 9372.1992,6003 9675,6301.1992 l 224.5742,-234.5801 0.8262,0.6817 160.9996,-195 z" id="A19" />
    <path d="M 10036.539,5143.0527 C 9963.4798,5306.8569 9861.6469,5426.3139 9759,5572 l 346.699,245.8008 c 130.565,-156.278 214.7,-321.8105 308.5,-498.2012 l 0.901,0 z" id="A20" />
    <path d="m 10244.07,4647.4473 c -55.111,152.2652 -122.328,297.5782 -189.47,444.6523 l 386.701,176.3008 c 77.194,-151.0861 135.425,-306.9216 197.769,-464.252 z" id="A21" />
    <path d="m 10444.07,4099.6309 c -55.119,154.0649 -110.859,320.2009 -170.147,472.6595 l 387.143,152.1888 c 62.031,-154.0783 123.493,-321.0386 181.405,-476.6472 z" id="A22" />
  </g>
  <g id="B">
    <path d="m 3178.1614,3988.3533 -178.9604,247.561 -344.5313,-249.1018 179.1739,-247.5717 344.2111,249.1179 z" id="B1" />
    <path d="m 3382.5626,3705.8211 -178.9316,247.3324 -344.4246,-249.1072 178.826,-247.3286 344.6376,249.0972 z" id="B2" />
    <path d="m 3586.9933,3423.0595 -178.9605,247.5609 -344.4246,-249.1071 178.9599,-247.5601 344.5314,249.1018 z" id="B3" />
    <path d="m 3791.5011,3140.5218 -178.9314,247.3325 -344.4246,-249.1071 178.9182,-247.2199 344.424,249.108 z" id="B4" />
    <path d="m 3995.9174,2857.8745 -178.9182,247.2198 -344.4524,-248.8802 178.9322,-247.3333 344.4246,249.1072 z" id="B5" />
    <path d="m 4545.589,2223.9565 c -178.3626,36.5297 -353.018,69.8511 -532.2237,103.364 l 81.3068,417.2473 c 179.1892,-32.8191 354.0072,-68.861 531.9257,-103.3984 z" id="B6" />
    <path d="m 5113.0429,2113.6807 c -177.5442,34.185 -354.4016,68.6372 -532.2237,103.3639 l 81.3017,417.218 c 178.8742,-32.9016 354.0554,-68.7691 531.9307,-103.3689 z" id="B7" />
    <path d="m 5680.3567,2003.7904 c -178.2,36.4354 -352.844,69.6122 -531.8848,103.0008 l 80.9194,417.1033 c 179.866,-34.1887 352.4505,-68.2872 532.3029,-103.157 z" id="B8" />
    <path d="m 6247.8514,1893.117 c -177.2873,34.4971 -354.5911,68.8274 -531.9053,103.1975 l 81.0412,416.9168 -0.063,0.5964 c 178.3222,-36.2405 353.7926,-68.7713 532.2237,-103.366 z" id="B93" />
    <path d="m 6812.6937,1761.2928 c -174.5026,53.4973 -351.0641,88.2953 -529.4236,125.034 l 81.3018,417.216 c 191.5503,-28.0407 370.6963,-80.9237 556.2398,-131.227 z" id="B10" />
    <path d="m 7371.6047,1614.5408 c -174.3662,46.5088 -348.4082,91.7217 -523.2094,137.5909 l 107.4145,410.8676 c 175.2549,-46.6486 348.448,-91.5382 524.2264,-137.7231 z" id="B11" />
    <path d="m 7930.7493,1466.9973 c -175.4789,46.9162 -347.9546,92.2522 -524.0183,137.7592 l 108.0314,410.7201 524.2021,-137.3524 z" id="B12" />
    <path d="m 8489.8743,1319.9534 c -175.3799,46.5721 -348.5737,92.2149 -524.3276,137.9473 l 108.2195,411.0274 c 175.4428,-47.2799 348.6858,-91.7152 524.2261,-137.9518 z" id="B13" />
    <path d="m 8632.9977,1721.6882 528.2414,-144.5281 -120.6753,-421.6693 -515.9883,155.2619 108.4182,411.0354 z" id="B14" />
  </g>
  <g id="C">
    <path d="m 3767.7599,4808.3269 -318.836,-53.5789 103.0128,-481.0992 318.0394,105.3384 z" id="C1" />
    <path d="m 4209.8315,3582.0384 -440.5823,517.3697 305.1744,202.8228 427.2195,-508.4958 z" id="C2" />
    <path d="m 4979.5055,3236.6075 c -178.2884,38.285 -320.4017,66.9217 -499.1272,104.6716 l 89.0033,415.6224 c 168.8203,-36.3119 337.4651,-73.0293 506.5207,-107.7465 z" id="C3" />
    <path d="m 5549.6286,3111.7558 c -178.4267,38.7848 -323.7196,70.2013 -502.8592,107.4204 l 89.0292,415.3245 -0.076,0.8978 c 177.9722,-39.5484 332.1334,-69.2494 510.2297,-107.4662 z" id="C4" />
    <path d="m 6119.6588,2988.8147 c -177.0393,38.5349 -329.2984,71.5292 -506.6563,108.9491 l 88.9878,415.8232 -0.033,0.3993 c 179.317,-42.4017 329.0228,-72.7372 508.5996,-111.2702 z" id="C5" />
    <path d="m 6734.0292,2863.2504 -543.9953,114.3154 95.1293,404.8215 556.8542,-119.7881 z" id="C6" />
    <path d="m 7408.2239,2678.2679 c 0,0 -358.859,90.8949 -573.4213,158.8942 l 113.0382,399.8544 591.8758,-184.407 z" id="C7" />
    <path d="m 8264.7389,2363.9529 -746.1634,271.1795 132.6179,377.7842 c 271.934,-104.3902 528.448,-180.2847 754.9106,-256.7918 z" id="C8" />
    <path d="m 9169.8104,2051.1776 c -262.518,90.0585 -523.9177,178.1758 -788.1054,267.0332 l 136.041,402.5254 788.3086,-266.9436 -136.2442,-402.6191 z" id="C9" />
  </g>
  <g id="D">
    <path d="m 4383.6151,4911.6561 3.6059,309.8759 -558.2463,2.9903 4.8345,-307.5782 z" id="D1" />
    <path d="m 4743.5047,4555.3088 225.3455,217.5534 -380.652,365.2852 -209.6601,-226.2929 z" id="D2" />
    <path d="m 5472.459,4164.3066 c -177.0765,48.1861 -350.5596,94.702 -528.3106,141.4414 l 109.9864,410.5293 c 179.0934,-43.4386 352.147,-94.3084 528.332,-141.3632 z" id="D3" />
    <path d="m 6014.7296,4019.8112 c -175.9532,45.6557 -299.8811,83.199 -476.9845,131.2993 l 115.1032,397.5933 c 177.9743,-44.9224 295.9881,-73.7963 471.8891,-120.8466 z" id="D4" />
    <path d="m 6575.1723,3867.7445 c -172.5438,42.4862 -320.5297,86.3238 -495.3559,133.7418 l 110.0059,410.6094 c 177.0999,-49.257 325.8243,-87.3506 503.12,-134.8173 z" id="D5" />
    <path d="m 7134.9066,3716.4704 c -177.6828,48.5544 -308.5809,86.2996 -487.2093,132.9358 l 110.0078,410.6094 c 177.2519,-49.4438 316.7224,-85.7402 494.1571,-133.316 z" id="D6" />
    <path d="m 7704.1478,3563.9375 c -176.0791,44.2536 -310.6234,84.4609 -488.5677,133.3906 l 110.0097,410.5078 c 178.4046,-43.9227 317.2235,-84.4318 491.7394,-131.2262 z" id="D7" />
    <path d="m 8274.4234,3412.8879 -491.2574,132.2527 110.0059,410.6074 0.3008,0.01 485.7513,-130.6758 z" id="D8" />
    <path d="m 8844.4426,3263.0518 -209.4543,54.0185 0.164,0.6113 -284.1074,75.4786 110.0156,410.3086 0.2969,0.1074 283.8711,-76.0157 0.068,0.025 220.3767,-60.1191 z" id="D9" />
    <path d="m 9331.8503,2989.4741 c -120.0353,100.4549 -254.4388,175.3303 -390.2586,251.1997 l 130.9917,397.1816 305.6132,-124.4197 c 0,0 153.3029,-147.7438 214.6863,-195.1422 z" id="D10" />
    <path d="m 9812.6445,2600.7812 c -144.7078,115.2388 -282.5747,222.9781 -422.6742,338.1019 l 261.0327,337.6557 421.429,-339.2908 z" id="D11" />
  </g>
  <g id="LAWN">
    <path d="m 5844.8164,5996.5173 -110.8157,331.4567 -563.2022,-245.9844 173.4794,-275.8558 z" id="LAWN1" />
    <path d="M 6553.029,6151.7473 6524.3974,6469.7826 5831.3103,6354.8 5935.2228,6021.3962 Z" id="LAWN2" />
    <path d="m 7348.0219,6363.0717 -705.2328,125.7354 -13.5473,-339.7268 618.2447,-107.4054 c 38.1858,120.5537 70.6248,213.6023 100.5354,321.3968 z" id="LAWN3" />
    <path d="m 7988.3952,5759.1749 122.0984,316.281 -660.0801,246.5338 -96.4843,-311.1582 z" id="LAWN4" />
    <path d="m 8518.7635,5392.8326 214.9632,248.5847 -537.6132,384.7795 -126.3747,-325.0411 z" id="LAWN5" />
    <path d="m 8986.4426,4929.8733 242.2982,182.9643 -423.5305,466.6836 -215.5764,-232.9532 z" id="LAWN6" />
  </g>
  <g id="E">
    <path d="m 5581.4392,5684.0518 386.123,-108.8938 -116.3758,-408.7516 -386.5853,108.9363 116.3758,408.7515 z" id="E1" />
    <path d="m 6020.2162,5560.3462 385.9688,-108.8798 -116.3589,-408.856 -385.9688,108.8798 116.3589,408.856 z" id="E2" />
    <path d="m 6458.685,5436.6688 386.2769,-108.908 -116.4936,-408.0206 -386.1398,108.9983 116.359,408.856 z" id="E3" />
    <path d="m 6897.3245,5312.8728 386.106,-108.7895 -116.3252,-409.0647 -385.9689,108.8797 116.3761,408.7514 z" id="E4" />
    <path d="m 7335.9473,5189.1812 386.2771,-108.908 -116.376,-408.7515 -386.3779,109.5346 116.3254,409.0648 z" id="E5" />
    <path d="m 7774.587,5065.3851 386.2602,-108.8035 -116.3758,-408.7515 -386.123,108.894 116.3758,408.7514 z" id="E6" />
    <path d="m 8213.347,4941.7839 386.1229,-108.8939 -116.3591,-408.8558 -386.1227,108.8939 116.3589,408.8558 z" id="E7" />
    <path d="m 8645.8858,4474.7835 170.5473,-272.3431 398.8483,242.0293 -170.6607,272.3832 -398.8712,-242.1441 z" id="E8" />
  </g>
  <g id="F">
    <path id="F1" d="m 2079.8239,2942.688 -105.796,336.5599 -405.4027,-127.7842 105.7748,-336.4236 405.2354,128.8749 z" />
    <path id="F2" d="m 2202.5708,2552.2569 -105.7959,336.5598 -405.4445,-127.5114 105.8168,-336.6961 405.2352,128.8748 z" />
    <path id="F3" d="m 2326.0037,2164.0226 -105.796,336.5597 -405.4446,-127.5113 105.8169,-336.6965 405.4444,127.5116 z" />
    <path id="F4" d="m 2451.176,1774.4466 -105.7959,336.5597 -405.4026,-127.7839 105.7751,-336.4237 405.4443,127.5115 z" />
    <path id="F5" d="m 2570.4174,1399.5438 -105.796,336.5598 -405.4446,-127.5113 105.817,-336.6965 405.8524,127.5175 z" />
  </g>
</svg>
